<svg id="Layer_1" data-name="Layer 1" xmlns="http://www.w3.org/2000/svg" viewBox="0 0 348.85 235.17"><defs><style>.cls-1,.cls-12{fill:#d7d5ec;}.cls-1,.cls-10,.cls-11,.cls-14,.cls-17,.cls-2,.cls-20,.cls-21,.cls-3,.cls-4,.cls-5,.cls-6,.cls-7,.cls-8,.cls-9{fill-rule:evenodd;}.cls-16,.cls-2{fill:#494e9c;}.cls-15,.cls-3{fill:#fff;}.cls-18,.cls-4{fill:#9d9dcc;}.cls-5{fill:#de9396;}.cls-6{fill:#e06263;}.cls-7{fill:#282657;}.cls-8{fill:#1e1c3e;}.cls-22,.cls-9{fill:#5865ad;}.cls-10{fill:#d04b61;}.cls-11{fill:#e8b8ba;}.cls-13{fill:#212147;}.cls-14{fill:#eaebf5;}.cls-17{fill:#eebe56;}.cls-19{fill:#fcfeff;}.cls-20{fill:#b74544;}.cls-21{fill:#292a62;}</style></defs><path class="cls-1" d="M49.8,1.12A48.15,48.15,0,0,0,1.87,49.2h0A48.15,48.15,0,0,0,49.8,97.28h0a9.66,9.66,0,0,1,9.62,9.65h0a9.67,9.67,0,0,1-9.62,9.65H24.72A23.48,23.48,0,0,0,1.34,140h0a23.48,23.48,0,0,0,23.38,23.45A20.32,20.32,0,0,1,45,183.77h0a37.06,37.06,0,0,0,36.89,37H298.45a48.15,48.15,0,0,0,47.93-48.08h0a48.15,48.15,0,0,0-47.93-48.08h-4.64a9.66,9.66,0,0,1-9.62-9.65h0a9.66,9.66,0,0,1,9.62-9.64H325A23.49,23.49,0,0,0,348.4,81.87h0a23.49,23.49,0,0,0-23.34-23.45H300a20.31,20.31,0,0,1-20.22-20.29h0a37.06,37.06,0,0,0-36.9-37Z" transform="translate(-0.45 -1.12)"/><path class="cls-2" d="M239.38,28.14a14.51,14.51,0,1,1-4.22,10.23,14.38,14.38,0,0,1,4.22-10.23ZM249.58,26a12.38,12.38,0,1,0,8.73,3.63A12.3,12.3,0,0,0,249.58,26Z" transform="translate(-0.45 -1.12)"/><path class="cls-2" d="M258.31,48.6a1.05,1.05,0,0,1,0-1.47,1,1,0,0,1,1.46,0l3.41,3.42A1,1,0,1,1,261.72,52Z" transform="translate(-0.45 -1.12)"/><path class="cls-2" d="M261.86,53.62a2.09,2.09,0,0,1,0-2.93,2.06,2.06,0,0,1,2.92,0l15.74,15.79a2.07,2.07,0,0,1-2.92,2.93Z" transform="translate(-0.45 -1.12)"/><path class="cls-3" d="M256.28,31.6a.66.66,0,0,1,0-.92.65.65,0,0,1,.91,0,10.82,10.82,0,0,1,3.16,7.66h0a10.87,10.87,0,0,1-.42,3,.64.64,0,0,1-.79.45.66.66,0,0,1-.45-.8,9.48,9.48,0,0,0,.38-2.65h0a9.53,9.53,0,0,0-2.79-6.74Zm1.28,11.9a.64.64,0,0,1,1.08.7c-.2.32-.43.63-.67.94a11,11,0,0,1-.78.87.65.65,0,0,1-.91,0,.66.66,0,0,1,0-.92,9.83,9.83,0,0,0,1.28-1.59Zm-14.74,1.59a.66.66,0,0,1,0,.92.65.65,0,0,1-.91,0,10.94,10.94,0,0,1-2.34-3.52,10.81,10.81,0,0,1-.82-4.15,11.13,11.13,0,0,1,.18-2,10.64,10.64,0,0,1,.54-1.91.64.64,0,1,1,1.2.46,9.77,9.77,0,0,0-.48,1.68,10.17,10.17,0,0,0-.16,1.75,9.6,9.6,0,0,0,.73,3.66,9.45,9.45,0,0,0,2.06,3.09Zm-1-12.32a.64.64,0,0,1-1-.75q.25-.36.54-.69l0,0c.2-.22.38-.43.56-.61a.65.65,0,0,1,.91,0,.66.66,0,0,1,0,.92c-.19.19-.35.36-.5.53l0,0C242.13,32.36,242,32.57,241.82,32.77Z" transform="translate(-0.45 -1.12)"/><path class="cls-4" d="M252.69,42.7a.62.62,0,1,0,.62,1.08,6.31,6.31,0,0,0,2.29-2.3A6.25,6.25,0,1,0,244,38.36a.63.63,0,0,0,1.25,0,5,5,0,0,1,1.46-3.54,5,5,0,0,1,7.06,0,5,5,0,0,1,.8,6A5.12,5.12,0,0,1,252.69,42.7Z" transform="translate(-0.45 -1.12)"/><path class="cls-4" d="M299.7,151.13a24.88,24.88,0,1,1-9.55,1.9,24.92,24.92,0,0,1,9.55-1.9Zm9.19,2.78a24.11,24.11,0,0,0-18.38,0,24.1,24.1,0,0,0-7.8,5.23,24.43,24.43,0,0,0-5.22,7.82,24.13,24.13,0,0,0,13,31.49,24,24,0,0,0,18.38,0,24.09,24.09,0,0,0,13-13,24.26,24.26,0,0,0,0-18.44,24.09,24.09,0,0,0-13-13.05Z" transform="translate(-0.45 -1.12)"/><path class="cls-5" d="M229.32,67s12.51-21.62,17.58-29.65c2.23-3.52,5.6-2.53,3.52,2.16-1.15,2.59-5.18,9-5.18,9,5.66.56,7.52,7.43,6,10.24-.76,1.38-5.35,5.32-6.45,6s-5.82,6.8-5.82,6.8Z" transform="translate(-0.45 -1.12)"/><path class="cls-6" d="M238.59,51.14c1.29-2.2,2.6-4.41,3.84-6.47l1.32.15a5.4,5.4,0,0,0,4.6-1.47c-1.48,2.55-3.11,5.14-3.11,5.14a6.67,6.67,0,0,1,2.38.69,23.5,23.5,0,0,1-7.76,1.94A6.09,6.09,0,0,1,238.59,51.14Z" transform="translate(-0.45 -1.12)"/><path class="cls-6" d="M236.64,54.45c.89-1.51,1.8-3.07,2.72-4.61,1.88-.47,4.1-1,6.23-1.3,5.38.79,7.14,7.44,5.65,10.19a24.87,24.87,0,0,1-4.07,4.12C242.57,61.55,238.83,57.43,236.64,54.45Z" transform="translate(-0.45 -1.12)"/><path class="cls-5" d="M250.11,52.65c2.23,1.27,3.77,2.49,2.32,5.46s-4.63,2.72-4.58,1.6,2.67-5.14,2.67-5.14S247.11,52.32,250.11,52.65Z" transform="translate(-0.45 -1.12)"/><path class="cls-5" d="M248.25,50.78c3.55-.7,3.64,2,2,5.34s-4.12,3.6-5.08,2.13,2.88-5.43,2.88-5.43S244.89,50.41,248.25,50.78Z" transform="translate(-0.45 -1.12)"/><path class="cls-5" d="M248.39,53.29c-1.63,3.32-3.93,3.4-4.89,1.93s2.88-5.43,2.88-5.43-1.09-1-.87-1.67c.53-1.59,4.07-1.7,4.21,1.26A9.71,9.71,0,0,1,248.39,53.29Z" transform="translate(-0.45 -1.12)"/><path class="cls-5" d="M233,62.47c-2.3-6.06.09-14.72,2.68-14.52s10.88-.63,11.17,1.63-8.58,3.65-8.58,3.65,6,7.12,2.3,9.14S232.86,64.48,233,62.47Z" transform="translate(-0.45 -1.12)"/><path class="cls-7" d="M162.49,105s33.33-2.38,34.83-2.58,2.66-.66,5.94-4.33,27.2-36.57,27.2-36.57c.81-1.3,14.27,7.3,12.22,12.34-1,2.47-26.35,41.42-26.35,41.42s-4.93,8.78-13,12.21-26.75,12.71-26.75,12.71Z" transform="translate(-0.45 -1.12)"/><path class="cls-2" d="M185.8,103.28l5.94-.45c7.42,4,15.66,12,8.52,26-1.38.63-2.9,1.33-4.48,2.08,11.1-17.13-2.85-24.91-10-27.61Zm8-.6c7.19,3.47,16.49,11.12,7.48,25.68.75-.34,1.45-.64,2.08-.91a19.43,19.43,0,0,0,2.32-1.18c6-12.47-.32-20-7-24.22a4.89,4.89,0,0,1-1.33.33C197.05,102.42,195.75,102.53,193.8,102.68Z" transform="translate(-0.45 -1.12)"/><path class="cls-7" d="M163.14,105.36c28.83,5,29.35,38.47,25.08,67.21-.92,14.23.71,36-.85,42.09a8.87,8.87,0,0,1-1.22,2.21L152.69,218H115.22a8.25,8.25,0,0,1-1.22-2.21c-1.57-6.06,1.68-37.41.75-51.64l-2.67-47.77,30.16-11Z" transform="translate(-0.45 -1.12)"/><path class="cls-6" d="M173.77,71.65l.47.08h0a6.45,6.45,0,1,1-5.38,1.3c-.16,1.91.14,4.27,2.57,4.51l-.08-3.73A2.23,2.23,0,0,1,173.77,71.65Z" transform="translate(-0.45 -1.12)"/><path class="cls-6" d="M129.87,71.65l-.47.08h0a6.45,6.45,0,1,0,5.38,1.3c.17,1.91-.14,4.27-2.56,4.51l.07-3.73A2.23,2.23,0,0,0,129.87,71.65Z" transform="translate(-0.45 -1.12)"/><polygon class="cls-8" points="176.84 55.06 174.74 74.33 170.35 56.18 176.84 55.06"/><path class="cls-4" d="M163.14,104.91a25.39,25.39,0,0,1,2.9-.2c2.86,10.07-2.76,17.47-13.35,17.47a14.3,14.3,0,0,1-14.25-14.29v-1.15l3.8-1.38Z" transform="translate(-0.45 -1.12)"/><path class="cls-9" d="M220.38,223.07H146.11A5.13,5.13,0,0,1,141,218h0a5.13,5.13,0,0,1,5.1-5.12h74.27a5.13,5.13,0,0,1,5.1,5.12h0A5.13,5.13,0,0,1,220.38,223.07Z" transform="translate(-0.45 -1.12)"/><path class="cls-2" d="M146.34,223.07H112.89a5.13,5.13,0,0,1-5.1-5.12h0a5.12,5.12,0,0,1,5.1-5.12h33.45a5.12,5.12,0,0,1,5.1,5.12h0A5.13,5.13,0,0,1,146.34,223.07Z" transform="translate(-0.45 -1.12)"/><path class="cls-5" d="M152.69,83.54h0A10.51,10.51,0,0,0,142.24,94v13.86a10.5,10.5,0,0,0,10.45,10.48h0a10.5,10.5,0,0,0,10.45-10.48V94A10.5,10.5,0,0,0,152.69,83.54Z" transform="translate(-0.45 -1.12)"/><path class="cls-6" d="M142.28,93.12c0,.3,0,.6,0,.9v13.87a10.39,10.39,0,0,0,.67,3.67l20.23-9.08V94.69c-3.72-.68-12.75-1.62-13.28-2.06C149.53,92.35,145.79,92.71,142.28,93.12Z" transform="translate(-0.45 -1.12)"/><path class="cls-5" d="M175.18,61.15V81.62a22.16,22.16,0,0,1-22.06,22.13h0a22.16,22.16,0,0,1-22.06-22.13V61.5a17.64,17.64,0,0,1,.64-5.29,22.16,22.16,0,0,1,21.42-16.84h0A22.16,22.16,0,0,1,175.18,61.15Z" transform="translate(-0.45 -1.12)"/><path class="cls-6" d="M175.18,61.15v.21l-13.45-5.48L156,59.25l-7.43-2.07a2.07,2.07,0,0,1-2.06,1l-7.8-2.82,1-11.34a22.33,22.33,0,0,1,3.62-2.29l23.45,2.41A22.15,22.15,0,0,1,175.18,61.15Z" transform="translate(-0.45 -1.12)"/><path class="cls-8" d="M150.43,82.75a5.71,5.71,0,1,0,11.41.45h0a1,1,0,0,0-1-1l-9.42-.37a1,1,0,0,0-1,1Z" transform="translate(-0.45 -1.12)"/><path class="cls-10" d="M152.38,87.28A5.71,5.71,0,0,0,159,88a3.82,3.82,0,0,0-6.58-.67Z" transform="translate(-0.45 -1.12)"/><path class="cls-3" d="M161,82.18l-8.85-.35a2,2,0,0,0,.88,2.23c.79.3,7.21.38,7.68-.11A3.37,3.37,0,0,0,161,82.18Z" transform="translate(-0.45 -1.12)"/><path class="cls-6" d="M143.85,77.82a2.91,2.91,0,1,1-2.85,3A2.9,2.9,0,0,1,143.85,77.82Z" transform="translate(-0.45 -1.12)"/><path class="cls-6" d="M167.94,77.35a2.91,2.91,0,1,1-2.84,3A2.9,2.9,0,0,1,167.94,77.35Z" transform="translate(-0.45 -1.12)"/><path class="cls-8" d="M169.16,67.81a.78.78,0,0,0,1.05-.35.77.77,0,0,0-.35-1,7.29,7.29,0,0,0-6.88,0,.79.79,0,0,0-.27,1.08.78.78,0,0,0,1.07.27A5.73,5.73,0,0,1,169.16,67.81Z" transform="translate(-0.45 -1.12)"/><path class="cls-8" d="M164.4,74.26a2,2,0,0,1,.6-1.44,2,2,0,0,1,2.89,0,2,2,0,0,1,.6,1.44.79.79,0,1,0,1.57,0,3.62,3.62,0,1,0-7.23,0,.79.79,0,1,0,1.57,0Z" transform="translate(-0.45 -1.12)"/><path class="cls-11" d="M159.08,76a11.11,11.11,0,0,1,1.56,2.61c.11.71-1.47,1.12-2.56.82-.77-.21-.65-1.95-.43-3S158.23,74.86,159.08,76Z" transform="translate(-0.45 -1.12)"/><path class="cls-8" d="M148.62,67.81a.78.78,0,0,0,.71-1.4,7.31,7.31,0,0,0-6.89,0,.79.79,0,0,0-.27,1.08.78.78,0,0,0,1.07.27A5.73,5.73,0,0,1,148.62,67.81Z" transform="translate(-0.45 -1.12)"/><path class="cls-8" d="M143.87,74.26a2,2,0,0,1,2-2,2,2,0,0,1,1.44.6,2,2,0,0,1,.6,1.44.79.79,0,1,0,1.57,0,3.62,3.62,0,1,0-7.23,0,.79.79,0,1,0,1.58,0Z" transform="translate(-0.45 -1.12)"/><path class="cls-8" d="M131.06,78.66a14.33,14.33,0,0,0,2.56-13s8.56-4.68,8.56-11.74c0,0,1,2.44,2.71,3s2.55-1.69,1.73-2.72c0,0,6.24,4.57,11.39,5.6s6.66-4.18,4.55-6c0,0,8.29,5.81,13.6,4.4s8.46-22.18-9.75-26.75-29.7.22-33.61,2.83-6.39,9.68-3.68,14.46A16.11,16.11,0,0,0,125,56.43c-.87,4.57,2.55,16,2.55,16S131.06,72.79,131.06,78.66Z" transform="translate(-0.45 -1.12)"/><path class="cls-7" d="M177.68,39.16h0C155.4,46.76,144.07,38,139,31.4A29.5,29.5,0,0,0,135,33c12.18,20,32.1,19.59,45.31,16.47A18.15,18.15,0,0,0,177.68,39.16Z" transform="translate(-0.45 -1.12)"/><path class="cls-6" d="M138.56,142.76a19.34,19.34,0,0,0,2.53,3.07c.95.86,9.46,3.91,9.46,3.91a2.8,2.8,0,0,1-2.5,1.95h-4.9c-1.61,0-2.83,5.24-8.67,7.58-4.44,1.79-2.68-10.51-1.58-16.51Z" transform="translate(-0.45 -1.12)"/><path class="cls-3" d="M156.7,113.28h-14a2,2,0,0,0-2,2V148a2,2,0,0,0,2,2h14a2,2,0,0,0,2-2V115.32A2,2,0,0,0,156.7,113.28Z" transform="translate(-0.45 -1.12)"/><rect class="cls-12" x="140.18" y="116.16" width="18.1" height="0.71"/><rect class="cls-12" x="140.18" y="144.19" width="18.1" height="0.71"/><path class="cls-6" d="M140.09,123.73a2.89,2.89,0,0,1,.81,2c.08,1.45-.9,2.92-1.28,3.88l-1.41,4.84s-.68,6.73-.79,7a6.08,6.08,0,0,0,1.24,1.69l-5.63.54c.17-1.92.33-3.22.33-3.22l-.62-3.42s1.86-5.21,2.6-6.85S139.72,123.43,140.09,123.73Z" transform="translate(-0.45 -1.12)"/><path class="cls-1" d="M149.68,125.8a3,3,0,1,0-3-3A3,3,0,0,0,149.68,125.8Z" transform="translate(-0.45 -1.12)"/><path class="cls-5" d="M128.43,172.24s3.89-7.14,4.95-8.65a13.66,13.66,0,0,0,2.5-7.87c0-3.68-.61-5.52,1-6.69a13.18,13.18,0,0,1,3.72-1.79l3.87.14c.64,0,3.56.84,4.25.81a1.71,1.71,0,0,0,1.48-1.06c.11-.44.11-.72-.92-1.11a37.76,37.76,0,0,0-4.7-1.48c-.95-.14-4.14-.34-4.87-.34a18.54,18.54,0,0,0-2.67.48l2.53-1.2a21.59,21.59,0,0,1,5.18-.34c1,.17,4.2,1.93,6.34.67,0,0,.47-.37-.1-1s-6.26-3.14-7-3.42a7.4,7.4,0,0,0-3.09-.08,10.71,10.71,0,0,0-3.7.58c-.69.42-1.89,1.06-1.89,1.06s2.09-4,2.37-4.24a50.94,50.94,0,0,1,4.81-2.17c.28-.09,3.2-.56,4-1.2a2.92,2.92,0,0,0,1-2c0-.36-.11-.61-1.64-.47s-3.31.3-4.53.44a34.53,34.53,0,0,0-5.48,2c-1.42.56-2.61,2.76-4.17,5.55s-3.73,8.76-4.73,11-.33,9-4.28,14.28a57.88,57.88,0,0,1-5,6.19Z" transform="translate(-0.45 -1.12)"/><path class="cls-7" d="M112.08,116.33S105,119,101.57,131.5s-7,56.28-7.84,66,13.37,18.06,21.12,8.68S133,167.71,133,167.71a18.58,18.58,0,0,0-9.1-6.61l-3.77,4.59S134.56,113.74,112.08,116.33Z" transform="translate(-0.45 -1.12)"/><path class="cls-2" d="M98.58,149c-.17,1.27-.33,2.57-.49,3.89,13.33-1.82,21.67,2.4,24.08,3.85.24-1.23.5-2.54.74-3.92-3.73-2-12.12-5.24-24.33-3.82Zm-1,8c11.34-1.53,19.52,1,23.87,3-.34,1.53-.65,2.81-.89,3.76-3.68-1.82-11.69-4.66-23.42-2.85C97.31,159.61,97.45,158.3,97.6,157Z" transform="translate(-0.45 -1.12)"/><path class="cls-1" d="M142.77,116.33a1,1,0,1,0-1-1A1,1,0,0,0,142.77,116.33Z" transform="translate(-0.45 -1.12)"/><path class="cls-4" d="M145.12,115.94a.62.62,0,1,0-.61-.62A.62.62,0,0,0,145.12,115.94Z" transform="translate(-0.45 -1.12)"/><path class="cls-4" d="M142.77,116.07a.76.76,0,0,0,.75-.75.75.75,0,1,0-.75.75Z" transform="translate(-0.45 -1.12)"/><path class="cls-1" d="M142.77,115.66a.34.34,0,1,0,0-.67.34.34,0,0,0,0,.67Z" transform="translate(-0.45 -1.12)"/><path class="cls-3" d="M143.11,115.27a.34.34,0,1,0-.34-.34A.34.34,0,0,0,143.11,115.27Z" transform="translate(-0.45 -1.12)"/><path class="cls-1" d="M145.12,115.63a.31.31,0,1,0,0-.61.31.31,0,0,0,0,.61Z" transform="translate(-0.45 -1.12)"/><path class="cls-13" d="M113.41,208.09a.47.47,0,0,1-.31-.83,12.4,12.4,0,0,0,1.38-1.42c7.24-8.77,16.93-35.28,17.94-38.06a18.46,18.46,0,0,0-8.41-6.13L120.44,166a.45.45,0,0,1-.58.12.47.47,0,0,1-.24-.55c0-.16,4.54-16.46,4.57-30.13a.48.48,0,0,1,.48-.48h0a.48.48,0,0,1,.47.48c0,10.89-2.85,23.41-4.06,28.29l2.4-2.92a.47.47,0,0,1,.51-.15,18.81,18.81,0,0,1,9.35,6.79.44.44,0,0,1,0,.43c-.42,1.19-10.47,29.24-18.18,38.57a12.09,12.09,0,0,1-1.49,1.54A.45.45,0,0,1,113.41,208.09Z" transform="translate(-0.45 -1.12)"/><path class="cls-13" d="M105.09,184.41a.5.5,0,0,1-.3-.11.48.48,0,0,1-.06-.67l16.7-20.34a.48.48,0,0,1,.73.61l-16.7,20.33A.47.47,0,0,1,105.09,184.41Z" transform="translate(-0.45 -1.12)"/><path class="cls-13" d="M105.19,180.39a.46.46,0,0,1-.43-.29.48.48,0,0,1,.24-.63c1.61-.7,4.61-1.79,4.74-1.84a.48.48,0,0,1,.32.9s-3.1,1.12-4.68,1.82A.58.58,0,0,1,105.19,180.39Z" transform="translate(-0.45 -1.12)"/><path class="cls-13" d="M122.79,154a.51.51,0,0,1-.17,0,.48.48,0,0,1-.28-.61c0-.09,3.32-9.11,3.61-10.09a.48.48,0,0,1,.6-.32.46.46,0,0,1,.31.59c-.3,1-3.49,9.77-3.63,10.15A.47.47,0,0,1,122.79,154Z" transform="translate(-0.45 -1.12)"/><path class="cls-13" d="M190.37,147.94a.48.48,0,0,1-.48-.46c-.39-13.09-3.18-23.32-8.3-30.4a.48.48,0,0,1,.11-.67.46.46,0,0,1,.66.11c5.24,7.24,8.09,17.65,8.48,30.93a.48.48,0,0,1-.46.49Z" transform="translate(-0.45 -1.12)"/><path class="cls-13" d="M197.32,102.86a.48.48,0,0,1,0-1c.06,0,6.44-.52,9.78-.57a.49.49,0,0,1,.49.47.49.49,0,0,1-.47.49c-3.32,0-9.66.55-9.73.56Z" transform="translate(-0.45 -1.12)"/><path class="cls-1" d="M247.5,145.88H162.45a2.57,2.57,0,0,0-2.48,2.23l-6.05,53.37a2,2,0,0,0,2,2.24H241a2.58,2.58,0,0,0,2.48-2.24l6-53.37A2,2,0,0,0,247.5,145.88Z" transform="translate(-0.45 -1.12)"/><path class="cls-3" d="M254.75,145.88h-89a2.58,2.58,0,0,0-2.48,2.23l-6.05,53.37a2,2,0,0,0,2,2.24h88.95a2.57,2.57,0,0,0,2.48-2.24l6.05-53.37A2,2,0,0,0,254.75,145.88Z" transform="translate(-0.45 -1.12)"/><path class="cls-4" d="M213.69,178.72H196.62a1.53,1.53,0,0,0-1.51,2l8.75,35.19a2.77,2.77,0,0,0,2.52,2h8.86a1.93,1.93,0,0,0,1.93-2l-1.39-35.19A2.12,2.12,0,0,0,213.69,178.72Z" transform="translate(-0.45 -1.12)"/><path class="cls-14" d="M216.27,178.72H199.2a1.53,1.53,0,0,0-1.51,2l8.75,35.19a2.77,2.77,0,0,0,2.51,2h8.87a1.93,1.93,0,0,0,1.93-2l-1.39-35.19A2.12,2.12,0,0,0,216.27,178.72Z" transform="translate(-0.45 -1.12)"/><path class="cls-3" d="M231.4,221.24H186.15a3.3,3.3,0,0,1-3.28-3.29h0a3.3,3.3,0,0,1,3.28-3.29H231.4a3.3,3.3,0,0,1,3.29,3.29h0A3.3,3.3,0,0,1,231.4,221.24Z" transform="translate(-0.45 -1.12)"/><path class="cls-4" d="M191,221.24H173.77a3.3,3.3,0,0,1-3.29-3.29h0a3.3,3.3,0,0,1,3.29-3.29H191A3.3,3.3,0,0,1,194.3,218h0A3.3,3.3,0,0,1,191,221.24Z" transform="translate(-0.45 -1.12)"/><path class="cls-8" d="M4.51,218H345.23A4.08,4.08,0,0,1,349.3,222h0a4.08,4.08,0,0,1-4.07,4.07H331.52a2.26,2.26,0,0,0-2.25,2.27h0a2.26,2.26,0,0,0,2.25,2.26h5a2.83,2.83,0,0,1,2.82,2.83h0a2.83,2.83,0,0,1-2.82,2.83H13.65a2.83,2.83,0,0,1-2.82-2.83h0a2.83,2.83,0,0,1,2.82-2.83h4a2.27,2.27,0,0,0,2.26-2.26h0a2.27,2.27,0,0,0-2.26-2.27H4.51A4.07,4.07,0,0,1,.45,222h0A4.07,4.07,0,0,1,4.51,218Zm2.11,18.34a2.72,2.72,0,0,0,2.71-2.72v-.22a2.72,2.72,0,0,0-2.71-2.72h0a2.71,2.71,0,0,0-2.7,2.72v.22a2.71,2.71,0,0,0,2.7,2.72Z" transform="translate(-0.45 -1.12)"/><path class="cls-2" d="M298.27,149.53a24.5,24.5,0,1,1-17.3,7.18A24.35,24.35,0,0,1,298.27,149.53Z" transform="translate(-0.45 -1.12)"/><ellipse class="cls-15" cx="297.82" cy="172.94" rx="18.71" ry="18.76"/><rect class="cls-16" x="297.42" y="155.39" width="0.81" height="1.81" rx="0.41"/><rect class="cls-16" x="297.42" y="188.69" width="0.81" height="1.81" rx="0.41"/><path class="cls-2" d="M307,158.86h0a.41.41,0,0,1,.15.56l-.49.86a.42.42,0,0,1-.56.15h0a.42.42,0,0,1-.15-.56l.5-.86A.41.41,0,0,1,307,158.86Z" transform="translate(-0.45 -1.12)"/><path class="cls-2" d="M290.42,187.71h0a.41.41,0,0,1,.15.55l-.5.86a.39.39,0,0,1-.55.15h0a.4.4,0,0,1-.15-.55l.49-.86A.4.4,0,0,1,290.42,187.71Z" transform="translate(-0.45 -1.12)"/><path class="cls-2" d="M313.43,165.29h0a.42.42,0,0,1-.15.56l-.86.49a.39.39,0,0,1-.55-.15h0a.4.4,0,0,1,.15-.55l.85-.5A.41.41,0,0,1,313.43,165.29Z" transform="translate(-0.45 -1.12)"/><path class="cls-2" d="M284.67,181.94h0a.41.41,0,0,1-.15.56l-.86.5a.41.41,0,0,1-.55-.15h0a.41.41,0,0,1,.15-.56l.86-.5A.41.41,0,0,1,284.67,181.94Z" transform="translate(-0.45 -1.12)"/><rect class="cls-16" x="313.53" y="172.54" width="1.8" height="0.82" rx="0.41"/><rect class="cls-16" x="280.32" y="172.54" width="1.8" height="0.82" rx="0.41"/><path class="cls-2" d="M313.43,182.85h0a.42.42,0,0,1-.56.15l-.85-.5a.41.41,0,0,1-.15-.56h0a.41.41,0,0,1,.55-.15l.86.5A.42.42,0,0,1,313.43,182.85Z" transform="translate(-0.45 -1.12)"/><path class="cls-2" d="M284.67,166.19h0a.39.39,0,0,1-.55.15l-.86-.49a.41.41,0,0,1-.15-.56h0a.4.4,0,0,1,.55-.15l.86.5A.4.4,0,0,1,284.67,166.19Z" transform="translate(-0.45 -1.12)"/><path class="cls-2" d="M307,189.27h0a.39.39,0,0,1-.55-.15l-.5-.86a.41.41,0,0,1,.15-.55h0a.4.4,0,0,1,.56.15l.49.86A.4.4,0,0,1,307,189.27Z" transform="translate(-0.45 -1.12)"/><path class="cls-2" d="M290.42,160.43h0a.42.42,0,0,1-.56-.15l-.49-.86a.41.41,0,0,1,.15-.56h0a.41.41,0,0,1,.55.15l.5.86A.42.42,0,0,1,290.42,160.43Z" transform="translate(-0.45 -1.12)"/><path class="cls-2" d="M298.85,174.07a.58.58,0,1,1-1.16,0V160.53a.58.58,0,1,1,1.16,0Z" transform="translate(-0.45 -1.12)"/><path class="cls-10" d="M298.69,173.67a.58.58,0,0,1,0,.82.57.57,0,0,1-.81,0l-6.67-7.17a.58.58,0,1,1,.84-.79Z" transform="translate(-0.45 -1.12)"/><path class="cls-3" d="M75.23,24.22h36a5.49,5.49,0,0,1,5.47,5.49V68.38a.61.61,0,0,1-1,.43l-9.31-9.34H75.23A5.49,5.49,0,0,1,69.77,54V29.71A5.49,5.49,0,0,1,75.23,24.22Z" transform="translate(-0.45 -1.12)"/><path class="cls-4" d="M72.82,27.12h36a5,5,0,0,1,5,5V70.8a.19.19,0,0,1,0,.08.18.18,0,0,1-.07.05h-.08a.09.09,0,0,1-.06,0l-9.32-9.35a.46.46,0,0,0-.33-.13H72.82a5,5,0,0,1-5-5V32.13a5,5,0,0,1,5-5Zm36-.95h-36a6,6,0,0,0-5.94,6V56.41a6,6,0,0,0,5.94,6h30.94l9.18,9.2a1,1,0,0,0,.53.29h0a1.14,1.14,0,0,0,.63-.06,1.21,1.21,0,0,0,.49-.4,1.18,1.18,0,0,0,.18-.61V32.13a6,6,0,0,0-5.94-6Z" transform="translate(-0.45 -1.12)"/><path class="cls-5" d="M102.66,34.55h0a6.23,6.23,0,0,0-8.81,0l-.6.6-.6-.6a6.23,6.23,0,0,0-8.81,0h0a6.29,6.29,0,0,0,0,8.84l.6.6,8.81,8.83L102.06,44l.6-.6A6.29,6.29,0,0,0,102.66,34.55Z" transform="translate(-0.45 -1.12)"/><path class="cls-4" d="M332,89.29ZM328.9,77.51a6,6,0,1,0,1.73,4.21,6,6,0,0,0-1.73-4.21Zm-1.29-5.9a10.3,10.3,0,0,1,2.33,1,10.61,10.61,0,0,1,2,1.54.35.35,0,0,0,.43,0l2.76-1.59h0a.67.67,0,0,1,.5-.06.62.62,0,0,1,.41.32l0,0,1.93,3.37a.64.64,0,0,1,.07.52.62.62,0,0,1-.32.41h0l-2.74,1.59a.36.36,0,0,0-.17.4h0a10.37,10.37,0,0,1,.23,1.26,10.73,10.73,0,0,1,.08,1.28,10.86,10.86,0,0,1-.08,1.28,10.37,10.37,0,0,1-.23,1.26.36.36,0,0,0,.19.41l2.73,1.59h0a.62.62,0,0,1,.32.41.64.64,0,0,1-.07.52l-1.95,3.39h0a.69.69,0,0,1-.41.32.64.64,0,0,1-.52-.07h0l-2.74-1.58a.35.35,0,0,0-.43.05,10.53,10.53,0,0,1-4.38,2.54.37.37,0,0,0-.27.35v3.19a.68.68,0,0,1-.68.68h-3.9a.64.64,0,0,1-.48-.2.68.68,0,0,1-.2-.48V92.18a.36.36,0,0,0-.28-.35,10.7,10.7,0,0,1-2.33-1,10.93,10.93,0,0,1-2-1.54.36.36,0,0,0-.45,0l-2.74,1.58a.64.64,0,0,1-.52.07.69.69,0,0,1-.41-.32v0l-1.94-3.37h0a.68.68,0,0,1-.07-.52.69.69,0,0,1,.32-.41l2.75-1.6a.36.36,0,0,0,.17-.4h0a12.74,12.74,0,0,1-.23-1.26,10.86,10.86,0,0,1-.07-1.28,10.75,10.75,0,0,1,.07-1.28,12.74,12.74,0,0,1,.23-1.26.36.36,0,0,0-.19-.41l-2.73-1.59a.69.69,0,0,1-.32-.41.68.68,0,0,1,.07-.52v0l1.94-3.37h0a.62.62,0,0,1,.41-.32.64.64,0,0,1,.52.07h0L317,74.2a.35.35,0,0,0,.44-.06,10.49,10.49,0,0,1,2-1.53,10.78,10.78,0,0,1,2.34-1,.37.37,0,0,0,.27-.35V68.07a.68.68,0,0,1,.2-.48.65.65,0,0,1,.48-.21h3.9a.65.65,0,0,1,.48.21.64.64,0,0,1,.2.48v3.19A.36.36,0,0,0,327.61,71.61Z" transform="translate(-0.45 -1.12)"/><path class="cls-9" d="M45.85,157.85h30.9a2.57,2.57,0,0,0,2.56-2.57V131.75a2.57,2.57,0,0,0-2.56-2.57H75.5V128a.71.71,0,0,0-.71-.71H65.46a.71.71,0,0,0-.71.71v1.19H45.85a2.57,2.57,0,0,0-2.56,2.57v23.53A2.57,2.57,0,0,0,45.85,157.85Z" transform="translate(-0.45 -1.12)"/><path class="cls-3" d="M67.42,157.85H47.89a2.1,2.1,0,0,1-2.09-2.09v-20a2.1,2.1,0,0,1,2.09-2.09H67.42a2.09,2.09,0,0,1,2.08,2.09v20A2.09,2.09,0,0,1,67.42,157.85Z" transform="translate(-0.45 -1.12)"/><path class="cls-4" d="M48.93,157.85H77.46a4.5,4.5,0,0,0,3.7-2.57l9-20.25c.62-1.41,0-2.57-1.42-2.57h-1.5l.56-1.27c.23-.51,0-.94-.52-.94H76.87a1.67,1.67,0,0,0-1.35.94L75,132.46H60.21a4.5,4.5,0,0,0-3.7,2.57l-9,20.25C46.89,156.69,47.52,157.85,48.93,157.85Z" transform="translate(-0.45 -1.12)"/><path class="cls-3" d="M171.26,8.91h57.4a2.92,2.92,0,0,1,2.91,2.92V32.42a.32.32,0,0,1-.2.3.32.32,0,0,1-.36-.07l-5-5H171.26a2.93,2.93,0,0,1-2.91-2.92V11.83A2.92,2.92,0,0,1,171.26,8.91Z" transform="translate(-0.45 -1.12)"/><path class="cls-17" d="M179.79,25.2a6.62,6.62,0,1,0-6.59-6.62A6.62,6.62,0,0,0,179.79,25.2Z" transform="translate(-0.45 -1.12)"/><path class="cls-3" d="M179.79,17.43a1.81,1.81,0,1,0-1.8-1.81A1.82,1.82,0,0,0,179.79,17.43Z" transform="translate(-0.45 -1.12)"/><path class="cls-3" d="M179.79,18h0a2.56,2.56,0,0,1,2.56,2.56v2.5a.29.29,0,0,1-.29.29h-4.54a.29.29,0,0,1-.28-.29v-2.5A2.56,2.56,0,0,1,179.79,18Z" transform="translate(-0.45 -1.12)"/><rect class="cls-18" x="195.14" y="16.85" width="14.32" height="1.21" rx="0.6"/><rect class="cls-18" x="189.56" y="16.85" width="2.96" height="1.21" rx="0.6"/><path class="cls-4" d="M190.61,14.27H209.3a.6.6,0,0,1,.6.6h0a.61.61,0,0,1-.6.61H190.61a.61.61,0,0,1-.6-.61h0A.6.6,0,0,1,190.61,14.27Z" transform="translate(-0.45 -1.12)"/><path class="cls-4" d="M190.61,21.68H209.3a.61.61,0,0,1,.6.61h0a.6.6,0,0,1-.6.6H190.61a.6.6,0,0,1-.6-.6h0A.61.61,0,0,1,190.61,21.68Z" transform="translate(-0.45 -1.12)"/><path class="cls-5" d="M220.39,25.2a6.62,6.62,0,1,0-6.6-6.62A6.62,6.62,0,0,0,220.39,25.2Z" transform="translate(-0.45 -1.12)"/><path class="cls-3" d="M222.87,21.16Zm-1.05-4a2,2,0,1,0,0,2.86,2,2,0,0,0,0-2.86Zm-.44-2a3.74,3.74,0,0,1,.8.33,4,4,0,0,1,.69.53.12.12,0,0,0,.15,0l.94-.55h0a.26.26,0,0,1,.17,0,.33.33,0,0,1,.15.11h0l.66,1.14a.23.23,0,0,1,0,.18.19.19,0,0,1-.11.14h0l-.93.54a.13.13,0,0,0-.06.14h0c0,.13.06.28.08.42s0,.29,0,.44,0,.29,0,.44-.05.29-.08.43a.12.12,0,0,0,.06.14l.93.54h0a.19.19,0,0,1,.11.14.2.2,0,0,1,0,.17l-.66,1.16h0a.33.33,0,0,1-.15.11.25.25,0,0,1-.17,0h0l-.93-.54a.12.12,0,0,0-.15,0,3.47,3.47,0,0,1-.69.52,3.32,3.32,0,0,1-.8.34.13.13,0,0,0-.09.12v1.09a.28.28,0,0,1-.07.17.23.23,0,0,1-.16.06h-1.33a.24.24,0,0,1-.17-.06.28.28,0,0,1-.07-.17V22.14a.14.14,0,0,0-.09-.12,3.09,3.09,0,0,1-.79-.34,3.26,3.26,0,0,1-.7-.52.12.12,0,0,0-.15,0l-.94.55a.25.25,0,0,1-.17,0,.26.26,0,0,1-.14-.11h0l-.66-1.15h0a.2.2,0,0,1,0-.17.19.19,0,0,1,.11-.14l.93-.55a.11.11,0,0,0,.06-.13h0c0-.14-.06-.29-.08-.43s0-.29,0-.44,0-.29,0-.44,0-.29.08-.42a.13.13,0,0,0-.06-.15l-.93-.54a.19.19,0,0,1-.11-.14.2.2,0,0,1,0-.17h0l.66-1.15h0a.26.26,0,0,1,.14-.11.25.25,0,0,1,.17,0h0l.94.55a.12.12,0,0,0,.15,0,3.68,3.68,0,0,1,.7-.53,3.46,3.46,0,0,1,.79-.33.13.13,0,0,0,.09-.12V13.93a.28.28,0,0,1,.07-.17.24.24,0,0,1,.17-.06h1.33a.23.23,0,0,1,.16.06.28.28,0,0,1,.07.17V15A.14.14,0,0,0,221.38,15.14Z" transform="translate(-0.45 -1.12)"/><rect class="cls-19" x="57.96" y="211.86" width="40.15" height="3.69"/><path class="cls-2" d="M63.35,213.3a.79.79,0,0,0,.8-.79.8.8,0,0,0-.8-.8H35a3.12,3.12,0,0,0-2.2.91h0a3.11,3.11,0,0,0,0,4.4A3.07,3.07,0,0,0,35,218H63.35a.8.8,0,0,0,0-1.6h-1.3a5.21,5.21,0,0,1-.62-.54,1.69,1.69,0,0,1-.59-1.26,2,2,0,0,1,.75-1.25Z" transform="translate(-0.45 -1.12)"/><path class="cls-9" d="M98.56,213.3a.79.79,0,0,0,.8-.79.8.8,0,0,0-.8-.8H63a3.11,3.11,0,0,0-2.2.91h0A3.12,3.12,0,0,0,63,218H98.56a.8.8,0,0,0,0-1.6H63a1.52,1.52,0,0,1-1.52-1.52A1.52,1.52,0,0,1,63,213.3Z" transform="translate(-0.45 -1.12)"/><rect class="cls-19" x="35.79" y="204.8" width="33.66" height="4.48"/><path class="cls-6" d="M63.9,206.31a1,1,0,1,1,0-1.93H90a3.72,3.72,0,0,1,2.66,1.11h0A3.79,3.79,0,0,1,90,212H63.9a1,1,0,1,1,0-1.94h1.57a6,6,0,0,0,.76-.66,2,2,0,0,0,.71-1.53,2.36,2.36,0,0,0-.91-1.51Z" transform="translate(-0.45 -1.12)"/><path class="cls-20" d="M36.23,206.31a1,1,0,0,1,0-1.93H64.35A3.75,3.75,0,0,1,67,205.49h0a3.77,3.77,0,0,1,0,5.34A3.74,3.74,0,0,1,64.35,212H36.23a1,1,0,0,1,0-1.94H64.35a1.85,1.85,0,0,0,0-3.7Z" transform="translate(-0.45 -1.12)"/><rect class="cls-19" x="60.82" y="197.09" width="21.85" height="4.58"/><path class="cls-8" d="M67.41,198.61a1,1,0,0,0,0-2H51.3a3.83,3.83,0,0,0-2.72,1.13h0a3.86,3.86,0,0,0,0,5.46,3.82,3.82,0,0,0,2.73,1.14H67.41a1,1,0,0,0,0-2H65.8a6.26,6.26,0,0,1-.78-.67,2.12,2.12,0,0,1-.73-1.57,2.43,2.43,0,0,1,.93-1.54Z" transform="translate(-0.45 -1.12)"/><path class="cls-21" d="M83.11,198.61a1,1,0,0,0,0-2H67a3.83,3.83,0,0,0-2.72,1.13h0a3.87,3.87,0,0,0,2.73,6.6H83.11a1,1,0,0,0,0-2H67a1.87,1.87,0,0,1-1.33-.55,1.88,1.88,0,0,1,0-2.68,1.87,1.87,0,0,1,1.33-.55Z" transform="translate(-0.45 -1.12)"/><path class="cls-5" d="M253.17,214.68h27.21a1.64,1.64,0,0,1,1.63,1.63h0a1.65,1.65,0,0,1-1.63,1.64H253.17a1.64,1.64,0,0,1-1.63-1.64h0A1.63,1.63,0,0,1,253.17,214.68Z" transform="translate(-0.45 -1.12)"/><path class="cls-2" d="M254.08,214.68h25.38a.92.92,0,0,0,.92-.92h0a.93.93,0,0,0-.92-.93H254.08a.93.93,0,0,0-.92.93h0A.93.93,0,0,0,254.08,214.68Z" transform="translate(-0.45 -1.12)"/><path class="cls-6" d="M254.14,209.74h25.27a1.55,1.55,0,0,1,1.54,1.55h0a1.54,1.54,0,0,1-1.54,1.54H254.14a1.54,1.54,0,0,1-1.54-1.54h0A1.55,1.55,0,0,1,254.14,209.74Z" transform="translate(-0.45 -1.12)"/><path class="cls-17" d="M255.09,210.65l2-2a.74.74,0,0,1,1.05,0l2,2a.74.74,0,0,1,0,1l-2,2a.74.74,0,0,1-1.05,0l-2-2A.74.74,0,0,1,255.09,210.65Z" transform="translate(-0.45 -1.12)"/><path class="cls-17" d="M259.69,210.65l2-2a.74.74,0,0,1,1.05,0l2,2a.76.76,0,0,1,0,1l-2,2a.74.74,0,0,1-1.05,0l-2-2A.74.74,0,0,1,259.69,210.65Z" transform="translate(-0.45 -1.12)"/><path class="cls-17" d="M264.29,210.65l2-2a.74.74,0,0,1,1.05,0l2,2a.76.76,0,0,1,0,1l-2,2a.74.74,0,0,1-1.05,0l-2-2A.74.74,0,0,1,264.29,210.65Z" transform="translate(-0.45 -1.12)"/><path class="cls-17" d="M268.89,210.65l2-2a.74.74,0,0,1,1,0l2,2a.74.74,0,0,1,0,1l-2,2a.74.74,0,0,1-1,0l-2-2A.74.74,0,0,1,268.89,210.65Z" transform="translate(-0.45 -1.12)"/><path class="cls-17" d="M273.49,210.65l2-2a.74.74,0,0,1,1.05,0l2,2a.74.74,0,0,1,0,1l-2,2a.74.74,0,0,1-1.05,0l-2-2A.74.74,0,0,1,273.49,210.65Z" transform="translate(-0.45 -1.12)"/><path class="cls-9" d="M252,209.74h29.49a.78.78,0,0,1,.78.78h0a.79.79,0,0,1-.78.79H252a.79.79,0,0,1-.78-.79h0A.78.78,0,0,1,252,209.74Z" transform="translate(-0.45 -1.12)"/><path class="cls-5" d="M282.68,207.5h0v.06h0a2.18,2.18,0,0,1-2.17,2.18H253c-2.31,0-2.62-1.85-2-4.44a9.46,9.46,0,0,1,9.15-7.19h13.06A9.46,9.46,0,0,1,282.68,207.5Z" transform="translate(-0.45 -1.12)"/><path class="cls-6" d="M258.29,199.53h0a.31.31,0,0,1,0,.44l-.82.82a.29.29,0,0,1-.43,0h0a.3.3,0,0,1,0-.43l.81-.82A.31.31,0,0,1,258.29,199.53Z" transform="translate(-0.45 -1.12)"/><path class="cls-6" d="M261.86,199.53h0a.31.31,0,0,1,0,.44l-.81.82a.31.31,0,0,1-.44,0h0a.3.3,0,0,1,0-.43l.82-.82A.3.3,0,0,1,261.86,199.53Z" transform="translate(-0.45 -1.12)"/><path class="cls-6" d="M265.44,199.53h0a.33.33,0,0,1,0,.44l-.82.82a.31.31,0,0,1-.44,0h0a.3.3,0,0,1,0-.43l.82-.82A.31.31,0,0,1,265.44,199.53Z" transform="translate(-0.45 -1.12)"/><path class="cls-6" d="M269,199.53h0a.31.31,0,0,1,0,.44l-.82.82a.29.29,0,0,1-.43,0h0a.3.3,0,0,1,0-.43l.81-.82A.31.31,0,0,1,269,199.53Z" transform="translate(-0.45 -1.12)"/><path class="cls-6" d="M272.58,199.53h0a.31.31,0,0,1,0,.44l-.82.82a.29.29,0,0,1-.43,0h0a.3.3,0,0,1,0-.43l.82-.82A.3.3,0,0,1,272.58,199.53Z" transform="translate(-0.45 -1.12)"/><path class="cls-6" d="M276.15,199.53h0a.31.31,0,0,1,0,.44l-.81.82a.31.31,0,0,1-.44,0h0a.3.3,0,0,1,0-.43l.82-.82A.3.3,0,0,1,276.15,199.53Z" transform="translate(-0.45 -1.12)"/><path class="cls-6" d="M277,202.38h0a.31.31,0,0,0,0,.44l.81.82a.31.31,0,0,0,.44,0h0a.31.31,0,0,0,0-.44l-.82-.82A.3.3,0,0,0,277,202.38Z" transform="translate(-0.45 -1.12)"/><path class="cls-6" d="M273.41,202.38h0a.31.31,0,0,0,0,.44l.82.82a.31.31,0,0,0,.44,0h0a.33.33,0,0,0,0-.44l-.82-.82A.31.31,0,0,0,273.41,202.38Z" transform="translate(-0.45 -1.12)"/><path class="cls-6" d="M269.84,202.38h0a.31.31,0,0,0,0,.44l.82.82a.3.3,0,0,0,.43,0h0a.31.31,0,0,0,0-.44l-.81-.82A.31.31,0,0,0,269.84,202.38Z" transform="translate(-0.45 -1.12)"/><path class="cls-6" d="M266.27,202.38h0a.31.31,0,0,0,0,.44l.81.82a.31.31,0,0,0,.44,0h0a.31.31,0,0,0,0-.44l-.82-.82A.3.3,0,0,0,266.27,202.38Z" transform="translate(-0.45 -1.12)"/><path class="cls-6" d="M262.7,202.38h0a.33.33,0,0,0,0,.44l.82.82a.31.31,0,0,0,.44,0h0a.31.31,0,0,0,0-.44l-.82-.82A.3.3,0,0,0,262.7,202.38Z" transform="translate(-0.45 -1.12)"/><path class="cls-6" d="M259.12,202.38h0a.31.31,0,0,0,0,.44l.82.82a.3.3,0,0,0,.43,0h0a.31.31,0,0,0,0-.44l-.81-.82A.31.31,0,0,0,259.12,202.38Z" transform="translate(-0.45 -1.12)"/><path class="cls-4" d="M241.62,139.1h32.95a4.1,4.1,0,0,0,4.09-4.1V89.9a4.11,4.11,0,0,0-4.09-4.1H241.62a4.11,4.11,0,0,0-4.08,4.1V135A4.1,4.1,0,0,0,241.62,139.1Z" transform="translate(-0.45 -1.12)"/><rect class="cls-22" x="240.77" y="88.71" width="33.77" height="1.5" rx="0.75"/><rect class="cls-22" x="240.77" y="93.42" width="33.77" height="1.5" rx="0.75"/><rect class="cls-22" x="266.94" y="98.61" width="7.59" height="1.5" rx="0.75"/><rect class="cls-22" x="266.94" y="103.94" width="7.59" height="1.5" rx="0.75"/><rect class="cls-22" x="266.94" y="109.26" width="7.59" height="1.5" rx="0.75"/><rect class="cls-22" x="266.94" y="114.59" width="7.59" height="1.5" rx="0.75"/><rect class="cls-22" x="266.94" y="119.91" width="7.59" height="1.5" rx="0.75"/><rect class="cls-22" x="266.94" y="125.24" width="7.59" height="1.5" rx="0.75"/><rect class="cls-22" x="257.58" y="130.57" width="16.95" height="1.5" rx="0.75"/><rect class="cls-22" x="259.12" y="125.24" width="6.06" height="1.5" rx="0.75"/><rect class="cls-22" x="261.16" y="119.91" width="3.8" height="1.5" rx="0.75"/><rect class="cls-22" x="262.76" y="114.59" width="3.18" height="1.5" rx="0.75"/><path class="cls-3" d="M241.21,104.61h2.9v27.13a1.45,1.45,0,0,1-1.45,1.45h0a1.45,1.45,0,0,1-1.45-1.45V104.61Z" transform="translate(-0.45 -1.12)"/><path class="cls-3" d="M244.11,117.72v14a1.45,1.45,0,0,1-1.45,1.45h0a1.45,1.45,0,0,1-1.45-1.45v-14a.66.66,0,0,0,.66.65h1.59C243.81,118.37,244.11,117.36,244.11,117.72Z" transform="translate(-0.45 -1.12)"/><path class="cls-1" d="M242.35,99.09a42.57,42.57,0,0,0-1.14,5.52c.48,1.15,2.35.84,2.9,0A42.57,42.57,0,0,0,243,99.09.34.34,0,0,0,242.35,99.09Z" transform="translate(-0.45 -1.12)"/><path class="cls-2" d="M242.35,99.09s-.14.51-.29,1.14a1.5,1.5,0,0,0,.6.13h0a1.47,1.47,0,0,0,.6-.13c-.15-.63-.27-1.09-.29-1.14A.34.34,0,0,0,242.35,99.09Z" transform="translate(-0.45 -1.12)"/><path class="cls-1" d="M243.46,130.23h-1.59a.66.66,0,0,1-.66-.65V131a.67.67,0,0,0,.66.66h1.59a.66.66,0,0,0,.65-.66v-1.37A.66.66,0,0,1,243.46,130.23Z" transform="translate(-0.45 -1.12)"/><path class="cls-3" d="M260.25,112.08Zm-1.9-7.25a3.63,3.63,0,0,0-5.17,0,3.66,3.66,0,1,0,5.17,0Zm-.79-3.64a6.31,6.31,0,0,1,1.43.62,6.13,6.13,0,0,1,1.26,1,.23.23,0,0,0,.27,0l1.7-1h0a.47.47,0,0,1,.31,0,.44.44,0,0,1,.25.2h0l1.19,2.08a.4.4,0,0,1,0,.32.37.37,0,0,1-.19.25h0l-1.69,1a.2.2,0,0,0-.1.24h0a6.17,6.17,0,0,1,.14.77,6.27,6.27,0,0,1,0,1.58,6.53,6.53,0,0,1-.14.77.22.22,0,0,0,.12.26l1.68,1h0a.41.41,0,0,1,.19.26.4.4,0,0,1,0,.32l-1.2,2.09h0a.39.39,0,0,1-.25.19.4.4,0,0,1-.32,0h0l-1.68-1a.23.23,0,0,0-.27,0,6.13,6.13,0,0,1-1.26,1,6.39,6.39,0,0,1-1.44.62.21.21,0,0,0-.16.21v2a.47.47,0,0,1-.12.3.45.45,0,0,1-.3.12h-2.4a.45.45,0,0,1-.3-.12.42.42,0,0,1-.12-.3v-2a.24.24,0,0,0-.18-.22,6.22,6.22,0,0,1-1.43-.61,6.13,6.13,0,0,1-1.26-1,.21.21,0,0,0-.27,0l-1.69,1a.44.44,0,0,1-.58-.15h0l-1.2-2.08h0a.4.4,0,0,1,0-.32.46.46,0,0,1,.2-.26l1.69-1a.23.23,0,0,0,.11-.25h0a6.53,6.53,0,0,1-.14-.77,6.27,6.27,0,0,1,0-1.58,6.17,6.17,0,0,1,.14-.77.24.24,0,0,0-.12-.26l-1.68-1a.41.41,0,0,1-.2-.25.4.4,0,0,1,0-.32v0l1.19-2.07h0a.46.46,0,0,1,.26-.2.51.51,0,0,1,.32,0h0l1.7,1a.23.23,0,0,0,.27,0,6.71,6.71,0,0,1,1.25-.94,6.59,6.59,0,0,1,1.44-.62.23.23,0,0,0,.17-.22V99a.41.41,0,0,1,.12-.3.45.45,0,0,1,.3-.12H257a.41.41,0,0,1,.42.42v2A.22.22,0,0,0,257.56,101.19Z" transform="translate(-0.45 -1.12)"/><path class="cls-3" d="M254.17,127ZM253,122.5a2.28,2.28,0,1,0,.66,1.6,2.25,2.25,0,0,0-.66-1.6Zm-.49-2.25a4.11,4.11,0,0,1,.89.38,3.66,3.66,0,0,1,.77.59.15.15,0,0,0,.17,0l1-.61h0a.25.25,0,0,1,.19,0,.28.28,0,0,1,.16.13h0l.74,1.29a.27.27,0,0,1,0,.2.2.2,0,0,1-.12.15h0l-1,.6a.14.14,0,0,0-.07.15h0a3.94,3.94,0,0,1,.12,1,3.91,3.91,0,0,1,0,.49,4,4,0,0,1-.09.48.14.14,0,0,0,.07.16l1,.6h0a.21.21,0,0,1,.12.16.28.28,0,0,1,0,.2l-.74,1.29h0a.31.31,0,0,1-.16.12.24.24,0,0,1-.2,0h0l-1-.6a.14.14,0,0,0-.17,0,4,4,0,0,1-.77.58,3.67,3.67,0,0,1-.89.38.15.15,0,0,0-.11.14v1.21a.25.25,0,0,1-.07.19.29.29,0,0,1-.19.07h-1.48a.32.32,0,0,1-.19-.07.29.29,0,0,1-.07-.19v-1.21a.15.15,0,0,0-.11-.14,3.84,3.84,0,0,1-.88-.38,3.77,3.77,0,0,1-.78-.58.14.14,0,0,0-.17,0l-1.05.6a.22.22,0,0,1-.19,0,.25.25,0,0,1-.16-.12h0l-.74-1.28h0a.28.28,0,0,1,0-.2.28.28,0,0,1,.12-.16l1.05-.61a.13.13,0,0,0,.06-.15h0c0-.16-.06-.32-.08-.48a3.91,3.91,0,0,1,0-.49,4,4,0,0,1,0-.49c0-.16.05-.32.08-.48a.12.12,0,0,0-.07-.15l-1-.61a.26.26,0,0,1-.12-.15.27.27,0,0,1,0-.2h0l.74-1.29h0a.23.23,0,0,1,.16-.13.26.26,0,0,1,.19,0h0l1.05.61a.15.15,0,0,0,.17,0,3.48,3.48,0,0,1,.78-.59,3.73,3.73,0,0,1,.89-.38.14.14,0,0,0,.1-.13V118.9a.27.27,0,0,1,.07-.18.27.27,0,0,1,.19-.08h1.48a.26.26,0,0,1,.19.08.23.23,0,0,1,.07.18v1.22A.14.14,0,0,0,252.51,120.25Z" transform="translate(-0.45 -1.12)"/><path class="cls-3" d="M88.11,79h12.47a1.48,1.48,0,0,1,1.48,1.47V92.94a1.49,1.49,0,0,1-1.48,1.48H88.11a1.49,1.49,0,0,1-1.48-1.48V80.42A1.48,1.48,0,0,1,88.11,79Z" transform="translate(-0.45 -1.12)"/><path class="cls-3" d="M88.11,99.65h12.47a1.48,1.48,0,0,1,1.48,1.48v12.51a1.48,1.48,0,0,1-1.48,1.48H88.11a1.48,1.48,0,0,1-1.48-1.48V101.13A1.48,1.48,0,0,1,88.11,99.65Z" transform="translate(-0.45 -1.12)"/><path class="cls-4" d="M86.15,76.7H98.62a1.92,1.92,0,0,1,1.38.58l0,0a2,2,0,0,1,.54,1.35V91.17a2,2,0,0,1-.57,1.38,1.92,1.92,0,0,1-1.38.58H86.15a1.92,1.92,0,0,1-1.38-.58l0,0a1.93,1.93,0,0,1-.54-1.35V78.66a2,2,0,0,1,.57-1.38,1.92,1.92,0,0,1,1.38-.58Zm12.47,1H86.15a1,1,0,0,0-1,1V91.17a1,1,0,0,0,.27.69l0,0a1,1,0,0,0,.71.3H98.62a1,1,0,0,0,1-1V78.66a1,1,0,0,0-.27-.69l0,0A1,1,0,0,0,98.62,77.66Z" transform="translate(-0.45 -1.12)"/><path class="cls-4" d="M86.15,97.41H98.62A2,2,0,0,1,100,98l0,0a2,2,0,0,1,.54,1.35v12.52a2,2,0,0,1-.57,1.38,2,2,0,0,1-1.38.57H86.15a2,2,0,0,1-1.38-.57l0,0a1.93,1.93,0,0,1-.54-1.35V99.36A2,2,0,0,1,84.77,98a2,2,0,0,1,1.38-.57Zm12.47,1H86.15a1,1,0,0,0-.71.3,1,1,0,0,0-.29.7v12.52a1,1,0,0,0,.27.68l0,0a1,1,0,0,0,.71.3H98.62a1,1,0,0,0,.71-.3,1,1,0,0,0,.29-.7V99.36a1,1,0,0,0-.27-.68l0,0A1,1,0,0,0,98.62,98.36Z" transform="translate(-0.45 -1.12)"/><path class="cls-5" d="M87.89,102.36a.85.85,0,0,1,0-1.18.83.83,0,0,1,1.17,0l3.32,3.28,3.27-3.33a.82.82,0,0,1,1.17,0,.83.83,0,0,1,0,1.17l-3.27,3.33,3.32,3.28a.83.83,0,0,1-1.16,1.18l-3.32-3.28-3.26,3.33a.82.82,0,0,1-1.17,0A.82.82,0,0,1,88,109l3.26-3.33Z" transform="translate(-0.45 -1.12)"/><path class="cls-17" d="M88.36,85.83a.83.83,0,0,1,1.15-1.19l1.73,1.67,4-4.53a.83.83,0,1,1,1.24,1.09l-4.56,5.22a.82.82,0,0,1-1.17,0Z" transform="translate(-0.45 -1.12)"/><rect class="cls-18" x="64.39" y="65.14" width="4.89" height="4.91" rx="1.14"/><rect class="cls-18" x="55.34" y="65.14" width="4.89" height="4.91" rx="1.14"/><rect class="cls-18" x="46.29" y="65.14" width="4.89" height="4.91" rx="1.14"/><rect class="cls-18" x="37.24" y="65.14" width="4.89" height="4.91" rx="1.14"/><rect class="cls-18" x="28.19" y="65.14" width="4.89" height="4.91" rx="1.14"/><rect class="cls-18" x="19.14" y="65.14" width="4.89" height="4.91" rx="1.14"/><path class="cls-4" d="M50.16,61.27H47.55a1.14,1.14,0,0,1-1.14-1.14V57.51a1.14,1.14,0,0,1,1.14-1.14h2.61a1.14,1.14,0,0,1,1.14,1.14v2.62A1.14,1.14,0,0,1,50.16,61.27Z" transform="translate(-0.45 -1.12)"/><path class="cls-4" d="M41.11,61.27H38.5a1.14,1.14,0,0,1-1.14-1.14V57.51a1.14,1.14,0,0,1,1.14-1.14h2.61a1.14,1.14,0,0,1,1.14,1.14v2.62A1.14,1.14,0,0,1,41.11,61.27Z" transform="translate(-0.45 -1.12)"/><path class="cls-4" d="M32.06,61.27H29.45a1.14,1.14,0,0,1-1.14-1.14V57.51a1.14,1.14,0,0,1,1.14-1.14h2.61a1.14,1.14,0,0,1,1.14,1.14v2.62A1.14,1.14,0,0,1,32.06,61.27Z" transform="translate(-0.45 -1.12)"/><rect class="cls-18" x="37.24" y="75.77" width="4.89" height="4.91" rx="1.14"/><rect class="cls-18" x="28.19" y="75.77" width="4.89" height="4.91" rx="1.14"/><rect class="cls-18" x="224.32" y="45.77" width="4.89" height="4.91" rx="1.14"/><rect class="cls-18" x="215.27" y="45.77" width="4.89" height="4.91" rx="1.14"/><rect class="cls-18" x="206.22" y="45.77" width="4.89" height="4.91" rx="1.14"/><rect class="cls-18" x="197.17" y="45.77" width="4.89" height="4.91" rx="1.14"/><rect class="cls-18" x="188.11" y="45.77" width="4.89" height="4.91" rx="1.14"/><path class="cls-4" d="M219.13,41.91h-2.6a1.16,1.16,0,0,1-1.15-1.15V38.14A1.15,1.15,0,0,1,216.53,37h2.6a1.15,1.15,0,0,1,1.15,1.14v2.62A1.16,1.16,0,0,1,219.13,41.91Z" transform="translate(-0.45 -1.12)"/><path class="cls-4" d="M210.09,41.91h-2.62a1.15,1.15,0,0,1-1.14-1.15V38.14A1.15,1.15,0,0,1,207.47,37h2.62a1.15,1.15,0,0,1,1.14,1.14v2.62A1.15,1.15,0,0,1,210.09,41.91Z" transform="translate(-0.45 -1.12)"/><path class="cls-18" d="M198,35.88h2.61A1.14,1.14,0,0,1,201.73,37v2.62a1.14,1.14,0,0,1-1.14,1.14H198a1.14,1.14,0,0,1-1.14-1.14V37A1.15,1.15,0,0,1,198,35.88Z"/><rect class="cls-18" x="206.22" y="56.41" width="4.89" height="4.91" rx="1.14"/><rect class="cls-18" x="197.17" y="56.41" width="4.89" height="4.91" rx="1.14"/><path class="cls-3" d="M47.3,23.4a.71.71,0,1,1,1.42,0v3.2a.71.71,0,1,1-1.42,0V23.4ZM42.46,26a.71.71,0,0,1,1-1l2.25,2.26a.71.71,0,0,1,0,1,.7.7,0,0,1-1,0L42.46,26Zm-1.58,5.27a.71.71,0,0,1,0-1.42h3.19a.71.71,0,0,1,0,1.42Zm2.59,4.85a.71.71,0,0,1-1-1l2.26-2.27a.7.7,0,0,1,1,0,.71.71,0,0,1,0,1l-2.25,2.26Zm5.25,1.59a.71.71,0,1,1-1.42,0V34.5a.71.71,0,1,1,1.42,0v3.2Zm4.83-2.59a.71.71,0,0,1-1,1l-2.26-2.26a.73.73,0,0,1,0-1,.71.71,0,0,1,1,0l2.25,2.27Zm1.59-5.27a.71.71,0,0,1,0,1.42H52a.71.71,0,0,1,0-1.42ZM52.55,25a.71.71,0,0,1,1,1L51.3,28.26a.71.71,0,0,1-1,0,.73.73,0,0,1,0-1Z" transform="translate(-0.45 -1.12)"/><path class="cls-3" d="M73,172.68a.71.71,0,0,1,1.42,0v3.2a.71.71,0,1,1-1.42,0v-3.2Zm-4.83,2.6a.71.71,0,0,1,0-1,.7.7,0,0,1,1,0l2.26,2.26a.73.73,0,0,1,0,1,.71.71,0,0,1-1,0l-2.25-2.26Zm-1.59,5.26a.71.71,0,0,1,0-1.42h3.19a.71.71,0,1,1,0,1.42Zm2.59,4.85a.71.71,0,0,1-1-1l2.25-2.27a.71.71,0,1,1,1,1l-2.26,2.26Zm5.25,1.6A.71.71,0,1,1,73,187v-3.2a.71.71,0,1,1,1.42,0V187Zm4.84-2.6a.71.71,0,0,1-1,1L76,183.13a.71.71,0,0,1,1-1l2.26,2.27Zm1.58-5.27a.71.71,0,0,1,0,1.42H77.69a.71.71,0,0,1,0-1.42Zm-2.59-4.85a.71.71,0,0,1,1,0,.73.73,0,0,1,0,1L77,177.54a.7.7,0,0,1-1,0,.71.71,0,0,1,0-1Z" transform="translate(-0.45 -1.12)"/><path class="cls-3" d="M293.47,81.49a.71.71,0,1,1,1.42,0V84.7a.71.71,0,0,1-1.42,0V81.49Zm-4.83,2.6a.71.71,0,0,1,1-1l2.26,2.26a.71.71,0,0,1-1,1l-2.25-2.27Zm-1.59,5.27a.71.71,0,0,1,0-1.42h3.19a.71.71,0,1,1,0,1.42Zm2.59,4.85a.7.7,0,0,1-1,0,.71.71,0,0,1,0-1l2.25-2.26a.71.71,0,0,1,1,0,.73.73,0,0,1,0,1l-2.26,2.26Zm5.25,1.59a.71.71,0,1,1-1.42,0V92.6a.71.71,0,1,1,1.42,0v3.2Zm4.84-2.6a.73.73,0,0,1,0,1,.71.71,0,0,1-1,0L296.47,92a.71.71,0,0,1,0-1,.7.7,0,0,1,1,0l2.26,2.26Zm1.58-5.26a.71.71,0,1,1,0,1.42h-3.19a.71.71,0,1,1,0-1.42Zm-2.59-4.85a.71.71,0,0,1,1,1l-2.26,2.27a.71.71,0,0,1-1-1Z" transform="translate(-0.45 -1.12)"/><path class="cls-3" d="M19.38,135.84V137h1.15a.88.88,0,0,1,.87.88h0a.88.88,0,0,1-.87.88H19.38v1.15a.89.89,0,0,1-.88.88h0a.88.88,0,0,1-.87-.88v-1.15H16.48a.89.89,0,0,1-.88-.88h0a.89.89,0,0,1,.88-.88h1.15v-1.15a.88.88,0,0,1,.87-.88h0A.89.89,0,0,1,19.38,135.84Z" transform="translate(-0.45 -1.12)"/><path class="cls-3" d="M115.92,93.88V95h1.15a.88.88,0,0,1,.87.88h0a.88.88,0,0,1-.87.88h-1.15v1.15a.89.89,0,0,1-.88.88h0a.88.88,0,0,1-.87-.88V96.79H113a.89.89,0,0,1-.88-.88h0A.89.89,0,0,1,113,95h1.15V93.88A.88.88,0,0,1,115,93h0A.89.89,0,0,1,115.92,93.88Z" transform="translate(-0.45 -1.12)"/><path class="cls-3" d="M129.49,13.85v1.3h1.3a1,1,0,0,1,1,1h0a1,1,0,0,1-1,1h-1.3v1.3a1,1,0,0,1-1,1h0a1,1,0,0,1-1-1v-1.3h-1.29a1,1,0,0,1-1-1h0a1,1,0,0,1,1-1h1.29v-1.3a1,1,0,0,1,1-1h0A1,1,0,0,1,129.49,13.85Z" transform="translate(-0.45 -1.12)"/><path class="cls-3" d="M297.63,134.89v1.3h1.3a1,1,0,0,1,1,1h0a1,1,0,0,1-1,1h-1.3v1.3a1,1,0,0,1-1,1h0a1,1,0,0,1-1-1v-1.3h-1.29a1,1,0,0,1-1-1h0a1,1,0,0,1,1-1h1.29v-1.3a1,1,0,0,1,1-1h0A1,1,0,0,1,297.63,134.89Z" transform="translate(-0.45 -1.12)"/><path class="cls-3" d="M263,176.85v1.3h1.3a1,1,0,0,1,1,1h0a1,1,0,0,1-1,1H263v1.3a1,1,0,0,1-1,1h0a1,1,0,0,1-1-1v-1.3h-1.3a1,1,0,0,1-1-1h0a1,1,0,0,1,1-1h1.3v-1.3a1,1,0,0,1,1-1h0A1,1,0,0,1,263,176.85Z" transform="translate(-0.45 -1.12)"/></svg>