<svg xmlns="http://www.w3.org/2000/svg" viewBox="0 0 750 500"><defs><style>.cls-1,.cls-4{fill:#fff;}.cls-13,.cls-2{fill:#d6d6f9;}.cls-10,.cls-11,.cls-12,.cls-15,.cls-16,.cls-18,.cls-19,.cls-2,.cls-3,.cls-4,.cls-5,.cls-6,.cls-7,.cls-8,.cls-9{fill-rule:evenodd;}.cls-3{fill:#484d9b;}.cls-5{fill:#9c9dcc;}.cls-6{fill:#de9396;}.cls-7{fill:#df6162;}.cls-8{fill:#1d135c;}.cls-9{fill:#100843;}.cls-10{fill:#606ce6;}.cls-11{fill:#cf4a60;}.cls-12{fill:#e7b7b9;}.cls-14{fill:#100c4c;}.cls-15{fill:#eaebf5;}.cls-16{fill:#edbd54;}.cls-17{fill:#fbfdff;}.cls-18{fill:#b64443;}.cls-19{fill:#282564;}</style></defs><g id="BACKGROUND"><rect class="cls-1" width="750" height="500"/></g><g id="OBJECTS"><path class="cls-2" d="M98.6,30.78C72,30.78,50.26,53.53,50.26,81.32h0c0,27.79,21.75,50.53,48.34,50.53h0A10,10,0,0,1,108.3,142h0a10,10,0,0,1-9.7,10.14H73.31c-13,0-23.58,11.09-23.58,24.65h0c0,13.56,10.61,24.65,23.58,24.65,11.21,0,20.39,9.6,20.39,21.32h0c0,21.4,16.74,38.91,37.2,38.91H349.32c26.58,0,48.33-22.74,48.33-50.54h0c0-27.79-21.75-50.53-48.33-50.53h-4.68a10,10,0,0,1-9.7-10.15h0a10,10,0,0,1,9.7-10.14h31.47c13,0,23.58-11.09,23.58-24.65h0c0-13.54-10.58-24.63-23.53-24.65H350.84c-11.22,0-20.39-9.6-20.39-21.32h0c0-21.4-16.75-38.91-37.21-38.91Z" transform="translate(0 0)"/><path class="cls-3" d="M289.76,59.19a14.1,14.1,0,0,1,20.56,0,15.68,15.68,0,0,1,0,21.49,14.08,14.08,0,0,1-20.56,0,15.68,15.68,0,0,1,0-21.49ZM300,56.91a12.12,12.12,0,0,0-8.81,3.82,13.43,13.43,0,0,0,0,18.41,12.07,12.07,0,0,0,17.62,0,13.43,13.43,0,0,0,0-18.41A12.12,12.12,0,0,0,300,56.91Z" transform="translate(0 0)"/><path class="cls-3" d="M308.85,80.68a1.12,1.12,0,0,1,0-1.54,1,1,0,0,1,1.47,0l3.44,3.6a1.12,1.12,0,0,1,0,1.54,1,1,0,0,1-1.47,0Z" transform="translate(0 0)"/><path class="cls-3" d="M312.43,86a2.26,2.26,0,0,1,0-3.08,2,2,0,0,1,2.94,0l15.88,16.6a2.24,2.24,0,0,1,0,3.07,2,2,0,0,1-2.95,0Z" transform="translate(0 0)"/><path class="cls-4" d="M306.8,62.81a.71.71,0,0,1,0-1,.64.64,0,0,1,.92,0,11.37,11.37,0,0,1,2.36,3.7,11.84,11.84,0,0,1,.82,4.36h0a11.62,11.62,0,0,1-.43,3.15.65.65,0,0,1-.8.47.7.7,0,0,1-.45-.84,10.47,10.47,0,0,0,.38-2.78h0a10.41,10.41,0,0,0-.73-3.85,10.17,10.17,0,0,0-2.08-3.25Zm1.29,12.52a.62.62,0,0,1,.9-.2.68.68,0,0,1,.19.93,10.86,10.86,0,0,1-.68,1,11.62,11.62,0,0,1-.78.91.62.62,0,0,1-.92,0,.71.71,0,0,1,0-1,10.11,10.11,0,0,0,.69-.8,8.42,8.42,0,0,0,.6-.87ZM293.23,77a.71.71,0,0,1,0,1,.62.62,0,0,1-.92,0A11.33,11.33,0,0,1,290,74.27a11.93,11.93,0,0,1-.83-4.36,11.44,11.44,0,0,1,.19-2.09,12,12,0,0,1,.54-2,.64.64,0,0,1,.83-.39.7.7,0,0,1,.38.88,10.5,10.5,0,0,0-.48,1.77,10.16,10.16,0,0,0-.16,1.84,10.32,10.32,0,0,0,.73,3.84A9.9,9.9,0,0,0,293.23,77Zm-1-13a.63.63,0,0,1-.9.15.69.69,0,0,1-.15-.94c.18-.26.36-.5.55-.73l0,0c.19-.24.38-.46.56-.65a.64.64,0,0,1,.92,0,.71.71,0,0,1,0,1c-.19.2-.36.39-.5.56l0,0C292.53,63.62,292.37,63.83,292.22,64.05Z" transform="translate(0 0)"/><path class="cls-5" d="M303.18,74.48a.67.67,0,0,0-.23.9.62.62,0,0,0,.86.24,6.45,6.45,0,0,0,2.3-2.42,6.83,6.83,0,0,0,.84-3.28,6.71,6.71,0,0,0-1.84-4.65,6.1,6.1,0,0,0-8.9,0,6.71,6.71,0,0,0-1.84,4.65.63.63,0,1,0,1.26,0,5.37,5.37,0,0,1,1.47-3.72,4.88,4.88,0,0,1,7.12,0,5.46,5.46,0,0,1,.8,6.35A5.17,5.17,0,0,1,303.18,74.48Z" transform="translate(0 0)"/><path class="cls-5" d="M350.58,188.46a24.09,24.09,0,0,1,9.63,2,25.11,25.11,0,0,1,8.18,5.71,26.62,26.62,0,0,1,5.47,8.55,27.64,27.64,0,0,1,0,20.14,26.62,26.62,0,0,1-5.47,8.55,25.11,25.11,0,0,1-8.18,5.71,24.18,24.18,0,0,1-19.26,0,25.17,25.17,0,0,1-8.17-5.71,26.62,26.62,0,0,1-5.47-8.55,27.5,27.5,0,0,1,0-20.14,26.62,26.62,0,0,1,5.47-8.55,25.17,25.17,0,0,1,8.17-5.71,24.09,24.09,0,0,1,9.63-2Zm9.27,2.92a23.31,23.31,0,0,0-18.53,0,24.22,24.22,0,0,0-7.87,5.5,25.7,25.7,0,0,0-5.26,8.22,26.57,26.57,0,0,0,0,19.38,25.7,25.7,0,0,0,5.26,8.22,24.22,24.22,0,0,0,7.87,5.5,23.31,23.31,0,0,0,18.53,0,24.08,24.08,0,0,0,7.86-5.5,25.36,25.36,0,0,0,5.26-8.22,26.44,26.44,0,0,0,0-19.38,25.36,25.36,0,0,0-5.26-8.22A24.08,24.08,0,0,0,359.85,191.38Z" transform="translate(0 0)"/><path class="cls-6" d="M279.62,100s12.61-22.73,17.72-31.16c2.25-3.71,5.65-2.66,3.55,2.27-1.16,2.71-5.23,9.45-5.23,9.45,5.71.58,7.6,7.81,6,10.75-.76,1.46-5.39,5.6-6.5,6.35s-5.87,7.14-5.87,7.14Z" transform="translate(0 0)"/><path class="cls-7" d="M289,83.36l3.87-6.8,1.33.15a5.34,5.34,0,0,0,4.65-1.54c-1.5,2.68-3.15,5.41-3.15,5.41a6.4,6.4,0,0,1,2.41.72,22.83,22.83,0,0,1-7.82,2A5.72,5.72,0,0,1,289,83.36Z" transform="translate(0 0)"/><path class="cls-7" d="M287,86.84,289.73,82c1.91-.49,4.14-1,6.29-1.37,5.43.84,7.2,7.83,5.69,10.71a25.45,25.45,0,0,1-4.09,4.34C293,94.3,289.2,90,287,86.84Z" transform="translate(0 0)"/><path class="cls-6" d="M300.58,85c2.25,1.33,3.8,2.61,2.33,5.74s-4.66,2.86-4.61,1.68S301,87,301,87,297.56,84.59,300.58,85Z" transform="translate(0 0)"/><path class="cls-6" d="M298.7,83c3.58-.73,3.68,2.12,2,5.62s-4.15,3.78-5.12,2.23,2.9-5.71,2.9-5.71S295.32,82.59,298.7,83Z" transform="translate(0 0)"/><path class="cls-6" d="M298.85,85.61c-1.65,3.5-4,3.58-4.93,2s2.9-5.71,2.9-5.71-1.1-1.06-.88-1.76c.53-1.67,4.1-1.78,4.24,1.33A10.34,10.34,0,0,1,298.85,85.61Z" transform="translate(0 0)"/><path class="cls-6" d="M283.28,95.26C281,88.89,283.38,79.8,286,80s11-.66,11.26,1.72-8.65,3.84-8.65,3.84,6.09,7.48,2.32,9.6S283.19,97.38,283.28,95.26Z" transform="translate(0 0)"/><path class="cls-8" d="M212.23,139.93s33.6-2.5,35.12-2.71,2.68-.7,6-4.56,27.43-38.43,27.43-38.43c.82-1.37,14.39,7.67,12.32,13-1,2.6-26.56,43.54-26.56,43.54s-5,9.22-13.08,12.83-27,13.36-27,13.36Z" transform="translate(0 0)"/><path class="cls-3" d="M235.73,138.16l6-.47c7.49,4.23,15.79,12.56,8.59,27.31-1.39.66-2.92,1.4-4.52,2.18,11.2-18-2.87-26.18-10.06-29Zm8.07-.63c7.24,3.65,16.62,11.7,7.54,27,.75-.35,1.46-.67,2.1-1a19.19,19.19,0,0,0,2.33-1.24c6-13.11-.31-21-7.08-25.46a4.74,4.74,0,0,1-1.34.35C247.08,137.26,245.76,137.37,243.8,137.53Z" transform="translate(0 0)"/><path class="cls-8" d="M212.88,140.35c29.07,5.27,29.6,40.44,25.29,70.64-.93,15,.72,37.87-.86,44.24a9,9,0,0,1-1.23,2.33l-33.73,1.13H164.56a8.83,8.83,0,0,1-1.23-2.32c-1.58-6.37,1.69-39.32.76-54.28l-2.7-50.21,30.42-11.53Z" transform="translate(0 0)"/><path class="cls-7" d="M223.6,104.92l.48.08h0a6.74,6.74,0,0,1,5.16,6.52,6.5,6.5,0,1,1-13,.26,6.88,6.88,0,0,1,2.41-5.41c-.17,2,.14,4.49,2.59,4.73l-.08-3.91A2.27,2.27,0,0,1,223.6,104.92Z" transform="translate(0 0)"/><path class="cls-7" d="M179.33,104.92l-.47.08h0a6.83,6.83,0,0,0,1.22,13.44,6.64,6.64,0,0,0,6.62-6.66,6.89,6.89,0,0,0-2.42-5.41c.17,2-.13,4.49-2.58,4.73l.07-3.91A2.27,2.27,0,0,0,179.33,104.92Z" transform="translate(0 0)"/><polygon class="cls-9" points="227.14 88.66 225.02 108.92 220.6 89.83 227.14 88.66"/><path class="cls-5" d="M212.88,139.88a26.37,26.37,0,0,1,2.92-.22C218.69,150.25,213,158,202.35,158c-7.91,0-14.37-6.75-14.37-15V141.8l3.83-1.45Z" transform="translate(0 0)"/><path class="cls-10" d="M270.6,264.07H195.71a5.28,5.28,0,0,1-5.14-5.38h0a5.28,5.28,0,0,1,5.14-5.38H270.6a5.28,5.28,0,0,1,5.14,5.38h0A5.28,5.28,0,0,1,270.6,264.07Z" transform="translate(0 0)"/><path class="cls-3" d="M195.94,264.07H162.21a5.28,5.28,0,0,1-5.14-5.38h0a5.28,5.28,0,0,1,5.14-5.38h33.73a5.29,5.29,0,0,1,5.15,5.38h0A5.29,5.29,0,0,1,195.94,264.07Z" transform="translate(0 0)"/><path class="cls-6" d="M202.35,117.42h0a10.82,10.82,0,0,0-10.54,11V143a10.81,10.81,0,0,0,10.54,11h0a10.81,10.81,0,0,0,10.53-11V128.43A10.81,10.81,0,0,0,202.35,117.42Z" transform="translate(0 0)"/><path class="cls-7" d="M191.85,127.49c0,.31,0,.63,0,.94V143a11.41,11.41,0,0,0,.67,3.85l20.4-9.53v-8.19c-3.75-.72-12.86-1.71-13.39-2.17C199.15,126.67,195.39,127.05,191.85,127.49Z" transform="translate(0 0)"/><path class="cls-6" d="M225,93.87V115.4c0,12.79-10,23.25-22.24,23.25h0c-12.23,0-22.25-10.46-22.25-23.25V94.24a19,19,0,0,1,.65-5.55c2.4-10.14,11.2-17.7,21.6-17.7h0C214.89,71,224.83,81.25,225,93.87Z" transform="translate(0 0)"/><path class="cls-7" d="M225,93.87v.23l-13.56-5.76-5.79,3.54-7.49-2.17a2.06,2.06,0,0,1-2.08,1l-7.87-3,1-11.92a22,22,0,0,1,3.64-2.4L216.5,76A23.63,23.63,0,0,1,225,93.87Z" transform="translate(0 0)"/><path class="cls-9" d="M200.07,116.58a5.76,5.76,0,1,0,11.5.47h0a1,1,0,0,0-.95-1.08l-9.5-.39a1,1,0,0,0-1,1Z" transform="translate(0 0)"/><path class="cls-11" d="M202,121.35a5.64,5.64,0,0,0,3.56,1.48,5.51,5.51,0,0,0,3.08-.78,3.62,3.62,0,0,0-3.21-2.36A3.57,3.57,0,0,0,202,121.35Z" transform="translate(0 0)"/><path class="cls-4" d="M210.73,116l-8.92-.37a2.12,2.12,0,0,0,.89,2.34c.8.31,7.26.4,7.74-.11A3.74,3.74,0,0,0,210.73,116Z" transform="translate(0 0)"/><path class="cls-7" d="M193.43,111.41a3.06,3.06,0,1,1-2.87,3.11A3,3,0,0,1,193.43,111.41Z" transform="translate(0 0)"/><path class="cls-7" d="M217.73,110.91a3.06,3.06,0,1,1-2.87,3.11A3,3,0,0,1,217.73,110.91Z" transform="translate(0 0)"/><path class="cls-9" d="M219,100.88a.77.77,0,0,0,1.06-.37.84.84,0,0,0-.35-1.11,7.11,7.11,0,0,0-6.94,0,.85.85,0,0,0-.28,1.13.78.78,0,0,0,1.09.29A5.56,5.56,0,0,1,219,100.88Z" transform="translate(0 0)"/><path class="cls-9" d="M214.16,107.66a2.19,2.19,0,0,1,.6-1.52,2,2,0,0,1,1.45-.63,2,2,0,0,1,1.46.63,2.19,2.19,0,0,1,.6,1.52.8.8,0,1,0,1.59,0,3.92,3.92,0,0,0-1.07-2.69,3.55,3.55,0,0,0-2.58-1.11,3.51,3.51,0,0,0-2.57,1.11,3.87,3.87,0,0,0-1.07,2.69.8.8,0,1,0,1.59,0Z" transform="translate(0 0)"/><path class="cls-12" d="M208.79,109.52a12.26,12.26,0,0,1,1.57,2.75c.11.74-1.48,1.17-2.58.86-.78-.23-.66-2-.43-3.2S207.93,108.29,208.79,109.52Z" transform="translate(0 0)"/><path class="cls-9" d="M198.24,100.88a.77.77,0,0,0,1.06-.37A.84.84,0,0,0,199,99.4a7.13,7.13,0,0,0-6.95,0,.86.86,0,0,0-.27,1.13.78.78,0,0,0,1.09.29A5.56,5.56,0,0,1,198.24,100.88Z" transform="translate(0 0)"/><path class="cls-9" d="M193.44,107.66a2.2,2.2,0,0,1,.61-1.52,2,2,0,0,1,1.45-.63,2,2,0,0,1,1.46.63,2.19,2.19,0,0,1,.6,1.52.8.8,0,1,0,1.59,0,3.92,3.92,0,0,0-1.07-2.69,3.55,3.55,0,0,0-2.58-1.11,3.51,3.51,0,0,0-2.57,1.11,3.87,3.87,0,0,0-1.07,2.69.79.79,0,1,0,1.58,0Z" transform="translate(0 0)"/><path class="cls-9" d="M180.53,112.29a15.5,15.5,0,0,0,2.58-13.71s8.63-4.92,8.63-12.35c0,0,1,2.57,2.74,3.2s2.57-1.77,1.75-2.85c0,0,6.28,4.8,11.47,5.88s6.73-4.4,4.59-6.34c0,0,8.37,6.11,13.72,4.63s8.53-23.32-9.84-28.12-29.94.23-33.88,3-6.45,10.18-3.72,15.2a17.21,17.21,0,0,0-4.15,8.12c-.87,4.8,2.57,16.82,2.57,16.82S180.53,106.12,180.53,112.29Z" transform="translate(0 0)"/><path class="cls-8" d="M227.54,70.77h0c-22.45,8-33.88-1.24-39-8.15a30.18,30.18,0,0,0-4.09,1.7c12.27,21,32.36,20.6,45.68,17.31A19.66,19.66,0,0,0,227.54,70.77Z" transform="translate(0 0)"/><path class="cls-7" d="M188.1,179.66a19.85,19.85,0,0,0,2.55,3.23c1,.91,9.53,4.1,9.53,4.1a2.86,2.86,0,0,1-2.52,2.06h-4.93c-1.63,0-2.86,5.51-8.75,8-4.48,1.87-2.7-11.05-1.59-17.36Z" transform="translate(0 0)"/><path class="cls-4" d="M206.39,148.68H192.22a2.09,2.09,0,0,0-2,2.13v34.34a2.1,2.1,0,0,0,2,2.14h14.17a2.1,2.1,0,0,0,2-2.14V150.81A2.09,2.09,0,0,0,206.39,148.68Z" transform="translate(0 0)"/><rect class="cls-13" x="190.18" y="152.88" width="18.25" height="0.74"/><rect class="cls-13" x="190.18" y="182.34" width="18.25" height="0.74"/><path class="cls-7" d="M189.64,159.66a3.11,3.11,0,0,1,.81,2.16c.09,1.52-.9,3.06-1.29,4.07L187.74,171s-.68,7.08-.8,7.33a7.14,7.14,0,0,0,1.26,1.78l-5.68.56c.17-2,.33-3.38.33-3.38l-.62-3.6s1.87-5.48,2.62-7.2S189.27,159.34,189.64,159.66Z" transform="translate(0 0)"/><path class="cls-2" d="M199.31,161.83a3.19,3.19,0,1,0-3.06-3.19A3.13,3.13,0,0,0,199.31,161.83Z" transform="translate(0 0)"/><path class="cls-6" d="M177.88,210.64s3.92-7.5,5-9.08a14.7,14.7,0,0,0,2.52-8.27c0-3.87-.61-5.81,1-7a13.1,13.1,0,0,1,3.75-1.88l3.9.15c.65,0,3.59.88,4.29.85a1.75,1.75,0,0,0,1.49-1.11c.11-.47.11-.76-.93-1.18a36.81,36.81,0,0,0-4.74-1.55c-1-.15-4.17-.35-4.9-.35a18,18,0,0,0-2.69.5l2.55-1.26a20.28,20.28,0,0,1,5.21-.36c1,.18,4.24,2,6.4.71,0,0,.47-.4-.1-1s-6.31-3.3-7-3.59a7.29,7.29,0,0,0-3.11-.09,10.44,10.44,0,0,0-3.73.62c-.7.44-1.91,1.11-1.91,1.11s2.1-4.16,2.38-4.45a50.67,50.67,0,0,1,4.86-2.29c.28-.09,3.22-.59,4-1.26a3.11,3.11,0,0,0,1-2.14c0-.38-.11-.65-1.65-.5s-3.34.32-4.57.47-4.1,1.52-5.53,2.11-2.63,2.9-4.21,5.83-3.75,9.21-4.76,11.61-.34,9.5-4.32,15a60.2,60.2,0,0,1-5.05,6.51Z" transform="translate(0 0)"/><path class="cls-8" d="M161.39,151.88s-7.15,2.8-10.59,15.94-7.1,59.16-7.91,69.34,13.48,19,21.29,9.12,18.26-40.4,18.26-40.4a18.87,18.87,0,0,0-9.18-6.94l-3.8,4.82S184.06,149.16,161.39,151.88Z" transform="translate(0 0)"/><path class="cls-3" d="M147.78,186.23c-.17,1.34-.33,2.7-.5,4.09,13.45-1.91,21.86,2.52,24.28,4.05.25-1.29.51-2.68.75-4.13-3.75-2-12.22-5.5-24.53-4Zm-1,8.41c11.44-1.61,19.68,1.06,24.07,3.15-.34,1.6-.65,2.94-.9,4-3.71-1.92-11.78-4.91-23.61-3C146.5,197.37,146.64,196,146.79,194.64Z" transform="translate(0 0)"/><path class="cls-2" d="M192.34,151.88a1.06,1.06,0,1,0-1-1.06A1,1,0,0,0,192.34,151.88Z" transform="translate(0 0)"/><path class="cls-5" d="M194.71,151.47a.65.65,0,0,0,0-1.29.65.65,0,0,0,0,1.29Z" transform="translate(0 0)"/><path class="cls-5" d="M192.34,151.61a.77.77,0,0,0,.75-.79.75.75,0,1,0-.75.79Z" transform="translate(0 0)"/><path class="cls-2" d="M192.34,151.17a.34.34,0,0,0,.34-.35.34.34,0,1,0-.67,0A.34.34,0,0,0,192.34,151.17Z" transform="translate(0 0)"/><path class="cls-4" d="M192.68,150.76a.35.35,0,0,0,.34-.35.34.34,0,1,0-.68,0A.35.35,0,0,0,192.68,150.76Z" transform="translate(0 0)"/><path class="cls-2" d="M194.71,151.15a.32.32,0,0,0,.32-.33.32.32,0,1,0-.63,0A.32.32,0,0,0,194.71,151.15Z" transform="translate(0 0)"/><path class="cls-14" d="M162.74,248.33a.46.46,0,0,1-.37-.17.51.51,0,0,1,0-.7,12.47,12.47,0,0,0,1.39-1.5c7.3-9.21,17.07-37.07,18.09-40a18.65,18.65,0,0,0-8.48-6.44l-3.59,4.56a.47.47,0,0,1-.59.13.51.51,0,0,1-.25-.58c0-.17,4.59-17.3,4.62-31.68a.49.49,0,0,1,.47-.5h0a.49.49,0,0,1,.47.51c0,11.45-2.87,24.61-4.09,29.73l2.42-3.07a.46.46,0,0,1,.51-.16,19.07,19.07,0,0,1,9.43,7.15.49.49,0,0,1,.06.44c-.43,1.25-10.57,30.73-18.34,40.55a13.6,13.6,0,0,1-1.5,1.61A.47.47,0,0,1,162.74,248.33Z" transform="translate(0 0)"/><path class="cls-14" d="M154.35,223.44a.47.47,0,0,1-.31-.12.51.51,0,0,1-.06-.7l16.84-21.38a.47.47,0,0,1,.68-.06.51.51,0,0,1,.06.7l-16.84,21.37A.48.48,0,0,1,154.35,223.44Z" transform="translate(0 0)"/><path class="cls-14" d="M154.45,219.21a.47.47,0,0,1-.44-.3.51.51,0,0,1,.24-.66c1.62-.74,4.65-1.89,4.78-1.94a.47.47,0,0,1,.61.3.5.5,0,0,1-.28.64s-3.13,1.19-4.72,1.92A.43.43,0,0,1,154.45,219.21Z" transform="translate(0 0)"/><path class="cls-14" d="M172.19,191.47a.42.42,0,0,1-.16,0,.5.5,0,0,1-.29-.64c0-.09,3.35-9.57,3.64-10.61a.48.48,0,0,1,.6-.33.5.5,0,0,1,.32.62c-.3,1.06-3.52,10.27-3.66,10.67A.49.49,0,0,1,172.19,191.47Z" transform="translate(0 0)"/><path class="cls-14" d="M240.33,185.1a.49.49,0,0,1-.48-.48c-.38-13.75-3.2-24.51-8.36-32a.52.52,0,0,1,.1-.7.47.47,0,0,1,.67.12c5.28,7.61,8.16,18.55,8.55,32.51a.48.48,0,0,1-.46.51Z" transform="translate(0 0)"/><path class="cls-14" d="M247.35,137.72a.49.49,0,0,1-.48-.46.5.5,0,0,1,.44-.54c.07,0,6.5-.54,9.87-.59a.48.48,0,0,1,.49.49.49.49,0,0,1-.47.51c-3.34.05-9.75.58-9.81.59Z" transform="translate(0 0)"/><path class="cls-2" d="M298,182.94H212.18a2.64,2.64,0,0,0-2.5,2.35l-6.1,56.09a2,2,0,0,0,2,2.35h85.77a2.63,2.63,0,0,0,2.5-2.35l6.1-56.09A2,2,0,0,0,298,182.94Z" transform="translate(0 0)"/><path class="cls-4" d="M305.25,182.94h-89.7a2.64,2.64,0,0,0-2.5,2.35L207,241.38a2,2,0,0,0,2,2.35h89.7a2.63,2.63,0,0,0,2.5-2.35l6.11-56.09A2,2,0,0,0,305.25,182.94Z" transform="translate(0 0)"/><path class="cls-5" d="M263.86,217.46H246.64a1.59,1.59,0,0,0-1.52,2.12l8.82,37a2.81,2.81,0,0,0,2.54,2.12h8.94a2,2,0,0,0,1.94-2.12l-1.39-37A2.19,2.19,0,0,0,263.86,217.46Z" transform="translate(0 0)"/><path class="cls-15" d="M266.46,217.46H249.24a1.59,1.59,0,0,0-1.52,2.12l8.82,37a2.81,2.81,0,0,0,2.54,2.12H268a2,2,0,0,0,1.95-2.12l-1.4-37A2.18,2.18,0,0,0,266.46,217.46Z" transform="translate(0 0)"/><path class="cls-4" d="M281.72,262.15H236.08a3.39,3.39,0,0,1-3.31-3.46h0a3.4,3.4,0,0,1,3.31-3.46h45.64a3.4,3.4,0,0,1,3.31,3.46h0A3.39,3.39,0,0,1,281.72,262.15Z" transform="translate(0 0)"/><path class="cls-5" d="M241,262.15H223.6a3.4,3.4,0,0,1-3.32-3.46h0a3.4,3.4,0,0,1,3.32-3.46H241a3.4,3.4,0,0,1,3.31,3.46h0A3.39,3.39,0,0,1,241,262.15Z" transform="translate(0 0)"/><path class="cls-9" d="M52.92,258.69H396.5a4.21,4.21,0,0,1,4.1,4.29h0a4.21,4.21,0,0,1-4.1,4.28H382.67a2.33,2.33,0,0,0-2.27,2.38h0a2.33,2.33,0,0,0,2.27,2.38h5.06a2.92,2.92,0,0,1,2.85,3h0a2.92,2.92,0,0,1-2.85,3H62.14a2.92,2.92,0,0,1-2.84-3h0a2.92,2.92,0,0,1,2.84-3h4a2.33,2.33,0,0,0,2.27-2.38h0a2.33,2.33,0,0,0-2.27-2.38H52.92a4.21,4.21,0,0,1-4.1-4.28h0a4.21,4.21,0,0,1,4.1-4.29ZM55.06,278a2.8,2.8,0,0,0,2.73-2.85v-.24A2.81,2.81,0,0,0,55.06,272h0a2.81,2.81,0,0,0-2.74,2.86v.24A2.8,2.8,0,0,0,55.06,278Z" transform="translate(0 0)"/><path class="cls-3" d="M349.14,186.77a24.09,24.09,0,0,1,17.45,7.56,26.65,26.65,0,0,1,0,36.48,23.92,23.92,0,0,1-34.9,0,26.65,26.65,0,0,1,0-36.48A24.09,24.09,0,0,1,349.14,186.77Z" transform="translate(0 0)"/><ellipse class="cls-1" cx="349.14" cy="212.57" rx="18.86" ry="19.72"/><path class="cls-3" d="M349.14,194.11h0a.42.42,0,0,1,.41.43v1.05a.41.41,0,0,1-.41.42h0a.41.41,0,0,1-.41-.42v-1.05A.42.42,0,0,1,349.14,194.11Z" transform="translate(0 0)"/><path class="cls-3" d="M349.14,229.12h0a.42.42,0,0,1,.41.43v1a.42.42,0,0,1-.41.43h0a.42.42,0,0,1-.41-.43v-1A.42.42,0,0,1,349.14,229.12Z" transform="translate(0 0)"/><path class="cls-3" d="M358,196.59h0a.44.44,0,0,1,.15.58l-.5.91a.4.4,0,0,1-.56.15h0a.42.42,0,0,1-.15-.58l.5-.91A.4.4,0,0,1,358,196.59Z" transform="translate(0 0)"/><path class="cls-3" d="M341.22,226.91h0a.42.42,0,0,1,.15.58l-.5.91a.39.39,0,0,1-.55.15h0a.44.44,0,0,1-.15-.58l.5-.91A.4.4,0,0,1,341.22,226.91Z" transform="translate(0 0)"/><path class="cls-3" d="M364.43,203.34h0a.45.45,0,0,1-.15.59l-.87.52a.4.4,0,0,1-.56-.16h0a.44.44,0,0,1,.15-.58l.87-.53A.41.41,0,0,1,364.43,203.34Z" transform="translate(0 0)"/><path class="cls-3" d="M335.43,220.85h0a.44.44,0,0,1-.15.58l-.87.52a.4.4,0,0,1-.56-.15h0a.45.45,0,0,1,.15-.59l.87-.52A.4.4,0,0,1,335.43,220.85Z" transform="translate(0 0)"/><path class="cls-3" d="M366.79,212.57h0a.42.42,0,0,1-.41.43h-1a.42.42,0,0,1-.41-.43h0a.42.42,0,0,1,.41-.43h1A.42.42,0,0,1,366.79,212.57Z" transform="translate(0 0)"/><path class="cls-3" d="M333.31,212.57h0a.42.42,0,0,1-.41.43h-1a.42.42,0,0,1-.41-.43h0a.42.42,0,0,1,.41-.43h1A.42.42,0,0,1,333.31,212.57Z" transform="translate(0 0)"/><path class="cls-3" d="M364.43,221.8h0a.4.4,0,0,1-.56.15l-.87-.52a.44.44,0,0,1-.15-.58h0a.4.4,0,0,1,.56-.16l.87.52A.45.45,0,0,1,364.43,221.8Z" transform="translate(0 0)"/><path class="cls-3" d="M335.43,204.29h0a.4.4,0,0,1-.56.16l-.87-.52a.45.45,0,0,1-.15-.59h0a.42.42,0,0,1,.56-.16l.87.53A.44.44,0,0,1,335.43,204.29Z" transform="translate(0 0)"/><path class="cls-3" d="M358,228.55h0a.4.4,0,0,1-.56-.15l-.5-.91a.42.42,0,0,1,.15-.58h0a.4.4,0,0,1,.56.15l.5.91A.44.44,0,0,1,358,228.55Z" transform="translate(0 0)"/><path class="cls-3" d="M341.22,198.23h0a.4.4,0,0,1-.56-.15l-.5-.91a.44.44,0,0,1,.15-.58h0a.41.41,0,0,1,.56.16l.5.91A.42.42,0,0,1,341.22,198.23Z" transform="translate(0 0)"/><path class="cls-3" d="M349.72,212.57a.58.58,0,1,1-1.16,0V198.34a.58.58,0,1,1,1.16,0Z" transform="translate(0 0)"/><path class="cls-11" d="M349.56,212.15a.63.63,0,0,1,0,.86.56.56,0,0,1-.82,0L342,205.44a.63.63,0,0,1,0-.85.56.56,0,0,1,.82,0Z" transform="translate(0 0)"/><path class="cls-4" d="M124.24,55.07h36.33a5.65,5.65,0,0,1,5.51,5.76v40.65a.64.64,0,0,1-.38.59.57.57,0,0,1-.67-.14l-9.39-9.82h-31.4a5.65,5.65,0,0,1-5.51-5.76V60.83A5.65,5.65,0,0,1,124.24,55.07Z" transform="translate(0 0)"/><path class="cls-5" d="M121.8,58.11h36.33a4.89,4.89,0,0,1,3.56,1.55,5.37,5.37,0,0,1,1.48,3.71V104a.15.15,0,0,1,0,.08.2.2,0,0,1-.07.06H163a.09.09,0,0,1-.06,0l-9.39-9.83a.48.48,0,0,0-.34-.14H121.8a4.88,4.88,0,0,1-3.55-1.55,5.37,5.37,0,0,1-1.48-3.71V63.37a5.37,5.37,0,0,1,1.48-3.71,4.88,4.88,0,0,1,3.55-1.55Zm36.33-1H121.8A5.88,5.88,0,0,0,117.57,59a6.4,6.4,0,0,0-1.76,4.42V88.9a6.4,6.4,0,0,0,1.76,4.42,5.84,5.84,0,0,0,4.23,1.84H153l9.26,9.67a1,1,0,0,0,.53.31h0a1.09,1.09,0,0,0,1.12-.49,1.17,1.17,0,0,0,.18-.64V63.37A6.36,6.36,0,0,0,162.36,59,5.85,5.85,0,0,0,158.13,57.11Z" transform="translate(0 0)"/><path class="cls-6" d="M151.89,65.92h0a6.11,6.11,0,0,0-8.88,0l-.61.63-.6-.63a6.11,6.11,0,0,0-8.88,0h0a6.79,6.79,0,0,0,0,9.29l.6.63,8.88,9.29,8.89-9.29.6-.63A6.81,6.81,0,0,0,151.89,65.92Z" transform="translate(0 0)"/><path class="cls-5" d="M383.13,123.46ZM380,111.08a5.8,5.8,0,0,0-8.46,0,6.46,6.46,0,0,0,0,8.84,5.78,5.78,0,0,0,8.46,0,6.43,6.43,0,0,0,0-8.84Zm-1.29-6.2a10.32,10.32,0,0,1,2.35,1,10.67,10.67,0,0,1,2.05,1.62.36.36,0,0,0,.44.06l2.78-1.68h0a.63.63,0,0,1,.5-.06.69.69,0,0,1,.42.33v0l2,3.54a.78.78,0,0,1,.07.54.75.75,0,0,1-.32.44h0l-2.76,1.67a.39.39,0,0,0-.17.42h0a11.37,11.37,0,0,1,.23,1.32,11.43,11.43,0,0,1,0,2.7,11.37,11.37,0,0,1-.23,1.32.38.38,0,0,0,.19.44l2.76,1.66h0a.75.75,0,0,1,.32.44.78.78,0,0,1-.07.54l-2,3.57h0a.69.69,0,0,1-.42.33.64.64,0,0,1-.52-.07h0l-2.76-1.67a.36.36,0,0,0-.44.06,10.41,10.41,0,0,1-4.41,2.67.38.38,0,0,0-.27.37v3.35a.75.75,0,0,1-.2.51.69.69,0,0,1-.49.21h-3.93a.69.69,0,0,1-.49-.21.75.75,0,0,1-.2-.51V126.5a.39.39,0,0,0-.28-.38,10.32,10.32,0,0,1-2.35-1,10.74,10.74,0,0,1-2.06-1.62.35.35,0,0,0-.45,0l-2.76,1.67a.67.67,0,0,1-.94-.26l0,0-1.95-3.55h0a.73.73,0,0,1-.07-.54.75.75,0,0,1,.32-.44l2.78-1.68a.38.38,0,0,0,.17-.42h0a11.37,11.37,0,0,1-.23-1.32,11.43,11.43,0,0,1,0-2.7,11.37,11.37,0,0,1,.23-1.32.38.38,0,0,0-.19-.43l-2.76-1.67a.75.75,0,0,1-.32-.44.74.74,0,0,1,.07-.54v0l2-3.55h0a.67.67,0,0,1,.94-.26h0L368,107.6a.35.35,0,0,0,.44-.06,11,11,0,0,1,2.05-1.62,10.62,10.62,0,0,1,2.36-1,.38.38,0,0,0,.27-.37v-3.35a.75.75,0,0,1,.2-.51.69.69,0,0,1,.49-.21h3.93a.69.69,0,0,1,.49.21.75.75,0,0,1,.2.51v3.35A.38.38,0,0,0,378.73,104.88Z" transform="translate(0 0)"/><path class="cls-10" d="M94.61,195.52h31.16a2.65,2.65,0,0,0,2.58-2.7V168.09a2.65,2.65,0,0,0-2.58-2.7H124.5v-1.26a.73.73,0,0,0-.71-.74h-9.41a.73.73,0,0,0-.71.74v1.26H94.61a2.65,2.65,0,0,0-2.58,2.7v24.73A2.65,2.65,0,0,0,94.61,195.52Z" transform="translate(0 0)"/><path class="cls-4" d="M116.36,195.52H96.67a2.16,2.16,0,0,1-2.11-2.2v-21a2.16,2.16,0,0,1,2.11-2.2h19.69a2.16,2.16,0,0,1,2.1,2.2v21A2.16,2.16,0,0,1,116.36,195.52Z" transform="translate(0 0)"/><path class="cls-5" d="M97.72,195.52h28.77a4.56,4.56,0,0,0,3.73-2.7l9.07-21.29c.63-1.48,0-2.69-1.43-2.69h-1.52l.57-1.34c.23-.54,0-1-.52-1h-10.5a1.65,1.65,0,0,0-1.36,1l-.57,1.34H109.09a4.58,4.58,0,0,0-3.74,2.69l-9.06,21.29C95.65,194.3,96.3,195.52,97.72,195.52Z" transform="translate(0 0)"/><path class="cls-4" d="M221.07,39h57.87A3,3,0,0,1,281.88,42V63.68a.35.35,0,0,1-.2.32.32.32,0,0,1-.36-.07l-5-5.23H221.07a3,3,0,0,1-2.94-3.07V42A3,3,0,0,1,221.07,39Z" transform="translate(0 0)"/><path class="cls-16" d="M229.67,56.09a7,7,0,1,0-6.65-7A6.82,6.82,0,0,0,229.67,56.09Z" transform="translate(0 0)"/><path class="cls-4" d="M229.67,47.92a1.9,1.9,0,1,0-1.81-1.9A1.86,1.86,0,0,0,229.67,47.92Z" transform="translate(0 0)"/><path class="cls-4" d="M229.67,48.52h0a2.65,2.65,0,0,1,2.58,2.7v2.63a.3.3,0,0,1-.29.3h-4.57a.3.3,0,0,1-.29-.3V51.22A2.65,2.65,0,0,1,229.67,48.52Z" transform="translate(0 0)"/><path class="cls-5" d="M246.21,48.5h13.22a.63.63,0,0,1,.61.63h0a.63.63,0,0,1-.61.64H246.21a.63.63,0,0,1-.61-.64h0A.62.62,0,0,1,246.21,48.5Z" transform="translate(0 0)"/><path class="cls-5" d="M242.35,48.5h-1.77a.63.63,0,0,0-.61.63h0a.63.63,0,0,0,.61.64h1.77a.63.63,0,0,0,.61-.64h0A.62.62,0,0,0,242.35,48.5Z" transform="translate(0 0)"/><path class="cls-5" d="M240.58,44.6h18.85a.63.63,0,0,1,.61.64h0a.62.62,0,0,1-.61.63H240.58a.62.62,0,0,1-.61-.63h0A.63.63,0,0,1,240.58,44.6Z" transform="translate(0 0)"/><path class="cls-5" d="M240.58,52.4h18.85A.62.62,0,0,1,260,53h0a.63.63,0,0,1-.61.64H240.58A.63.63,0,0,1,240,53h0A.62.62,0,0,1,240.58,52.4Z" transform="translate(0 0)"/><path class="cls-6" d="M270.61,56.09a7,7,0,1,0-6.65-7A6.81,6.81,0,0,0,270.61,56.09Z" transform="translate(0 0)"/><path class="cls-4" d="M273.11,51.84Zm-1.06-4.21a2,2,0,0,0-2.88,0,2.19,2.19,0,0,0,0,3,2,2,0,0,0,2.88,0,2.19,2.19,0,0,0,0-3Zm-.44-2.11a3.35,3.35,0,0,1,.8.35,3.69,3.69,0,0,1,.7.55.12.12,0,0,0,.15,0l.95-.57h0a.24.24,0,0,1,.32.09h0l.67,1.2a.25.25,0,0,1,0,.19.21.21,0,0,1-.11.15h0l-.94.57a.12.12,0,0,0-.06.14h0c0,.15.06.3.08.45s0,.31,0,.46,0,.31,0,.46-.05.31-.08.45a.13.13,0,0,0,.06.15l.94.57h0a.21.21,0,0,1,.11.15.22.22,0,0,1,0,.18l-.67,1.22h0a.21.21,0,0,1-.15.11.21.21,0,0,1-.17,0h0l-.94-.56a.14.14,0,0,0-.15,0,3.74,3.74,0,0,1-.7.56,3.35,3.35,0,0,1-.8.35.14.14,0,0,0-.1.13V54a.28.28,0,0,1-.06.18.28.28,0,0,1-.17.07h-1.34a.28.28,0,0,1-.17-.07.28.28,0,0,1-.06-.18V52.88a.15.15,0,0,0-.1-.13,3.35,3.35,0,0,1-.8-.35,3.74,3.74,0,0,1-.7-.56.13.13,0,0,0-.16,0l-.94.57a.21.21,0,0,1-.17,0,.23.23,0,0,1-.15-.11h0L266,51.09h0a.22.22,0,0,1,0-.18.24.24,0,0,1,.11-.15l.94-.57a.13.13,0,0,0,.06-.15h0c0-.14-.06-.29-.08-.45s0-.3,0-.46,0-.31,0-.46.05-.3.08-.45a.11.11,0,0,0-.06-.14l-.94-.57a.24.24,0,0,1-.11-.15.25.25,0,0,1,0-.19h0l.66-1.21h0a.23.23,0,0,1,.15-.11.21.21,0,0,1,.17,0h0l.95.57a.12.12,0,0,0,.15,0,3.69,3.69,0,0,1,.7-.55,3.84,3.84,0,0,1,.8-.36.13.13,0,0,0,.1-.12V44.25a.28.28,0,0,1,.06-.18.28.28,0,0,1,.17-.07h1.34a.28.28,0,0,1,.17.07.28.28,0,0,1,.06.18v1.14A.15.15,0,0,0,271.61,45.52Z" transform="translate(0 0)"/><rect class="cls-17" x="107.27" y="253.47" width="40.49" height="3.88"/><path class="cls-3" d="M112.26,253.81a.84.84,0,0,0,0-1.68H83.66a3.06,3.06,0,0,0-2.22,1h0a3.32,3.32,0,0,0-.92,2.31,3.36,3.36,0,0,0,.92,2.32,3.08,3.08,0,0,0,2.22,1h28.6a.84.84,0,0,0,0-1.67H111a5.77,5.77,0,0,1-.63-.58,1.82,1.82,0,0,1-.59-1.32,2,2,0,0,1,.76-1.31Z" transform="translate(0 0)"/><path class="cls-10" d="M147.76,253.81a.84.84,0,0,0,0-1.68H111.89a3.06,3.06,0,0,0-2.22,1h0a3.32,3.32,0,0,0-.92,2.31,3.36,3.36,0,0,0,.92,2.32,3.08,3.08,0,0,0,2.22,1h35.87a.84.84,0,0,0,0-1.67H111.89a1.49,1.49,0,0,1-1.08-.48,1.62,1.62,0,0,1-.45-1.13,1.66,1.66,0,0,1,.44-1.13,1.52,1.52,0,0,1,1.09-.47Z" transform="translate(0 0)"/><rect class="cls-17" x="84.91" y="246.05" width="33.95" height="4.71"/><path class="cls-7" d="M112.81,246.46a1,1,0,0,1,0-2h26.36a3.7,3.7,0,0,1,2.68,1.16h0a4.1,4.1,0,0,1,0,5.61,3.68,3.68,0,0,1-2.69,1.17H112.81a1,1,0,0,1,0-2h1.59a6.24,6.24,0,0,0,.76-.7,2.18,2.18,0,0,0,.72-1.6,2.5,2.5,0,0,0-.92-1.59Z" transform="translate(0 0)"/><path class="cls-18" d="M84.91,246.46a1,1,0,0,1,0-2h28.35a3.69,3.69,0,0,1,2.68,1.16h0a4.07,4.07,0,0,1,0,5.61,3.68,3.68,0,0,1-2.69,1.17H84.91a1,1,0,0,1,0-2h28.35a1.82,1.82,0,0,0,1.31-.57,2,2,0,0,0,0-2.75,1.81,1.81,0,0,0-1.31-.57Z" transform="translate(0 0)"/><rect class="cls-17" x="110.16" y="237.94" width="22.03" height="4.82"/><path class="cls-9" d="M116.35,238.36a1,1,0,0,0,0-2.08H100.11a3.8,3.8,0,0,0-2.75,1.2h0a4.17,4.17,0,0,0,0,5.75,3.78,3.78,0,0,0,2.75,1.19h16.24a1,1,0,0,0,0-2.08h-1.63a6.5,6.5,0,0,1-.78-.71,2.22,2.22,0,0,1-.73-1.64,2.56,2.56,0,0,1,.93-1.63Z" transform="translate(0 0)"/><path class="cls-19" d="M132.18,238.36a1,1,0,0,0,0-2.08H115.89a3.79,3.79,0,0,0-2.75,1.2h0a4.17,4.17,0,0,0,0,5.75,3.76,3.76,0,0,0,2.75,1.19h16.29a1,1,0,0,0,0-2.08H115.89a1.87,1.87,0,0,1-1.35-.58,2,2,0,0,1,0-2.81,1.88,1.88,0,0,1,1.35-.59Z" transform="translate(0 0)"/><path class="cls-6" d="M303.66,255.26H331.1a1.68,1.68,0,0,1,1.64,1.71h0a1.69,1.69,0,0,1-1.64,1.72H303.66A1.69,1.69,0,0,1,302,257h0A1.68,1.68,0,0,1,303.66,255.26Z" transform="translate(0 0)"/><path class="cls-3" d="M304.58,255.26h25.6a1,1,0,0,0,.93-1h0a1,1,0,0,0-.93-1h-25.6a.94.94,0,0,0-.92,1h0A1,1,0,0,0,304.58,255.26Z" transform="translate(0 0)"/><path class="cls-7" d="M304.64,250.07h25.48a1.59,1.59,0,0,1,1.56,1.62h0a1.6,1.6,0,0,1-1.56,1.63H304.64a1.6,1.6,0,0,1-1.55-1.63h0A1.59,1.59,0,0,1,304.64,250.07Z" transform="translate(0 0)"/><path class="cls-16" d="M305.6,251l2-2.07a.72.72,0,0,1,1.06,0l2,2.07a.8.8,0,0,1,0,1.1l-2,2.07a.72.72,0,0,1-1.06,0l-2-2.07A.8.8,0,0,1,305.6,251Z" transform="translate(0 0)"/><path class="cls-16" d="M310.24,251l2-2.07a.71.71,0,0,1,1,0l2,2.07a.8.8,0,0,1,0,1.1l-2,2.07a.71.71,0,0,1-1,0l-2-2.07A.8.8,0,0,1,310.24,251Z" transform="translate(0 0)"/><path class="cls-16" d="M314.88,251l2-2.07a.71.71,0,0,1,1.05,0l2,2.07a.8.8,0,0,1,0,1.1l-2,2.07a.71.71,0,0,1-1.05,0l-2-2.07A.78.78,0,0,1,314.88,251Z" transform="translate(0 0)"/><path class="cls-16" d="M319.51,251l2-2.07a.72.72,0,0,1,1.06,0l2,2.07a.8.8,0,0,1,0,1.1l-2,2.07a.72.72,0,0,1-1.06,0l-2-2.07A.8.8,0,0,1,319.51,251Z" transform="translate(0 0)"/><path class="cls-16" d="M324.15,251l2-2.07a.72.72,0,0,1,1.06,0l2,2.07a.8.8,0,0,1,0,1.1l-2,2.07a.72.72,0,0,1-1.06,0l-2-2.07A.8.8,0,0,1,324.15,251Z" transform="translate(0 0)"/><path class="cls-10" d="M302.48,250.07h29.73a.81.81,0,0,1,.79.82h0a.81.81,0,0,1-.79.82H302.48a.8.8,0,0,1-.79-.82h0A.8.8,0,0,1,302.48,250.07Z" transform="translate(0 0)"/><path class="cls-6" d="M333.43,247.71h0v.06h0a2.26,2.26,0,0,1-2.2,2.3h-27.7c-2.32,0-2.64-2-2-4.67a9.63,9.63,0,0,1,9.23-7.56h13.16A9.76,9.76,0,0,1,333.43,247.71Z" transform="translate(0 0)"/><path class="cls-7" d="M308.83,239.33h0a.34.34,0,0,1,0,.46l-.83.86a.29.29,0,0,1-.43,0h0a.34.34,0,0,1,0-.46l.83-.86A.31.31,0,0,1,308.83,239.33Z" transform="translate(0 0)"/><path class="cls-7" d="M312.43,239.33h0a.34.34,0,0,1,0,.46l-.82.86a.3.3,0,0,1-.44,0h0a.34.34,0,0,1,0-.46l.82-.86A.31.31,0,0,1,312.43,239.33Z" transform="translate(0 0)"/><path class="cls-7" d="M316,239.33h0a.34.34,0,0,1,0,.46l-.82.86a.3.3,0,0,1-.44,0h0a.34.34,0,0,1,0-.46l.82-.86A.31.31,0,0,1,316,239.33Z" transform="translate(0 0)"/><path class="cls-7" d="M319.63,239.33h0a.32.32,0,0,1,0,.46l-.82.86a.3.3,0,0,1-.44,0h0a.34.34,0,0,1,0-.46l.83-.86A.3.3,0,0,1,319.63,239.33Z" transform="translate(0 0)"/><path class="cls-7" d="M323.24,239.33h0a.34.34,0,0,1,0,.46l-.83.86a.29.29,0,0,1-.43,0h0a.32.32,0,0,1,0-.46l.82-.86A.31.31,0,0,1,323.24,239.33Z" transform="translate(0 0)"/><path class="cls-7" d="M326.84,239.33h0a.34.34,0,0,1,0,.46l-.82.86a.3.3,0,0,1-.44,0h0a.34.34,0,0,1,0-.46l.82-.86A.31.31,0,0,1,326.84,239.33Z" transform="translate(0 0)"/><path class="cls-7" d="M327.68,242.33h0a.34.34,0,0,0,0,.46l.82.86a.3.3,0,0,0,.44,0h0a.34.34,0,0,0,0-.46l-.82-.86A.31.31,0,0,0,327.68,242.33Z" transform="translate(0 0)"/><path class="cls-7" d="M324.08,242.33h0a.34.34,0,0,0,0,.46l.82.86a.3.3,0,0,0,.44,0h0a.34.34,0,0,0,0-.46l-.82-.86A.31.31,0,0,0,324.08,242.33Z" transform="translate(0 0)"/><path class="cls-7" d="M320.47,242.33h0a.34.34,0,0,0,0,.46l.83.86a.3.3,0,0,0,.44,0h0a.34.34,0,0,0,0-.46l-.83-.86A.31.31,0,0,0,320.47,242.33Z" transform="translate(0 0)"/><path class="cls-7" d="M316.87,242.33h0a.34.34,0,0,0,0,.46l.82.86a.3.3,0,0,0,.44,0h0a.34.34,0,0,0,0-.46l-.82-.86A.31.31,0,0,0,316.87,242.33Z" transform="translate(0 0)"/><path class="cls-7" d="M313.27,242.33h0a.34.34,0,0,0,0,.46l.82.86a.3.3,0,0,0,.44,0h0a.34.34,0,0,0,0-.46l-.82-.86A.31.31,0,0,0,313.27,242.33Z" transform="translate(0 0)"/><path class="cls-7" d="M309.67,242.33h0a.34.34,0,0,0,0,.46l.82.86a.3.3,0,0,0,.44,0h0a.34.34,0,0,0,0-.46l-.82-.86A.31.31,0,0,0,309.67,242.33Z" transform="translate(0 0)"/><path class="cls-5" d="M292,175.81h33.23a4.22,4.22,0,0,0,4.11-4.3V124.1a4.23,4.23,0,0,0-4.11-4.31H292a4.23,4.23,0,0,0-4.12,4.31v47.41A4.22,4.22,0,0,0,292,175.81Z" transform="translate(0 0)"/><path class="cls-10" d="M292.36,124H324.9a.77.77,0,0,1,.76.79h0a.78.78,0,0,1-.76.79H292.36a.78.78,0,0,1-.75-.79h0A.77.77,0,0,1,292.36,124Z" transform="translate(0 0)"/><path class="cls-10" d="M292.36,129H324.9a.78.78,0,0,1,.76.79h0a.77.77,0,0,1-.76.79H292.36a.77.77,0,0,1-.75-.79h0A.78.78,0,0,1,292.36,129Z" transform="translate(0 0)"/><path class="cls-10" d="M318.76,134.44h6.14a.77.77,0,0,1,.76.79h0a.77.77,0,0,1-.76.78h-6.14a.77.77,0,0,1-.76-.78h0A.77.77,0,0,1,318.76,134.44Z" transform="translate(0 0)"/><path class="cls-10" d="M318.76,140h6.14a.78.78,0,0,1,.76.79h0a.77.77,0,0,1-.76.79h-6.14a.77.77,0,0,1-.76-.79h0A.78.78,0,0,1,318.76,140Z" transform="translate(0 0)"/><path class="cls-10" d="M318.76,145.63h6.14a.78.78,0,0,1,.76.79h0a.77.77,0,0,1-.76.79h-6.14a.77.77,0,0,1-.76-.79h0A.78.78,0,0,1,318.76,145.63Z" transform="translate(0 0)"/><path class="cls-10" d="M318.76,151.23h6.14a.77.77,0,0,1,.76.79h0a.78.78,0,0,1-.76.79h-6.14A.78.78,0,0,1,318,152h0A.77.77,0,0,1,318.76,151.23Z" transform="translate(0 0)"/><path class="cls-10" d="M318.76,156.83h6.14a.77.77,0,0,1,.76.79h0a.78.78,0,0,1-.76.79h-6.14a.78.78,0,0,1-.76-.79h0A.77.77,0,0,1,318.76,156.83Z" transform="translate(0 0)"/><path class="cls-10" d="M318.76,162.43h6.14a.77.77,0,0,1,.76.78h0a.78.78,0,0,1-.76.79h-6.14a.78.78,0,0,1-.76-.79h0A.77.77,0,0,1,318.76,162.43Z" transform="translate(0 0)"/><path class="cls-10" d="M309.32,168H324.9a.78.78,0,0,1,.76.79h0a.77.77,0,0,1-.76.79H309.32a.77.77,0,0,1-.76-.79h0A.78.78,0,0,1,309.32,168Z" transform="translate(0 0)"/><path class="cls-10" d="M310.86,162.43h4.6a.77.77,0,0,1,.76.78h0a.78.78,0,0,1-.76.79h-4.6a.78.78,0,0,1-.75-.79h0A.77.77,0,0,1,310.86,162.43Z" transform="translate(0 0)"/><path class="cls-10" d="M312.92,156.83h2.32a.76.76,0,0,1,.75.79h0a.77.77,0,0,1-.75.79h-2.32a.78.78,0,0,1-.75-.79h0A.77.77,0,0,1,312.92,156.83Z" transform="translate(0 0)"/><path class="cls-10" d="M314.54,151.23h1.69a.77.77,0,0,1,.76.79h0a.78.78,0,0,1-.76.79h-1.69a.78.78,0,0,1-.76-.79h0A.77.77,0,0,1,314.54,151.23Z" transform="translate(0 0)"/><path class="cls-4" d="M291.61,139.56h2.92v28.52a1.49,1.49,0,0,1-1.46,1.52h0a1.49,1.49,0,0,1-1.46-1.52V139.56Z" transform="translate(0 0)"/><path class="cls-4" d="M294.53,153.34v14.74a1.49,1.49,0,0,1-1.46,1.52h0a1.49,1.49,0,0,1-1.46-1.52V153.34a.67.67,0,0,0,.65.69h1.61C294.23,154,294.53,153,294.53,153.34Z" transform="translate(0 0)"/><path class="cls-2" d="M292.76,133.76a44.45,44.45,0,0,0-1.15,5.8c.47,1.21,2.37.89,2.92,0a46.2,46.2,0,0,0-1.15-5.8A.33.33,0,0,0,292.76,133.76Z" transform="translate(0 0)"/><path class="cls-3" d="M292.76,133.76c0,.05-.15.53-.3,1.19a1.25,1.25,0,0,0,.61.15h0a1.31,1.31,0,0,0,.61-.15c-.16-.66-.28-1.14-.3-1.19A.33.33,0,0,0,292.76,133.76Z" transform="translate(0 0)"/><path class="cls-2" d="M293.87,166.49h-1.61a.67.67,0,0,1-.65-.69v1.45a.67.67,0,0,0,.65.69h1.61a.68.68,0,0,0,.66-.69V165.8A.68.68,0,0,1,293.87,166.49Z" transform="translate(0 0)"/><path class="cls-4" d="M310.81,147.42Zm-1.92-7.63a3.57,3.57,0,0,0-5.21,0,4,4,0,0,0,0,5.45,3.57,3.57,0,0,0,5.21,0,4,4,0,0,0,0-5.45Zm-.8-3.82a6.27,6.27,0,0,1,1.45.64,6.76,6.76,0,0,1,1.26,1,.22.22,0,0,0,.27,0l1.72-1h0a.38.38,0,0,1,.31,0,.44.44,0,0,1,.26.21h0l1.21,2.18a.45.45,0,0,1,0,.34.48.48,0,0,1-.2.27h0l-1.7,1a.22.22,0,0,0-.1.26h0a7.21,7.21,0,0,1,.14.81,7.55,7.55,0,0,1,.05.83,7.64,7.64,0,0,1-.19,1.65.24.24,0,0,0,.11.27l1.7,1h0a.46.46,0,0,1,.16.61l-1.21,2.19h0a.44.44,0,0,1-.26.21.4.4,0,0,1-.32-.05h0l-1.7-1a.22.22,0,0,0-.27,0,6.32,6.32,0,0,1-1.26,1,5.81,5.81,0,0,1-1.46.65.23.23,0,0,0-.16.23v2.06a.48.48,0,0,1-.13.32.39.39,0,0,1-.29.13h-2.43a.43.43,0,0,1-.3-.13.53.53,0,0,1-.12-.32v-2.06a.24.24,0,0,0-.18-.23,6.23,6.23,0,0,1-1.44-.65,6.38,6.38,0,0,1-1.27-1,.21.21,0,0,0-.28,0l-1.7,1a.37.37,0,0,1-.32.05.41.41,0,0,1-.26-.21h0l-1.2-2.18h0a.45.45,0,0,1,0-.34.44.44,0,0,1,.19-.27l1.71-1a.24.24,0,0,0,.11-.26h0a7.64,7.64,0,0,1-.19-1.65,7.55,7.55,0,0,1,.05-.83,7.21,7.21,0,0,1,.14-.81.23.23,0,0,0-.12-.27l-1.7-1a.44.44,0,0,1-.19-.27.45.45,0,0,1,0-.34h0l1.2-2.19h0a.41.41,0,0,1,.26-.21.4.4,0,0,1,.32,0h0l1.71,1a.24.24,0,0,0,.28,0,6.76,6.76,0,0,1,1.26-1,6.27,6.27,0,0,1,1.45-.64.25.25,0,0,0,.17-.23v-2.07a.48.48,0,0,1,.12-.31.43.43,0,0,1,.3-.13h2.43a.39.39,0,0,1,.29.13.44.44,0,0,1,.13.31v2.07A.23.23,0,0,0,308.09,136Z" transform="translate(0 0)"/><path class="cls-4" d="M304.68,163.08Zm-1.19-4.72a2.22,2.22,0,0,0-3.22,0,2.47,2.47,0,0,0-.67,1.69,2.43,2.43,0,0,0,.67,1.68,2.2,2.2,0,0,0,3.22,0,2.38,2.38,0,0,0,.67-1.68,2.42,2.42,0,0,0-.67-1.69ZM303,156a3.78,3.78,0,0,1,.89.4,3.93,3.93,0,0,1,.79.62.14.14,0,0,0,.16,0l1.06-.64h0a.26.26,0,0,1,.19,0,.26.26,0,0,1,.16.13h0l.74,1.35a.3.3,0,0,1,0,.21.26.26,0,0,1-.13.16h0l-1.05.63a.15.15,0,0,0-.07.16h0a4.17,4.17,0,0,1,.09.51,4.35,4.35,0,0,1,0,1,4.17,4.17,0,0,1-.09.51.15.15,0,0,0,.07.16l1.05.64h0a.26.26,0,0,1,.13.16.3.3,0,0,1,0,.21l-.75,1.36h0a.26.26,0,0,1-.16.13.29.29,0,0,1-.2,0h0l-1.06-.64a.14.14,0,0,0-.16,0,3.93,3.93,0,0,1-.79.62,4,4,0,0,1-.9.4.15.15,0,0,0-.1.14v1.28a.32.32,0,0,1-.07.19.27.27,0,0,1-.19.08h-1.5a.23.23,0,0,1-.18-.08.27.27,0,0,1-.08-.19v-1.28a.14.14,0,0,0-.11-.14,4.18,4.18,0,0,1-.89-.4,3.93,3.93,0,0,1-.79-.62.14.14,0,0,0-.17,0l-1.05.64a.28.28,0,0,1-.2,0,.29.29,0,0,1-.16-.13h0l-.75-1.35h0a.26.26,0,0,1,0-.21.21.21,0,0,1,.12-.16l1-.64a.14.14,0,0,0,.07-.16h0a4.17,4.17,0,0,1-.09-.51,4.35,4.35,0,0,1,0-1A4.17,4.17,0,0,1,298,159a.14.14,0,0,0-.07-.16l-1-.64a.21.21,0,0,1-.12-.16.26.26,0,0,1,0-.21h0l.75-1.35h0a.29.29,0,0,1,.16-.13.24.24,0,0,1,.2,0h0l1.06.64a.14.14,0,0,0,.17,0,3.9,3.9,0,0,1,.78-.61,4,4,0,0,1,.9-.4.15.15,0,0,0,.1-.14v-1.28a.27.27,0,0,1,.08-.19.23.23,0,0,1,.18-.08h1.5a.27.27,0,0,1,.19.08.32.32,0,0,1,.07.19v1.28A.14.14,0,0,0,303,156Z" transform="translate(0 0)"/><path class="cls-4" d="M137.22,112.58H149.8a1.53,1.53,0,0,1,1.49,1.56v13.15a1.53,1.53,0,0,1-1.49,1.56H137.22a1.53,1.53,0,0,1-1.49-1.56V114.14A1.53,1.53,0,0,1,137.22,112.58Z" transform="translate(0 0)"/><path class="cls-4" d="M137.22,134.35H149.8a1.53,1.53,0,0,1,1.49,1.55v13.15a1.53,1.53,0,0,1-1.49,1.56H137.22a1.53,1.53,0,0,1-1.49-1.56V135.9A1.53,1.53,0,0,1,137.22,134.35Z" transform="translate(0 0)"/><path class="cls-5" d="M135.24,110.23h12.58a1.92,1.92,0,0,1,1.39.6l0,0a2.11,2.11,0,0,1,.55,1.42v13.16a2.08,2.08,0,0,1-.58,1.45,1.92,1.92,0,0,1-1.39.6H135.24a1.94,1.94,0,0,1-1.39-.6l0,0a2.09,2.09,0,0,1-.55-1.42V112.28a2.14,2.14,0,0,1,.57-1.45,1.94,1.94,0,0,1,1.39-.6Zm12.58,1H135.24a1,1,0,0,0-.71.31,1.08,1.08,0,0,0-.3.74v13.16a1.08,1.08,0,0,0,.28.72l0,0a1,1,0,0,0,.71.31h12.58a1,1,0,0,0,.71-.31,1,1,0,0,0,.3-.74V112.28a1.07,1.07,0,0,0-.27-.72l0,0A1,1,0,0,0,147.82,111.23Z" transform="translate(0 0)"/><path class="cls-5" d="M135.24,132h12.58a1.92,1.92,0,0,1,1.39.6l0,0a2.09,2.09,0,0,1,.55,1.42V147.2a2.08,2.08,0,0,1-.58,1.45,1.92,1.92,0,0,1-1.39.6H135.24a1.94,1.94,0,0,1-1.39-.6l0,0a2.09,2.09,0,0,1-.55-1.42V134.05a2.1,2.1,0,0,1,.57-1.45,1.91,1.91,0,0,1,1.39-.61Zm12.58,1H135.24a1,1,0,0,0-.71.31,1.1,1.1,0,0,0-.3.75V147.2a1.08,1.08,0,0,0,.28.72l0,0a1,1,0,0,0,.71.31h12.58a1,1,0,0,0,.71-.31,1,1,0,0,0,.3-.74V134.05a1.09,1.09,0,0,0-.27-.73l0,0A1,1,0,0,0,147.82,133Z" transform="translate(0 0)"/><path class="cls-6" d="M137,137.19a.9.9,0,0,1,0-1.23.8.8,0,0,1,1.18,0l3.35,3.44,3.29-3.5a.81.81,0,0,1,1.18,0,.9.9,0,0,1,0,1.23l-3.3,3.5,3.35,3.44a.91.91,0,0,1,0,1.24.81.81,0,0,1-1.18,0l-3.35-3.44-3.29,3.5a.82.82,0,0,1-1.18,0,.91.91,0,0,1,0-1.24l3.29-3.5Z" transform="translate(0 0)"/><path class="cls-16" d="M137.48,119.82a.89.89,0,0,1,0-1.23.8.8,0,0,1,1.18,0l1.75,1.75,4-4.76a.81.81,0,0,1,1.18-.08.91.91,0,0,1,.08,1.23l-4.6,5.48a.81.81,0,0,1-1.18,0Z" transform="translate(0 0)"/><path class="cls-5" d="M117.54,104.41h-2.63a1.17,1.17,0,0,1-1.15-1.2v-2.75a1.18,1.18,0,0,1,1.15-1.21h2.63a1.19,1.19,0,0,1,1.15,1.21v2.75A1.18,1.18,0,0,1,117.54,104.41Z" transform="translate(0 0)"/><path class="cls-5" d="M108.41,104.41h-2.63a1.18,1.18,0,0,1-1.15-1.2v-2.75a1.19,1.19,0,0,1,1.15-1.21h2.63a1.19,1.19,0,0,1,1.15,1.21v2.75A1.18,1.18,0,0,1,108.41,104.41Z" transform="translate(0 0)"/><path class="cls-5" d="M99.29,104.41H96.65a1.18,1.18,0,0,1-1.15-1.2v-2.75a1.19,1.19,0,0,1,1.15-1.21h2.64a1.19,1.19,0,0,1,1.15,1.21v2.75A1.18,1.18,0,0,1,99.29,104.41Z" transform="translate(0 0)"/><path class="cls-5" d="M90.16,104.41H87.53a1.17,1.17,0,0,1-1.15-1.2v-2.75a1.18,1.18,0,0,1,1.15-1.21h2.63a1.19,1.19,0,0,1,1.15,1.21v2.75A1.18,1.18,0,0,1,90.16,104.41Z" transform="translate(0 0)"/><path class="cls-5" d="M81,104.41H78.4a1.18,1.18,0,0,1-1.15-1.2v-2.75a1.19,1.19,0,0,1,1.15-1.21H81a1.18,1.18,0,0,1,1.15,1.21v2.75A1.17,1.17,0,0,1,81,104.41Z" transform="translate(0 0)"/><path class="cls-5" d="M71.91,104.41H69.27a1.18,1.18,0,0,1-1.15-1.2v-2.75a1.19,1.19,0,0,1,1.15-1.21h2.64a1.19,1.19,0,0,1,1.15,1.21v2.75A1.18,1.18,0,0,1,71.91,104.41Z" transform="translate(0 0)"/><path class="cls-5" d="M99,94H96.32a1.18,1.18,0,0,1-1.15-1.2V90.05a1.18,1.18,0,0,1,1.15-1.2H99a1.18,1.18,0,0,1,1.16,1.2v2.76A1.18,1.18,0,0,1,99,94Z" transform="translate(0 0)"/><path class="cls-5" d="M89.83,94H87.2a1.17,1.17,0,0,1-1.15-1.2V90.05a1.17,1.17,0,0,1,1.15-1.2h2.63A1.18,1.18,0,0,1,91,90.05v2.76A1.18,1.18,0,0,1,89.83,94Z" transform="translate(0 0)"/><path class="cls-5" d="M80.7,94H78.07a1.18,1.18,0,0,1-1.15-1.2V90.05a1.18,1.18,0,0,1,1.15-1.2H80.7a1.17,1.17,0,0,1,1.15,1.2v2.76A1.17,1.17,0,0,1,80.7,94Z" transform="translate(0 0)"/><path class="cls-5" d="M90.16,115.59H87.53a1.18,1.18,0,0,1-1.15-1.21v-2.75a1.17,1.17,0,0,1,1.15-1.2h2.63a1.18,1.18,0,0,1,1.15,1.2v2.75A1.18,1.18,0,0,1,90.16,115.59Z" transform="translate(0 0)"/><path class="cls-5" d="M81,115.59H78.4a1.18,1.18,0,0,1-1.15-1.21v-2.75a1.18,1.18,0,0,1,1.15-1.2H81a1.17,1.17,0,0,1,1.15,1.2v2.75A1.18,1.18,0,0,1,81,115.59Z" transform="translate(0 0)"/><path class="cls-5" d="M278.8,84.06h-2.63A1.18,1.18,0,0,1,275,82.85V80.1a1.18,1.18,0,0,1,1.15-1.2h2.63A1.18,1.18,0,0,1,280,80.1v2.75A1.18,1.18,0,0,1,278.8,84.06Z" transform="translate(0 0)"/><path class="cls-5" d="M269.68,84.06H267a1.18,1.18,0,0,1-1.15-1.21V80.1A1.18,1.18,0,0,1,267,78.9h2.64a1.18,1.18,0,0,1,1.15,1.2v2.75A1.18,1.18,0,0,1,269.68,84.06Z" transform="translate(0 0)"/><path class="cls-5" d="M260.55,84.06h-2.63a1.18,1.18,0,0,1-1.15-1.21V80.1a1.17,1.17,0,0,1,1.15-1.2h2.63a1.18,1.18,0,0,1,1.15,1.2v2.75A1.18,1.18,0,0,1,260.55,84.06Z" transform="translate(0 0)"/><path class="cls-5" d="M251.42,84.06h-2.63a1.18,1.18,0,0,1-1.15-1.21V80.1a1.18,1.18,0,0,1,1.15-1.2h2.63a1.17,1.17,0,0,1,1.15,1.2v2.75A1.18,1.18,0,0,1,251.42,84.06Z" transform="translate(0 0)"/><path class="cls-5" d="M242.3,84.06h-2.64a1.18,1.18,0,0,1-1.15-1.21V80.1a1.18,1.18,0,0,1,1.15-1.2h2.64a1.18,1.18,0,0,1,1.15,1.2v2.75A1.18,1.18,0,0,1,242.3,84.06Z" transform="translate(0 0)"/><path class="cls-5" d="M269.34,73.65h-2.63a1.18,1.18,0,0,1-1.15-1.2V69.7a1.18,1.18,0,0,1,1.15-1.2h2.63a1.18,1.18,0,0,1,1.16,1.2v2.75A1.18,1.18,0,0,1,269.34,73.65Z" transform="translate(0 0)"/><path class="cls-5" d="M260.22,73.65h-2.63a1.17,1.17,0,0,1-1.15-1.2V69.7a1.17,1.17,0,0,1,1.15-1.2h2.63a1.18,1.18,0,0,1,1.15,1.2v2.75A1.18,1.18,0,0,1,260.22,73.65Z" transform="translate(0 0)"/><path class="cls-5" d="M251.09,73.65h-2.63a1.18,1.18,0,0,1-1.15-1.2V69.7a1.18,1.18,0,0,1,1.15-1.2h2.63a1.17,1.17,0,0,1,1.15,1.2v2.75A1.17,1.17,0,0,1,251.09,73.65Z" transform="translate(0 0)"/><path class="cls-5" d="M260.55,95.23h-2.63a1.17,1.17,0,0,1-1.15-1.2V91.28a1.18,1.18,0,0,1,1.15-1.21h2.63a1.18,1.18,0,0,1,1.15,1.21V94A1.18,1.18,0,0,1,260.55,95.23Z" transform="translate(0 0)"/><path class="cls-5" d="M251.42,95.23h-2.63a1.18,1.18,0,0,1-1.15-1.2V91.28a1.18,1.18,0,0,1,1.15-1.21h2.63a1.18,1.18,0,0,1,1.15,1.21V94A1.17,1.17,0,0,1,251.42,95.23Z" transform="translate(0 0)"/><path class="cls-4" d="M96.07,54.2a.72.72,0,1,1,1.43,0v3.36a.72.72,0,1,1-1.43,0V54.2Zm-4.88,2.73a.77.77,0,0,1,0-1.06.71.71,0,0,1,1,0l2.27,2.38a.77.77,0,0,1,0,1.06.7.7,0,0,1-1,0l-2.28-2.38Zm-1.6,5.53a.75.75,0,0,1,0-1.49h3.22a.75.75,0,0,1,0,1.49Zm2.62,5.1a.71.71,0,0,1-1,0,.77.77,0,0,1,0-1.06l2.28-2.38a.7.7,0,0,1,1,0,.77.77,0,0,1,0,1.06l-2.27,2.38Zm5.29,1.68a.72.72,0,1,1-1.43,0V65.87a.72.72,0,1,1,1.43,0v3.37Zm4.88-2.74a.77.77,0,0,1,0,1.06.71.71,0,0,1-1,0l-2.27-2.38a.77.77,0,0,1,0-1.06.7.7,0,0,1,1,0l2.28,2.38ZM104,61a.75.75,0,0,1,0,1.49h-3.22a.75.75,0,0,1,0-1.49Zm-2.62-5.1a.71.71,0,0,1,1,0,.77.77,0,0,1,0,1.06l-2.28,2.38a.7.7,0,0,1-1,0,.77.77,0,0,1,0-1.06Z" transform="translate(0 0)"/><path class="cls-4" d="M122,211.11a.72.72,0,1,1,1.43,0v3.36a.72.72,0,1,1-1.43,0v-3.36Zm-4.88,2.73a.77.77,0,0,1,0-1.06.71.71,0,0,1,1,0l2.27,2.38a.77.77,0,0,1,0,1.06.7.7,0,0,1-1,0l-2.28-2.38Zm-1.6,5.54a.75.75,0,0,1,0-1.5h3.22a.75.75,0,0,1,0,1.5Zm2.62,5.09a.69.69,0,0,1-1,0,.76.76,0,0,1,0-1.05l2.28-2.38a.7.7,0,0,1,1,0,.77.77,0,0,1,0,1.06l-2.27,2.37Zm5.29,1.68a.72.72,0,1,1-1.43,0v-3.37a.72.72,0,1,1,1.43,0v3.37Zm4.88-2.73a.76.76,0,0,1,0,1.05.69.69,0,0,1-1,0l-2.27-2.37a.77.77,0,0,1,0-1.06.7.7,0,0,1,1,0l2.28,2.38Zm1.6-5.54a.75.75,0,0,1,0,1.5h-3.22a.75.75,0,0,1,0-1.5Zm-2.62-5.1a.71.71,0,0,1,1,0,.77.77,0,0,1,0,1.06l-2.28,2.38a.7.7,0,0,1-1,0,.77.77,0,0,1,0-1.06Z" transform="translate(0 0)"/><path class="cls-4" d="M344.3,115.26a.72.72,0,1,1,1.44,0v3.37a.72.72,0,1,1-1.44,0v-3.37ZM339.43,118a.77.77,0,0,1,0-1.06.7.7,0,0,1,1,0l2.28,2.38a.78.78,0,0,1,0,1.05.69.69,0,0,1-1,0L339.43,118Zm-1.6,5.53a.75.75,0,0,1,0-1.49h3.22a.75.75,0,0,1,0,1.49Zm2.61,5.1a.7.7,0,0,1-1,0,.77.77,0,0,1,0-1.06l2.27-2.38a.71.71,0,0,1,1,0,.79.79,0,0,1,0,1.06l-2.28,2.38Zm5.3,1.67a.72.72,0,1,1-1.44,0v-3.36a.72.72,0,1,1,1.44,0v3.36Zm4.87-2.73a.77.77,0,0,1,0,1.06.7.7,0,0,1-1,0l-2.28-2.38a.77.77,0,0,1,0-1.06.71.71,0,0,1,1,0l2.27,2.38Zm1.6-5.53a.75.75,0,0,1,0,1.49H349a.75.75,0,0,1,0-1.49Zm-2.61-5.1a.7.7,0,0,1,1,0,.77.77,0,0,1,0,1.06l-2.27,2.37a.69.69,0,0,1-1,0,.76.76,0,0,1,0-1.05Z" transform="translate(0 0)"/><path class="cls-4" d="M67.91,172.39v1.21h1.16a.91.91,0,0,1,.89.92h0a.91.91,0,0,1-.89.92H67.91v1.22a.9.9,0,0,1-.88.92h0a.91.91,0,0,1-.88-.92v-1.22H65a.9.9,0,0,1-.88-.92h0a.9.9,0,0,1,.88-.92h1.16v-1.21a.9.9,0,0,1,.88-.92h0A.9.9,0,0,1,67.91,172.39Z" transform="translate(0 0)"/><path class="cls-4" d="M165.26,128.28v1.22h1.16a.9.9,0,0,1,.88.92h0a.9.9,0,0,1-.88.92h-1.16v1.21a.9.9,0,0,1-.88.92h0a.9.9,0,0,1-.88-.92v-1.21h-1.16a.9.9,0,0,1-.88-.92h0a.9.9,0,0,1,.88-.92h1.16v-1.22a.91.91,0,0,1,.88-.92h0A.91.91,0,0,1,165.26,128.28Z" transform="translate(0 0)"/><path class="cls-4" d="M179,44.16v1.37h1.31a1,1,0,0,1,1,1h0a1,1,0,0,1-1,1H179V49a1,1,0,0,1-1,1h0a1,1,0,0,1-1-1V47.6h-1.31a1,1,0,0,1-1-1h0a1,1,0,0,1,1-1H177V44.16a1,1,0,0,1,1-1h0A1,1,0,0,1,179,44.16Z" transform="translate(0 0)"/><path class="cls-4" d="M348.5,171.39v1.36h1.3a1,1,0,0,1,1,1h0a1,1,0,0,1-1,1h-1.3v1.36a1,1,0,0,1-1,1h0a1,1,0,0,1-1-1v-1.36H345.2a1,1,0,0,1-1-1h0a1,1,0,0,1,1-1h1.31v-1.36a1,1,0,0,1,1-1h0A1,1,0,0,1,348.5,171.39Z" transform="translate(0 0)"/><path class="cls-4" d="M313.62,215.49v1.37h1.3a1,1,0,0,1,1,1h0a1,1,0,0,1-1,1h-1.3v1.37a1,1,0,0,1-1,1h0a1,1,0,0,1-1-1v-1.37h-1.31a1,1,0,0,1-1-1h0a1,1,0,0,1,1-1h1.31v-1.37a1,1,0,0,1,1-1h0A1,1,0,0,1,313.62,215.49Z" transform="translate(0 0)"/></g></svg>