<svg xmlns="http://www.w3.org/2000/svg" viewBox="0 0 351.77 247.19"><defs><style>.cls-1,.cls-12{fill:#d6d6f9;}.cls-1,.cls-10,.cls-11,.cls-14,.cls-16,.cls-18,.cls-19,.cls-2,.cls-3,.cls-4,.cls-5,.cls-6,.cls-7,.cls-8,.cls-9{fill-rule:evenodd;}.cls-2{fill:#484d9b;}.cls-15,.cls-3{fill:#fff;}.cls-4{fill:#9c9dcc;}.cls-5{fill:#de9396;}.cls-6{fill:#df6162;}.cls-7{fill:#1d135c;}.cls-8{fill:#100843;}.cls-9{fill:#606ce6;}.cls-10{fill:#cf4a60;}.cls-11{fill:#e7b7b9;}.cls-13{fill:#100c4c;}.cls-14{fill:#eaebf5;}.cls-16{fill:#edbd54;}.cls-17{fill:#fbfdff;}.cls-18{fill:#b64443;}.cls-19{fill:#282564;}</style></defs><g id="Layer_2" data-name="Layer 2"><g id="OBJECTS"><path class="cls-1" d="M49.77,0C23.19,0,1.44,22.74,1.44,50.53h0c0,27.8,21.75,50.54,48.33,50.54h0a10,10,0,0,1,9.7,10.14h0a10,10,0,0,1-9.7,10.14H24.48C11.51,121.35.9,132.45.9,146h0c0,13.56,10.61,24.65,23.58,24.65,11.22,0,20.39,9.59,20.39,21.32h0c0,21.4,16.75,38.9,37.21,38.9H300.49c26.59,0,48.34-22.74,48.34-50.53h0c0-27.8-21.75-50.54-48.34-50.54h-4.67a10,10,0,0,1-9.7-10.14h0a10,10,0,0,1,9.7-10.14h31.47c13,0,23.58-11.1,23.58-24.66h0c0-13.54-10.59-24.62-23.53-24.65H302c-11.21,0-20.39-9.59-20.39-21.32h0c0-21.39-16.74-38.9-37.2-38.9Z"/><path class="cls-2" d="M240.94,28.4a14.1,14.1,0,0,1,20.56,0,15.72,15.72,0,0,1,0,21.5,14.1,14.1,0,0,1-20.56,0,15.69,15.69,0,0,1,0-21.5Zm10.28-2.27a12.15,12.15,0,0,0-8.81,3.81,13.44,13.44,0,0,0,0,18.42,12.08,12.08,0,0,0,17.61,0,13.44,13.44,0,0,0,0-18.42A12.15,12.15,0,0,0,251.22,26.13Z"/><path class="cls-2" d="M260,49.9a1.14,1.14,0,0,1,0-1.54,1,1,0,0,1,1.48,0l3.44,3.6a1.14,1.14,0,0,1,0,1.54,1,1,0,0,1-1.48,0Z"/><path class="cls-2" d="M263.61,55.18a2.24,2.24,0,0,1,0-3.08,2,2,0,0,1,2.94,0l15.87,16.6a2.24,2.24,0,0,1,0,3.08,2,2,0,0,1-2.94,0Z"/><path class="cls-3" d="M258,32a.69.69,0,0,1,0-1,.61.61,0,0,1,.91,0,11.44,11.44,0,0,1,2.36,3.69,11.69,11.69,0,0,1,.83,4.36h0a12.09,12.09,0,0,1-.42,3.16.64.64,0,0,1-.8.46.67.67,0,0,1-.45-.83,10.53,10.53,0,0,0,.37-2.79h0a10.6,10.6,0,0,0-.73-3.84A10.07,10.07,0,0,0,258,32Zm1.29,12.51a.63.63,0,0,1,.89-.2.71.71,0,0,1,.2.94c-.21.33-.44.66-.69,1a10,10,0,0,1-.78.92.63.63,0,0,1-.91,0,.69.69,0,0,1,0-1c.25-.27.48-.54.69-.8s.41-.57.6-.88Zm-14.86,1.68a.71.71,0,0,1,0,1,.64.64,0,0,1-.92,0,11.37,11.37,0,0,1-2.36-3.7,11.69,11.69,0,0,1-.83-4.36,12.18,12.18,0,0,1,.18-2.08,12,12,0,0,1,.54-2,.64.64,0,0,1,.84-.39.68.68,0,0,1,.37.87,11,11,0,0,0-.48,1.77,11.24,11.24,0,0,0-.16,1.84,10.57,10.57,0,0,0,.73,3.85,10,10,0,0,0,2.09,3.25Zm-1-13a.63.63,0,0,1-.9.15.69.69,0,0,1-.15-.94q.26-.37.54-.72l0,0c.2-.24.39-.45.57-.64a.62.62,0,0,1,.92,0,.71.71,0,0,1,0,1c-.2.2-.36.39-.51.56l0,0C243.7,32.84,243.54,33.05,243.4,33.26Z"/><path class="cls-4" d="M254.35,43.7a.67.67,0,0,0-.23.89.61.61,0,0,0,.86.24,6.52,6.52,0,0,0,2.31-2.41,6.83,6.83,0,0,0,.84-3.28,6.7,6.7,0,0,0-1.85-4.65,6.08,6.08,0,0,0-8.89,0,6.7,6.7,0,0,0-1.85,4.65.63.63,0,1,0,1.26,0,5.38,5.38,0,0,1,1.48-3.72,4.87,4.87,0,0,1,7.11,0,5.38,5.38,0,0,1,1.48,3.72,5.49,5.49,0,0,1-.67,2.63A5.27,5.27,0,0,1,254.35,43.7Z"/><path class="cls-4" d="M301.76,157.68a24.26,24.26,0,0,1,9.63,2,25.24,25.24,0,0,1,8.18,5.72,26.55,26.55,0,0,1,5.46,8.55,27.47,27.47,0,0,1,0,20.13,26.55,26.55,0,0,1-5.46,8.55,25.24,25.24,0,0,1-8.18,5.72,24.3,24.3,0,0,1-19.26,0,25.14,25.14,0,0,1-8.18-5.72,26.41,26.41,0,0,1-5.47-8.55,27.61,27.61,0,0,1,0-20.13,26.41,26.41,0,0,1,5.47-8.55,25.14,25.14,0,0,1,8.18-5.72,24.26,24.26,0,0,1,9.63-2Zm9.26,2.91a23.43,23.43,0,0,0-18.53,0,24.26,24.26,0,0,0-7.86,5.51,25.15,25.15,0,0,0-5.26,8.22,26.41,26.41,0,0,0,0,19.37,25.15,25.15,0,0,0,5.26,8.22,24.26,24.26,0,0,0,7.86,5.51,23.43,23.43,0,0,0,18.53,0,24.4,24.4,0,0,0,7.87-5.51,25.48,25.48,0,0,0,5.26-8.22,26.54,26.54,0,0,0,0-19.37,25.48,25.48,0,0,0-5.26-8.22A24.4,24.4,0,0,0,311,160.59Z"/><path class="cls-5" d="M230.79,69.23s12.62-22.72,17.73-31.16c2.24-3.7,5.65-2.66,3.55,2.27-1.16,2.72-5.23,9.45-5.23,9.45,5.71.58,7.59,7.81,6,10.76-.76,1.45-5.39,5.59-6.5,6.34S240.52,74,240.52,74Z"/><path class="cls-6" d="M240.13,52.58c1.31-2.32,2.63-4.64,3.88-6.81l1.33.16A5.31,5.31,0,0,0,250,44.38c-1.49,2.69-3.14,5.41-3.14,5.41a6.54,6.54,0,0,1,2.4.72,22.94,22.94,0,0,1-7.82,2A5.7,5.7,0,0,1,240.13,52.58Z"/><path class="cls-6" d="M238.17,56.05l2.74-4.84c1.9-.5,4.14-1,6.28-1.37,5.43.83,7.21,7.82,5.7,10.71a26,26,0,0,1-4.1,4.34C244.15,63.51,240.38,59.19,238.17,56.05Z"/><path class="cls-5" d="M251.76,54.16c2.24,1.33,3.8,2.62,2.33,5.74s-4.67,2.86-4.61,1.68,2.68-5.41,2.68-5.41S248.73,53.81,251.76,54.16Z"/><path class="cls-5" d="M249.88,52.2c3.58-.74,3.67,2.12,2,5.61s-4.16,3.78-5.13,2.24,2.9-5.71,2.9-5.71S246.5,51.8,249.88,52.2Z"/><path class="cls-5" d="M250,54.83c-1.64,3.49-4,3.58-4.93,2s2.9-5.71,2.9-5.71-1.1-1.06-.87-1.75c.53-1.67,4.1-1.78,4.24,1.33A10.44,10.44,0,0,1,250,54.83Z"/><path class="cls-5" d="M234.46,64.48c-2.32-6.37.1-15.47,2.71-15.26s11-.66,11.26,1.71-8.65,3.84-8.65,3.84,6.09,7.48,2.32,9.61S234.36,66.6,234.46,64.48Z"/><path class="cls-7" d="M163.4,109.14s33.61-2.49,35.13-2.7,2.67-.71,6-4.56,27.43-38.44,27.43-38.44c.82-1.37,14.39,7.67,12.32,13-1,2.6-26.57,43.54-26.57,43.54s-5,9.23-13.08,12.83-27,13.36-27,13.36Z"/><path class="cls-2" d="M186.91,107.37l6-.46c7.48,4.23,15.79,12.56,8.59,27.31-1.39.66-2.93,1.39-4.52,2.17,11.2-18-2.87-26.18-10.06-29Zm8.06-.63c7.25,3.66,16.63,11.7,7.54,27l2.1-1a21.67,21.67,0,0,0,2.34-1.23c6-13.11-.32-21-7.09-25.46a5.45,5.45,0,0,1-1.33.35C198.25,106.47,196.94,106.59,195,106.74Z"/><path class="cls-7" d="M164.06,109.57c29.06,5.27,29.6,40.43,25.29,70.64-.93,15,.71,37.87-.86,44.24a9.23,9.23,0,0,1-1.24,2.32l-33.73,1.14H115.73a9,9,0,0,1-1.23-2.33c-1.58-6.37,1.7-39.31.77-54.28l-2.7-50.2L143,109.57Z"/><path class="cls-6" d="M174.78,74.13l.47.09h0A6.83,6.83,0,0,1,174,87.66,6.64,6.64,0,0,1,167.42,81a6.94,6.94,0,0,1,2.41-5.42c-.16,2,.14,4.49,2.59,4.74l-.07-3.92A2.28,2.28,0,0,1,174.78,74.13Z"/><path class="cls-6" d="M130.51,74.13l-.48.09h0a6.83,6.83,0,0,0,1.21,13.44A6.64,6.64,0,0,0,137.86,81a6.91,6.91,0,0,0-2.41-5.42c.17,2-.14,4.49-2.59,4.74l.07-3.92A2.27,2.27,0,0,0,130.51,74.13Z"/><polygon class="cls-8" points="178.32 57.88 176.2 78.13 171.78 59.05 178.32 57.88"/><path class="cls-4" d="M164.06,109.09a23.79,23.79,0,0,1,2.92-.21c2.89,10.59-2.78,18.37-13.46,18.37-7.91,0-14.37-6.76-14.37-15V111l3.84-1.45Z"/><path class="cls-9" d="M221.77,233.29H146.89a5.29,5.29,0,0,1-5.15-5.38h0a5.29,5.29,0,0,1,5.15-5.38h74.88a5.29,5.29,0,0,1,5.15,5.38h0A5.29,5.29,0,0,1,221.77,233.29Z"/><path class="cls-2" d="M147.12,233.29H113.39a5.29,5.29,0,0,1-5.15-5.38h0a5.29,5.29,0,0,1,5.15-5.38h33.73a5.28,5.28,0,0,1,5.14,5.38h0A5.28,5.28,0,0,1,147.12,233.29Z"/><path class="cls-5" d="M153.52,86.63h0a10.82,10.82,0,0,0-10.53,11v14.57a10.82,10.82,0,0,0,10.53,11h0a10.82,10.82,0,0,0,10.54-11V97.65A10.82,10.82,0,0,0,153.52,86.63Z"/><path class="cls-6" d="M143,96.7c0,.32,0,.63,0,1v14.57a11.18,11.18,0,0,0,.67,3.86l20.4-9.54V98.35c-3.76-.72-12.86-1.7-13.39-2.17C150.33,95.89,146.56,96.27,143,96.7Z"/><path class="cls-5" d="M176.19,63.09c0,.12,0,.24,0,.37V84.61c0,12.79-10,23.26-22.25,23.26h0c-12.23,0-22.24-10.47-22.24-23.26V63.46a19.08,19.08,0,0,1,.65-5.56c2.4-10.13,11.19-17.7,21.59-17.7h0C166.07,40.2,176,50.47,176.19,63.09Z"/><path class="cls-6" d="M176.19,63.09v.23l-13.56-5.77-5.8,3.54-7.48-2.16a2.06,2.06,0,0,1-2.08,1l-7.87-3,1-11.92a23.22,23.22,0,0,1,3.65-2.4l23.65,2.53A23.64,23.64,0,0,1,176.19,63.09Z"/><path class="cls-8" d="M151.24,85.79A5.92,5.92,0,0,0,156.77,92a5.85,5.85,0,0,0,6-5.77h0a1,1,0,0,0-.95-1.08l-9.5-.39a1,1,0,0,0-1,1Z"/><path class="cls-10" d="M153.21,90.56a5.56,5.56,0,0,0,6.63.7,3.78,3.78,0,0,0-6.63-.7Z"/><path class="cls-3" d="M161.91,85.2,153,84.84a2.17,2.17,0,0,0,.89,2.34c.8.31,7.27.4,7.74-.12A3.67,3.67,0,0,0,161.91,85.2Z"/><path class="cls-6" d="M144.6,80.62a3.06,3.06,0,1,1-2.87,3.12A3,3,0,0,1,144.6,80.62Z"/><path class="cls-6" d="M168.9,80.12A3.06,3.06,0,1,1,166,83.24,3,3,0,0,1,168.9,80.12Z"/><path class="cls-8" d="M170.13,70.09a.77.77,0,0,0,1.06-.36.86.86,0,0,0-.35-1.11,7.11,7.11,0,0,0-7,0,.85.85,0,0,0-.27,1.13.76.76,0,0,0,1.08.28A5.58,5.58,0,0,1,170.13,70.09Z"/><path class="cls-8" d="M165.33,76.88a2.22,2.22,0,0,1,.6-1.52,2,2,0,0,1,1.46-.63,2,2,0,0,1,1.45.63,2.18,2.18,0,0,1,.61,1.52.79.79,0,1,0,1.58,0A3.86,3.86,0,0,0,170,74.19a3.52,3.52,0,0,0-2.57-1.12,3.56,3.56,0,0,0-2.58,1.12,3.89,3.89,0,0,0-1.06,2.69.79.79,0,1,0,1.58,0Z"/><path class="cls-11" d="M160,78.74a11.73,11.73,0,0,1,1.58,2.74c.11.75-1.49,1.18-2.59.86-.78-.22-.66-2-.43-3.2S159.1,77.5,160,78.74Z"/><path class="cls-8" d="M149.42,70.09a.77.77,0,0,0,1.06-.36.86.86,0,0,0-.35-1.11,7.11,7.11,0,0,0-6.95,0,.85.85,0,0,0-.27,1.13.76.76,0,0,0,1.08.28A5.58,5.58,0,0,1,149.42,70.09Z"/><path class="cls-8" d="M144.62,76.88a2.22,2.22,0,0,1,.6-1.52,2,2,0,0,1,1.46-.63,2,2,0,0,1,1.45.63,2.18,2.18,0,0,1,.61,1.52.79.79,0,1,0,1.58,0,3.86,3.86,0,0,0-1.07-2.69,3.52,3.52,0,0,0-2.57-1.12,3.56,3.56,0,0,0-2.58,1.12A3.89,3.89,0,0,0,143,76.88a.79.79,0,1,0,1.58,0Z"/><path class="cls-8" d="M131.71,81.5a15.52,15.52,0,0,0,2.58-13.71s8.63-4.91,8.63-12.34c0,0,1,2.57,2.73,3.2s2.57-1.77,1.75-2.86c0,0,6.29,4.8,11.48,5.89s6.72-4.4,4.59-6.35c0,0,8.36,6.12,13.72,4.63s8.52-23.31-9.84-28.11-29.95.23-33.88,3S127,45,129.75,50a17.05,17.05,0,0,0-4.15,8.11c-.88,4.8,2.57,16.82,2.57,16.82S131.71,75.33,131.71,81.5Z"/><path class="cls-7" d="M178.72,40h0c-22.46,8-33.89-1.23-39-8.15a29.05,29.05,0,0,0-4.1,1.71c12.28,21,32.37,20.59,45.68,17.3A19.58,19.58,0,0,0,178.72,40Z"/><path class="cls-6" d="M139.27,148.87a19.47,19.47,0,0,0,2.56,3.23c.95.91,9.53,4.11,9.53,4.11a2.87,2.87,0,0,1-2.52,2H143.9c-1.62,0-2.86,5.51-8.75,8-4.47,1.87-2.7-11.05-1.59-17.37Z"/><path class="cls-3" d="M157.57,117.89H143.4a2.09,2.09,0,0,0-2,2.14v34.34a2.09,2.09,0,0,0,2,2.13h14.17a2.09,2.09,0,0,0,2-2.13V120A2.1,2.1,0,0,0,157.57,117.89Z"/><rect class="cls-12" x="141.36" y="122.1" width="18.25" height="0.74"/><rect class="cls-12" x="141.36" y="151.56" width="18.25" height="0.74"/><path class="cls-6" d="M140.81,128.88a3.07,3.07,0,0,1,.82,2.15c.08,1.53-.91,3.07-1.29,4.08l-1.43,5.09s-.67,7.07-.79,7.32a6.49,6.49,0,0,0,1.25,1.78l-5.68.57c.17-2,.33-3.39.33-3.39l-.62-3.59s1.88-5.49,2.62-7.21S140.44,128.56,140.81,128.88Z"/><path class="cls-1" d="M150.48,131.05a3.19,3.19,0,1,0-3-3.19A3.13,3.13,0,0,0,150.48,131.05Z"/><path class="cls-5" d="M129.05,179.86s3.93-7.51,5-9.09a14.75,14.75,0,0,0,2.52-8.27c0-3.87-.62-5.8,1-7a13.1,13.1,0,0,1,3.76-1.88l3.9.15c.64,0,3.59.88,4.29.85a1.75,1.75,0,0,0,1.48-1.12c.12-.47.12-.76-.92-1.17a36.28,36.28,0,0,0-4.74-1.55c-.95-.15-4.18-.36-4.91-.36a18,18,0,0,0-2.69.5l2.55-1.26a20.4,20.4,0,0,1,5.22-.35c1,.18,4.23,2,6.39.7,0,0,.48-.39-.1-1s-6.31-3.3-7-3.59a7.17,7.17,0,0,0-3.12-.09,10.29,10.29,0,0,0-3.73.61c-.7.44-1.9,1.12-1.9,1.12s2.1-4.17,2.38-4.46a53,53,0,0,1,4.85-2.29c.28-.08,3.23-.58,4-1.26a3.14,3.14,0,0,0,1-2.14c0-.38-.12-.64-1.66-.5s-3.34.33-4.57.47-4.09,1.53-5.52,2.11-2.64,2.91-4.21,5.84-3.76,9.2-4.77,11.61-.33,9.5-4.31,15a62.24,62.24,0,0,1-5,6.51Z"/><path class="cls-7" d="M112.57,121.1S105.42,123.89,102,137s-7.1,59.16-7.91,69.34,13.49,19,21.3,9.11,18.25-40.39,18.25-40.39a18.86,18.86,0,0,0-9.18-6.95l-3.8,4.83S135.23,118.38,112.57,121.1Z"/><path class="cls-2" d="M99,155.45c-.16,1.33-.33,2.7-.49,4.09,13.45-1.92,21.86,2.51,24.28,4,.25-1.29.5-2.67.75-4.12-3.76-2-12.22-5.51-24.54-4Zm-1,8.4c11.43-1.6,19.68,1.07,24.07,3.15-.35,1.61-.66,2.95-.9,3.95-3.71-1.91-11.79-4.9-23.61-3C97.67,166.58,97.82,165.21,98,163.85Z"/><path class="cls-1" d="M143.52,121.1a1.06,1.06,0,1,0-1-1.06A1,1,0,0,0,143.52,121.1Z"/><path class="cls-4" d="M145.89,120.69a.64.64,0,0,0,.62-.65.62.62,0,1,0-1.24,0A.64.64,0,0,0,145.89,120.69Z"/><path class="cls-4" d="M143.52,120.82a.78.78,0,1,0-.75-.78A.77.77,0,0,0,143.52,120.82Z"/><path class="cls-1" d="M143.52,120.39a.35.35,0,0,0,0-.7.35.35,0,0,0,0,.7Z"/><path class="cls-3" d="M143.86,120a.34.34,0,0,0,.33-.35.34.34,0,1,0-.67,0A.35.35,0,0,0,143.86,120Z"/><path class="cls-1" d="M145.89,120.36a.31.31,0,0,0,.31-.32.31.31,0,1,0-.62,0A.31.31,0,0,0,145.89,120.36Z"/><path class="cls-13" d="M113.91,217.55a.48.48,0,0,1-.36-.17.52.52,0,0,1,0-.71,13.29,13.29,0,0,0,1.39-1.49c7.3-9.22,17.07-37.08,18.08-40a18.52,18.52,0,0,0-8.47-6.44L121,173.3a.46.46,0,0,1-.59.12.51.51,0,0,1-.24-.58c0-.17,4.58-17.3,4.61-31.67a.49.49,0,0,1,.48-.5h0a.48.48,0,0,1,.48.5c0,11.45-2.87,24.61-4.1,29.74l2.42-3.07a.48.48,0,0,1,.52-.16,19.19,19.19,0,0,1,9.43,7.14.54.54,0,0,1,.05.45c-.43,1.25-10.56,30.73-18.33,40.54a13.76,13.76,0,0,1-1.5,1.62A.51.51,0,0,1,113.91,217.55Z"/><path class="cls-13" d="M105.52,192.65a.5.5,0,0,1-.3-.11.52.52,0,0,1-.07-.71L122,170.46a.47.47,0,0,1,.67-.07.54.54,0,0,1,.07.71l-16.85,21.37A.46.46,0,0,1,105.52,192.65Z"/><path class="cls-13" d="M105.62,188.43a.49.49,0,0,1-.44-.31.51.51,0,0,1,.25-.65c1.62-.74,4.65-1.89,4.78-1.94a.47.47,0,0,1,.61.3.5.5,0,0,1-.29.64s-3.13,1.19-4.72,1.91A.41.41,0,0,1,105.62,188.43Z"/><path class="cls-13" d="M123.37,160.68a.51.51,0,0,1-.17,0,.49.49,0,0,1-.28-.64c0-.1,3.34-9.58,3.64-10.61a.48.48,0,0,1,.6-.34.52.52,0,0,1,.32.63c-.31,1.06-3.53,10.27-3.66,10.66A.5.5,0,0,1,123.37,160.68Z"/><path class="cls-13" d="M191.51,154.32a.49.49,0,0,1-.48-.49c-.39-13.75-3.21-24.5-8.37-32a.52.52,0,0,1,.11-.7.47.47,0,0,1,.67.11c5.28,7.62,8.15,18.56,8.55,32.51a.49.49,0,0,1-.47.52Z"/><path class="cls-13" d="M198.53,106.94a.49.49,0,0,1-.48-.46.5.5,0,0,1,.44-.54c.06,0,6.5-.54,9.87-.6a.49.49,0,0,1,.48.5.48.48,0,0,1-.47.5c-3.34.06-9.74.59-9.8.59Z"/><path class="cls-1" d="M249.13,152.16H163.36a2.62,2.62,0,0,0-2.5,2.34l-6.1,56.1a2,2,0,0,0,2,2.35h85.77a2.64,2.64,0,0,0,2.5-2.35l6.1-56.1A2,2,0,0,0,249.13,152.16Z"/><path class="cls-3" d="M256.43,152.16h-89.7a2.62,2.62,0,0,0-2.5,2.34l-6.1,56.1a2,2,0,0,0,2,2.35h89.7a2.64,2.64,0,0,0,2.5-2.35l6.1-56.1A2,2,0,0,0,256.43,152.16Z"/><path class="cls-4" d="M215,186.68H197.82a1.59,1.59,0,0,0-1.52,2.12l8.82,37a2.82,2.82,0,0,0,2.53,2.12h8.94a2,2,0,0,0,1.95-2.12l-1.4-37A2.17,2.17,0,0,0,215,186.68Z"/><path class="cls-14" d="M217.63,186.68H200.42a1.6,1.6,0,0,0-1.53,2.12l8.83,37a2.82,2.82,0,0,0,2.53,2.12h8.94a2,2,0,0,0,1.95-2.12l-1.4-37A2.17,2.17,0,0,0,217.63,186.68Z"/><path class="cls-3" d="M232.89,231.37H187.26a3.4,3.4,0,0,1-3.31-3.46h0a3.39,3.39,0,0,1,3.31-3.46h45.63a3.39,3.39,0,0,1,3.31,3.46h0A3.4,3.4,0,0,1,232.89,231.37Z"/><path class="cls-4" d="M192.16,231.37H174.77a3.4,3.4,0,0,1-3.31-3.46h0a3.39,3.39,0,0,1,3.31-3.46h17.39a3.39,3.39,0,0,1,3.31,3.46h0A3.4,3.4,0,0,1,192.16,231.37Z"/><path class="cls-8" d="M4.1,227.91H347.67a4.2,4.2,0,0,1,4.1,4.28h0a4.21,4.21,0,0,1-4.1,4.29H333.85a2.34,2.34,0,0,0-2.28,2.38h0a2.34,2.34,0,0,0,2.28,2.38h5.06a2.92,2.92,0,0,1,2.84,3h0a2.92,2.92,0,0,1-2.84,3H13.32a2.92,2.92,0,0,1-2.85-3h0a2.92,2.92,0,0,1,2.85-3h4a2.34,2.34,0,0,0,2.28-2.38h0a2.34,2.34,0,0,0-2.28-2.38H4.1A4.21,4.21,0,0,1,0,232.19H0a4.21,4.21,0,0,1,4.1-4.28Zm2.13,19.28A2.81,2.81,0,0,0,9,244.33v-.24a2.8,2.8,0,0,0-2.73-2.85h0a2.8,2.8,0,0,0-2.73,2.85v.24a2.81,2.81,0,0,0,2.73,2.86Z"/><path class="cls-2" d="M300.32,156a24,24,0,0,1,17.44,7.55,26.64,26.64,0,0,1,0,36.49,23.93,23.93,0,0,1-34.89,0,26.64,26.64,0,0,1,0-36.49A24,24,0,0,1,300.32,156Z"/><ellipse class="cls-15" cx="300.32" cy="181.78" rx="18.86" ry="19.72"/><path class="cls-2" d="M300.32,163.33h0a.42.42,0,0,1,.41.43v1a.42.42,0,0,1-.41.43h0a.42.42,0,0,1-.41-.43v-1A.42.42,0,0,1,300.32,163.33Z"/><path class="cls-2" d="M300.32,198.34h0a.42.42,0,0,1,.41.43v1a.42.42,0,0,1-.41.43h0a.42.42,0,0,1-.41-.43v-1A.42.42,0,0,1,300.32,198.34Z"/><path class="cls-2" d="M309.14,165.8h0a.43.43,0,0,1,.15.59l-.5.9a.39.39,0,0,1-.56.16h0a.45.45,0,0,1-.15-.59l.5-.9A.4.4,0,0,1,309.14,165.8Z"/><path class="cls-2" d="M292.4,196.12h0a.44.44,0,0,1,.15.59l-.5.9a.39.39,0,0,1-.56.16h0a.44.44,0,0,1-.15-.59l.5-.9A.39.39,0,0,1,292.4,196.12Z"/><path class="cls-2" d="M315.6,172.56h0a.42.42,0,0,1-.15.58l-.86.52a.4.4,0,0,1-.56-.15h0a.44.44,0,0,1,.15-.59l.86-.52A.39.39,0,0,1,315.6,172.56Z"/><path class="cls-2" d="M286.6,190.06h0a.43.43,0,0,1-.15.59l-.86.52A.39.39,0,0,1,285,191h0a.43.43,0,0,1,.15-.58l.86-.53A.41.41,0,0,1,286.6,190.06Z"/><path class="cls-2" d="M318,181.78h0a.42.42,0,0,1-.41.43h-1a.42.42,0,0,1-.41-.43h0a.41.41,0,0,1,.41-.42h1A.42.42,0,0,1,318,181.78Z"/><path class="cls-2" d="M284.48,181.78h0a.42.42,0,0,1-.41.43h-1a.42.42,0,0,1-.41-.43h0a.42.42,0,0,1,.41-.42h1A.41.41,0,0,1,284.48,181.78Z"/><path class="cls-2" d="M315.6,191h0a.39.39,0,0,1-.56.16l-.86-.52a.44.44,0,0,1-.15-.59h0a.41.41,0,0,1,.56-.16l.86.53A.42.42,0,0,1,315.6,191Z"/><path class="cls-2" d="M286.6,173.51h0a.4.4,0,0,1-.56.15l-.86-.52a.43.43,0,0,1-.15-.58h0a.39.39,0,0,1,.56-.16l.86.52A.43.43,0,0,1,286.6,173.51Z"/><path class="cls-2" d="M309.14,197.77h0a.4.4,0,0,1-.56-.16l-.5-.9a.45.45,0,0,1,.15-.59h0a.39.39,0,0,1,.56.16l.5.9A.43.43,0,0,1,309.14,197.77Z"/><path class="cls-2" d="M292.4,167.45h0a.39.39,0,0,1-.56-.16l-.5-.9a.44.44,0,0,1,.15-.59h0a.39.39,0,0,1,.56.16l.5.9A.45.45,0,0,1,292.4,167.45Z"/><path class="cls-2" d="M300.9,181.78a.59.59,0,0,1-.58.61.6.6,0,0,1-.59-.61V167.55a.6.6,0,0,1,.59-.6.59.59,0,0,1,.58.6Z"/><path class="cls-10" d="M300.74,181.37a.62.62,0,0,1,0,.86.57.57,0,0,1-.82,0l-6.72-7.54a.62.62,0,0,1,0-.86.57.57,0,0,1,.82,0Z"/><path class="cls-3" d="M75.41,24.28h36.33A5.66,5.66,0,0,1,117.25,30V70.69a.63.63,0,0,1-.38.6.59.59,0,0,1-.67-.14l-9.39-9.82H75.41a5.65,5.65,0,0,1-5.51-5.76V30A5.65,5.65,0,0,1,75.41,24.28Z"/><path class="cls-4" d="M73,27.33h36.33a4.91,4.91,0,0,1,3.55,1.54,5.35,5.35,0,0,1,1.48,3.72V73.24a.19.19,0,0,1,0,.08.15.15,0,0,1-.06.05.12.12,0,0,1-.08,0h0l-.06,0-9.39-9.82a.48.48,0,0,0-.34-.15H73a4.91,4.91,0,0,1-3.55-1.54A5.35,5.35,0,0,1,68,58.11V32.59a5.35,5.35,0,0,1,1.48-3.72A4.91,4.91,0,0,1,73,27.33Zm36.33-1H73a5.81,5.81,0,0,0-4.23,1.84A6.36,6.36,0,0,0,67,32.59V58.11a6.4,6.4,0,0,0,1.76,4.43A5.85,5.85,0,0,0,73,64.38h31.2l9.25,9.67a1.1,1.1,0,0,0,.54.31h0a1,1,0,0,0,.63-.06,1.21,1.21,0,0,0,.5-.42,1.28,1.28,0,0,0,.18-.64V32.59a6.36,6.36,0,0,0-1.76-4.42A5.81,5.81,0,0,0,109.31,26.33Z"/><path class="cls-5" d="M103.07,35.14h0a6.11,6.11,0,0,0-8.89,0l-.6.63-.6-.63a6.11,6.11,0,0,0-8.89,0h0a6.8,6.8,0,0,0,0,9.28l.6.63,8.89,9.29,8.88-9.29.61-.63A6.8,6.8,0,0,0,103.07,35.14Z"/><path class="cls-4" d="M331.2,80.29a5.8,5.8,0,0,0-8.46,0,6.47,6.47,0,0,0,0,8.85,5.8,5.8,0,0,0,8.46,0,6.47,6.47,0,0,0,0-8.85Zm-1.29-6.2a10.27,10.27,0,0,1,2.34,1,10.74,10.74,0,0,1,2.06,1.62.35.35,0,0,0,.44,0l2.78-1.67h0a.65.65,0,0,1,.51-.06.68.68,0,0,1,.42.33v0L340.43,79a.71.71,0,0,1,.07.55.68.68,0,0,1-.32.44h0l-2.75,1.66a.41.41,0,0,0-.18.43h0a11.37,11.37,0,0,1,.23,1.32,11.35,11.35,0,0,1,0,2.69,11,11,0,0,1-.23,1.32.39.39,0,0,0,.2.44l2.75,1.66h0a.68.68,0,0,1,.32.44.71.71,0,0,1-.07.55l-2,3.56h0a.67.67,0,0,1-.94.27l0,0-2.76-1.66a.36.36,0,0,0-.44,0,10.36,10.36,0,0,1-2.06,1.62,9.82,9.82,0,0,1-2.36,1,.4.4,0,0,0-.27.37v3.35a.71.71,0,0,1-.2.51.67.67,0,0,1-.48.21H325a.65.65,0,0,1-.48-.21.72.72,0,0,1-.21-.51V95.71a.38.38,0,0,0-.28-.37,9.86,9.86,0,0,1-2.34-1,10.36,10.36,0,0,1-2.06-1.62.36.36,0,0,0-.46,0l-2.76,1.67a.67.67,0,0,1-.94-.27v0l-2-3.54h0a.75.75,0,0,1-.06-.55.68.68,0,0,1,.32-.44l2.77-1.67a.4.4,0,0,0,.18-.43h0a12.9,12.9,0,0,1-.24-1.32,13,13,0,0,1,0-2.69q.09-.68.24-1.32a.4.4,0,0,0-.2-.44L313.76,80a.68.68,0,0,1-.32-.44.75.75,0,0,1,.06-.55v0l2-3.54h0a.68.68,0,0,1,.42-.33.64.64,0,0,1,.52.07h0l2.78,1.67a.36.36,0,0,0,.45-.06,10.33,10.33,0,0,1,2.05-1.61,9.82,9.82,0,0,1,2.36-1,.38.38,0,0,0,.26-.37V70.37a.72.72,0,0,1,.21-.51.65.65,0,0,1,.48-.21h3.94a.67.67,0,0,1,.48.21.71.71,0,0,1,.2.51v3.35A.39.39,0,0,0,329.91,74.09Z"/><path class="cls-9" d="M45.79,164.73H77A2.64,2.64,0,0,0,79.53,162V137.3A2.65,2.65,0,0,0,77,134.6H75.68v-1.25a.73.73,0,0,0-.71-.75H65.56a.74.74,0,0,0-.72.75v1.25H45.79a2.65,2.65,0,0,0-2.58,2.7V162A2.64,2.64,0,0,0,45.79,164.73Z"/><path class="cls-3" d="M67.53,164.73H47.84a2.15,2.15,0,0,1-2.1-2.19v-21a2.15,2.15,0,0,1,2.1-2.2H67.53a2.15,2.15,0,0,1,2.1,2.2v21A2.15,2.15,0,0,1,67.53,164.73Z"/><path class="cls-4" d="M48.89,164.73H77.66A4.55,4.55,0,0,0,81.39,162l9.07-21.29c.63-1.48,0-2.7-1.43-2.7H87.52l.57-1.34c.23-.54,0-1-.52-1H77.06a1.67,1.67,0,0,0-1.36,1l-.57,1.34H60.26a4.56,4.56,0,0,0-3.73,2.7L47.46,162C46.83,163.52,47.47,164.73,48.89,164.73Z"/><path class="cls-3" d="M172.24,8.18h57.88a3,3,0,0,1,2.93,3.07V32.9a.32.32,0,0,1-.2.31.29.29,0,0,1-.35-.07l-5-5.23H172.24a3,3,0,0,1-2.93-3.07V11.25A3,3,0,0,1,172.24,8.18Z"/><path class="cls-16" d="M180.85,25.3a6.82,6.82,0,0,0,6.65-6.95,6.66,6.66,0,1,0-13.3,0A6.82,6.82,0,0,0,180.85,25.3Z"/><path class="cls-3" d="M180.85,17.14a1.9,1.9,0,1,0-1.82-1.9A1.87,1.87,0,0,0,180.85,17.14Z"/><path class="cls-3" d="M180.85,17.74h0a2.64,2.64,0,0,1,2.58,2.69v2.63a.29.29,0,0,1-.29.3h-4.58a.29.29,0,0,1-.29-.3V20.43A2.64,2.64,0,0,1,180.85,17.74Z"/><path class="cls-4" d="M197.38,17.71h13.23a.62.62,0,0,1,.6.64h0a.62.62,0,0,1-.6.63H197.38a.62.62,0,0,1-.6-.63h0A.62.62,0,0,1,197.38,17.71Z"/><path class="cls-4" d="M193.53,17.71h-1.78a.62.62,0,0,0-.6.64h0a.62.62,0,0,0,.6.63h1.78a.62.62,0,0,0,.61-.63h0A.63.63,0,0,0,193.53,17.71Z"/><path class="cls-4" d="M191.75,13.82h18.86a.62.62,0,0,1,.6.63h0a.62.62,0,0,1-.6.64H191.75a.62.62,0,0,1-.6-.64h0A.62.62,0,0,1,191.75,13.82Z"/><path class="cls-4" d="M191.75,21.61h18.86a.62.62,0,0,1,.6.64h0a.62.62,0,0,1-.6.63H191.75a.62.62,0,0,1-.6-.63h0A.62.62,0,0,1,191.75,21.61Z"/><path class="cls-5" d="M221.79,25.3a6.82,6.82,0,0,0,6.65-6.95,6.66,6.66,0,1,0-13.31,0A6.82,6.82,0,0,0,221.79,25.3Z"/><path class="cls-3" d="M223.23,16.84a2,2,0,0,0-2.89,0,2.23,2.23,0,0,0,0,3,2,2,0,0,0,2.89,0,2.23,2.23,0,0,0,0-3Zm-.44-2.11a3.84,3.84,0,0,1,.8.36,3.69,3.69,0,0,1,.7.55.12.12,0,0,0,.15,0l.94-.57h0a.25.25,0,0,1,.17,0,.26.26,0,0,1,.14.11h0l.66,1.21a.23.23,0,0,1,0,.18.25.25,0,0,1-.11.15h0l-.94.57a.13.13,0,0,0-.06.14h0a3.54,3.54,0,0,1,.08.45,3.44,3.44,0,0,1,0,.46,4.14,4.14,0,0,1-.11.91.15.15,0,0,0,.07.15l.94.56h0a.33.33,0,0,1,.11.15.26.26,0,0,1,0,.19l-.67,1.21h0a.24.24,0,0,1-.14.12.23.23,0,0,1-.18,0h0l-.94-.57a.12.12,0,0,0-.15,0,3.59,3.59,0,0,1-1.51.91.14.14,0,0,0-.09.13v1.14a.26.26,0,0,1-.07.17.2.2,0,0,1-.16.07h-1.34a.21.21,0,0,1-.17-.07.26.26,0,0,1-.07-.17V22.1a.12.12,0,0,0-.09-.13,3.64,3.64,0,0,1-1.5-.91.14.14,0,0,0-.16,0l-.94.57a.23.23,0,0,1-.18,0,.24.24,0,0,1-.14-.12h0l-.66-1.21h0a.27.27,0,0,1,.08-.34l.95-.57a.13.13,0,0,0,.06-.14h0a4.14,4.14,0,0,1-.11-.91,3.44,3.44,0,0,1,0-.46,3.54,3.54,0,0,1,.08-.45.15.15,0,0,0-.07-.15l-.94-.57a.21.21,0,0,1-.1-.15.23.23,0,0,1,0-.18h0l.67-1.21h0a.26.26,0,0,1,.14-.11.23.23,0,0,1,.18,0h0l.95.57a.12.12,0,0,0,.15,0,3.09,3.09,0,0,1,.7-.55,3,3,0,0,1,.8-.36.13.13,0,0,0,.09-.13V13.46a.24.24,0,0,1,.07-.17.21.21,0,0,1,.17-.07h1.34a.2.2,0,0,1,.16.07.24.24,0,0,1,.07.17V14.6A.13.13,0,0,0,222.79,14.73Z"/><rect class="cls-17" x="58.45" y="222.69" width="40.49" height="3.88"/><path class="cls-2" d="M63.44,223a.84.84,0,0,0,0-1.68H34.83a3.07,3.07,0,0,0-2.21,1h0a3.36,3.36,0,0,0-.92,2.32,3.32,3.32,0,0,0,.92,2.31,3,3,0,0,0,2.21,1H63.44a.84.84,0,0,0,0-1.68H62.13a5.68,5.68,0,0,1-.64-.57,1.81,1.81,0,0,1-.58-1.33,2,2,0,0,1,.75-1.3Z"/><path class="cls-9" d="M98.94,223a.84.84,0,0,0,0-1.68H63.06a3.07,3.07,0,0,0-2.21,1h0a3.36,3.36,0,0,0-.92,2.32,3.32,3.32,0,0,0,.92,2.31,3,3,0,0,0,2.21,1H98.94a.84.84,0,0,0,0-1.68H63.06a1.5,1.5,0,0,1-1.08-.47,1.62,1.62,0,0,1-.45-1.13,1.66,1.66,0,0,1,.45-1.14,1.53,1.53,0,0,1,1.08-.46Z"/><rect class="cls-17" x="36.09" y="215.27" width="33.95" height="4.71"/><path class="cls-6" d="M64,215.68a1,1,0,0,1,0-2H90.34A3.72,3.72,0,0,1,93,214.81h0a4.09,4.09,0,0,1,0,5.62,3.72,3.72,0,0,1-2.69,1.17H64a1,1,0,0,1,0-2h1.59a5.59,5.59,0,0,0,.77-.69,2.16,2.16,0,0,0,.71-1.61,2.49,2.49,0,0,0-.91-1.58Z"/><path class="cls-18" d="M36.09,215.68a1,1,0,0,1,0-2H64.43a3.72,3.72,0,0,1,2.69,1.17h0a4.09,4.09,0,0,1,0,5.62,3.72,3.72,0,0,1-2.69,1.17H36.09a1,1,0,0,1,0-2H64.43a1.85,1.85,0,0,0,1.32-.57,2,2,0,0,0,0-2.74,1.79,1.79,0,0,0-1.32-.57Z"/><rect class="cls-17" x="61.33" y="207.16" width="22.03" height="4.82"/><path class="cls-8" d="M67.52,207.58a1,1,0,0,0,0-2.08H51.28a3.76,3.76,0,0,0-2.74,1.19h0a4.18,4.18,0,0,0,0,5.74,3.8,3.8,0,0,0,2.75,1.2H67.52a1,1,0,0,0,0-2.08H65.9a5.89,5.89,0,0,1-.79-.71,2.3,2.3,0,0,1-.73-1.65,2.55,2.55,0,0,1,.94-1.62Z"/><path class="cls-19" d="M83.36,207.58a1,1,0,0,0,0-2.08H67.06a3.79,3.79,0,0,0-2.75,1.19h0a4.18,4.18,0,0,0,0,5.74,3.8,3.8,0,0,0,2.75,1.2h16.3a1,1,0,0,0,0-2.08H67.06a1.85,1.85,0,0,1-1.34-.59,2,2,0,0,1-.56-1.4,2,2,0,0,1,.56-1.41,1.84,1.84,0,0,1,1.34-.58Z"/><path class="cls-5" d="M254.84,224.47h27.43a1.69,1.69,0,0,1,1.65,1.72h0a1.69,1.69,0,0,1-1.65,1.72H254.84a1.69,1.69,0,0,1-1.64-1.72h0A1.68,1.68,0,0,1,254.84,224.47Z"/><path class="cls-2" d="M255.76,224.47h25.59a1,1,0,0,0,.93-1h0a1,1,0,0,0-.93-1H255.76a1,1,0,0,0-.93,1h0A1,1,0,0,0,255.76,224.47Z"/><path class="cls-6" d="M255.81,219.28H281.3a1.6,1.6,0,0,1,1.55,1.63h0a1.59,1.59,0,0,1-1.55,1.62H255.81a1.59,1.59,0,0,1-1.55-1.62h0A1.6,1.6,0,0,1,255.81,219.28Z"/><path class="cls-16" d="M256.78,220.23l2-2.07a.72.72,0,0,1,1.05,0l2,2.07a.8.8,0,0,1,0,1.11l-2,2.07a.73.73,0,0,1-1.05,0l-2-2.07A.8.8,0,0,1,256.78,220.23Z"/><path class="cls-16" d="M261.41,220.23l2-2.07a.74.74,0,0,1,1.06,0l2,2.07a.82.82,0,0,1,0,1.11l-2,2.07a.74.74,0,0,1-1.06,0l-2-2.07A.82.82,0,0,1,261.41,220.23Z"/><path class="cls-16" d="M266.05,220.23l2-2.07a.74.74,0,0,1,1.06,0l2,2.07a.82.82,0,0,1,0,1.11l-2,2.07a.74.74,0,0,1-1.06,0l-2-2.07A.82.82,0,0,1,266.05,220.23Z"/><path class="cls-16" d="M270.69,220.23l2-2.07a.74.74,0,0,1,1.06,0l2,2.07a.82.82,0,0,1,0,1.11l-2,2.07a.74.74,0,0,1-1.06,0l-2-2.07A.82.82,0,0,1,270.69,220.23Z"/><path class="cls-16" d="M275.33,220.23l2-2.07a.72.72,0,0,1,1.05,0l2,2.07a.82.82,0,0,1,0,1.11l-2,2.07a.73.73,0,0,1-1.05,0l-2-2.07A.82.82,0,0,1,275.33,220.23Z"/><path class="cls-9" d="M253.65,219.28h29.74a.8.8,0,0,1,.78.82h0a.8.8,0,0,1-.78.82H253.65a.8.8,0,0,1-.78-.82h0A.8.8,0,0,1,253.65,219.28Z"/><path class="cls-5" d="M284.6,216.93h0V217h0a2.25,2.25,0,0,1-2.19,2.29h-27.7c-2.33,0-2.65-1.95-2-4.67a9.65,9.65,0,0,1,9.23-7.56H275.1A9.75,9.75,0,0,1,284.6,216.93Z"/><path class="cls-6" d="M260,208.55h0a.34.34,0,0,1,0,.46l-.82.86a.31.31,0,0,1-.44,0h0a.34.34,0,0,1,0-.46l.82-.86A.3.3,0,0,1,260,208.55Z"/><path class="cls-6" d="M263.6,208.55h0a.32.32,0,0,1,0,.46l-.82.86a.31.31,0,0,1-.44,0h0a.34.34,0,0,1,0-.46l.83-.86A.29.29,0,0,1,263.6,208.55Z"/><path class="cls-6" d="M267.21,208.55h0a.34.34,0,0,1,0,.46l-.83.86a.3.3,0,0,1-.43,0h0a.34.34,0,0,1,0-.46l.82-.86A.3.3,0,0,1,267.21,208.55Z"/><path class="cls-6" d="M270.81,208.55h0a.34.34,0,0,1,0,.46l-.82.86a.31.31,0,0,1-.44,0h0a.34.34,0,0,1,0-.46l.82-.86A.3.3,0,0,1,270.81,208.55Z"/><path class="cls-6" d="M274.41,208.55h0a.34.34,0,0,1,0,.46l-.82.86a.31.31,0,0,1-.44,0h0a.34.34,0,0,1,0-.46l.82-.86A.3.3,0,0,1,274.41,208.55Z"/><path class="cls-6" d="M278,208.55h0a.34.34,0,0,1,0,.46l-.83.86a.31.31,0,0,1-.44,0h0a.34.34,0,0,1,0-.46l.83-.86A.3.3,0,0,1,278,208.55Z"/><path class="cls-6" d="M278.86,211.55h0a.32.32,0,0,0,0,.46l.82.86a.31.31,0,0,0,.44,0h0a.34.34,0,0,0,0-.46l-.83-.86A.29.29,0,0,0,278.86,211.55Z"/><path class="cls-6" d="M275.25,211.55h0a.34.34,0,0,0,0,.46l.83.86a.3.3,0,0,0,.43,0h0a.32.32,0,0,0,0-.46l-.82-.86A.3.3,0,0,0,275.25,211.55Z"/><path class="cls-6" d="M271.65,211.55h0a.34.34,0,0,0,0,.46l.82.86a.31.31,0,0,0,.44,0h0a.34.34,0,0,0,0-.46l-.82-.86A.3.3,0,0,0,271.65,211.55Z"/><path class="cls-6" d="M268.05,211.55h0a.34.34,0,0,0,0,.46l.82.86a.31.31,0,0,0,.44,0h0a.34.34,0,0,0,0-.46l-.82-.86A.3.3,0,0,0,268.05,211.55Z"/><path class="cls-6" d="M264.45,211.55h0a.34.34,0,0,0,0,.46l.83.86a.31.31,0,0,0,.44,0h0a.34.34,0,0,0,0-.46l-.83-.86A.29.29,0,0,0,264.45,211.55Z"/><path class="cls-6" d="M260.84,211.55h0a.34.34,0,0,0,0,.46l.82.86a.31.31,0,0,0,.44,0h0a.34.34,0,0,0,0-.46l-.82-.86A.3.3,0,0,0,260.84,211.55Z"/><path class="cls-4" d="M243.2,145h33.22a4.23,4.23,0,0,0,4.12-4.31V93.31a4.23,4.23,0,0,0-4.12-4.3H243.2a4.23,4.23,0,0,0-4.12,4.3v47.41A4.23,4.23,0,0,0,243.2,145Z"/><path class="cls-9" d="M243.54,93.24h32.54a.78.78,0,0,1,.75.79h0a.77.77,0,0,1-.75.79H243.54a.77.77,0,0,1-.76-.79h0A.78.78,0,0,1,243.54,93.24Z"/><path class="cls-9" d="M243.54,98.2h32.54a.77.77,0,0,1,.75.79h0a.78.78,0,0,1-.75.79H243.54a.78.78,0,0,1-.76-.79h0A.77.77,0,0,1,243.54,98.2Z"/><path class="cls-9" d="M269.93,103.65h6.15a.78.78,0,0,1,.75.79h0a.77.77,0,0,1-.75.79h-6.15a.77.77,0,0,1-.75-.79h0A.78.78,0,0,1,269.93,103.65Z"/><path class="cls-9" d="M269.93,109.25h6.15a.77.77,0,0,1,.75.79h0a.78.78,0,0,1-.75.79h-6.15a.78.78,0,0,1-.75-.79h0A.77.77,0,0,1,269.93,109.25Z"/><path class="cls-9" d="M269.93,114.85h6.15a.77.77,0,0,1,.75.79h0a.78.78,0,0,1-.75.79h-6.15a.78.78,0,0,1-.75-.79h0A.77.77,0,0,1,269.93,114.85Z"/><path class="cls-9" d="M269.93,120.45h6.15a.77.77,0,0,1,.75.78h0a.77.77,0,0,1-.75.78h-6.15a.77.77,0,0,1-.75-.78h0A.77.77,0,0,1,269.93,120.45Z"/><path class="cls-9" d="M269.93,126h6.15a.78.78,0,0,1,.75.79h0a.77.77,0,0,1-.75.79h-6.15a.77.77,0,0,1-.75-.79h0A.78.78,0,0,1,269.93,126Z"/><path class="cls-9" d="M269.93,131.64h6.15a.78.78,0,0,1,.75.79h0a.77.77,0,0,1-.75.79h-6.15a.77.77,0,0,1-.75-.79h0A.78.78,0,0,1,269.93,131.64Z"/><path class="cls-9" d="M260.49,137.24h15.59a.77.77,0,0,1,.75.79h0a.78.78,0,0,1-.75.79H260.49a.78.78,0,0,1-.75-.79h0A.77.77,0,0,1,260.49,137.24Z"/><path class="cls-9" d="M262,131.64h4.6a.78.78,0,0,1,.75.79h0a.77.77,0,0,1-.75.79H262a.77.77,0,0,1-.76-.79h0A.78.78,0,0,1,262,131.64Z"/><path class="cls-9" d="M264.1,126h2.32a.78.78,0,0,1,.75.79h0a.77.77,0,0,1-.75.79H264.1a.77.77,0,0,1-.76-.79h0A.78.78,0,0,1,264.1,126Z"/><path class="cls-9" d="M265.71,120.45h1.7a.77.77,0,0,1,.76.78h0a.77.77,0,0,1-.76.78h-1.7a.77.77,0,0,1-.75-.78h0A.77.77,0,0,1,265.71,120.45Z"/><path class="cls-3" d="M242.78,108.78h2.92v28.51a1.5,1.5,0,0,1-1.46,1.53h0a1.5,1.5,0,0,1-1.46-1.53V108.78Z"/><path class="cls-3" d="M245.7,122.55v14.74a1.5,1.5,0,0,1-1.46,1.53h0a1.5,1.5,0,0,1-1.46-1.53V122.55a.68.68,0,0,0,.66.69H245C245.41,123.24,245.7,122.18,245.7,122.55Z"/><path class="cls-1" d="M243.93,103a46.78,46.78,0,0,0-1.15,5.81c.48,1.21,2.37.88,2.92,0a46.78,46.78,0,0,0-1.15-5.81A.34.34,0,0,0,243.93,103Z"/><path class="cls-2" d="M243.93,103c0,.06-.14.54-.3,1.2a1.43,1.43,0,0,0,.61.14h0a1.37,1.37,0,0,0,.61-.14c-.15-.66-.27-1.14-.3-1.2A.34.34,0,0,0,243.93,103Z"/><path class="cls-1" d="M245,135.7h-1.6a.67.67,0,0,1-.66-.68v1.45a.68.68,0,0,0,.66.68H245a.67.67,0,0,0,.66-.68V135A.66.66,0,0,1,245,135.7Z"/><path class="cls-3" d="M260.07,109a3.6,3.6,0,0,0-5.22,0,4,4,0,0,0-1.08,2.73,4,4,0,0,0,1.08,2.72,3.58,3.58,0,0,0,5.22,0,3.94,3.94,0,0,0,1.07-2.72,4,4,0,0,0-1.07-2.73Zm-.8-3.81a6.2,6.2,0,0,1,1.44.64,6.43,6.43,0,0,1,1.27,1,.23.23,0,0,0,.27,0l1.71-1h0a.48.48,0,0,1,.31,0,.41.41,0,0,1,.26.21h0l1.2,2.18a.51.51,0,0,1,.05.34.45.45,0,0,1-.2.27h0l-1.7,1a.26.26,0,0,0-.11.26h0a7.39,7.39,0,0,1,.14.82,6.91,6.91,0,0,1,0,1.66,6.84,6.84,0,0,1-.14.81.26.26,0,0,0,.12.27l1.7,1h0a.45.45,0,0,1,.2.27.48.48,0,0,1-.05.33l-1.21,2.2h0a.43.43,0,0,1-.26.2.4.4,0,0,1-.32,0h0l-1.7-1a.21.21,0,0,0-.27,0,6.83,6.83,0,0,1-1.27,1,6.27,6.27,0,0,1-1.45.64.26.26,0,0,0-.17.23v2.07a.43.43,0,0,1-.12.31.42.42,0,0,1-.3.13h-2.42a.42.42,0,0,1-.3-.13.44.44,0,0,1-.13-.31V118.5a.24.24,0,0,0-.17-.23,6,6,0,0,1-1.44-.64,6.51,6.51,0,0,1-1.27-1,.22.22,0,0,0-.28,0l-1.7,1a.42.42,0,0,1-.33,0,.41.41,0,0,1-.25-.2v0l-1.21-2.18h0a.53.53,0,0,1,0-.33.45.45,0,0,1,.2-.27l1.71-1a.24.24,0,0,0,.11-.26h0a6.83,6.83,0,0,1-.15-.81,8.63,8.63,0,0,1,0-1.66,7.4,7.4,0,0,1,.15-.82.24.24,0,0,0-.12-.26l-1.7-1a.45.45,0,0,1-.2-.27.53.53,0,0,1,0-.33v0l1.21-2.18h0a.4.4,0,0,1,.25-.21.48.48,0,0,1,.33,0h0l1.71,1a.2.2,0,0,0,.27,0,6.77,6.77,0,0,1,1.27-1,6.55,6.55,0,0,1,1.45-.65.22.22,0,0,0,.16-.22v-2.07a.44.44,0,0,1,.13-.31.42.42,0,0,1,.3-.13h2.42a.42.42,0,0,1,.3.13.43.43,0,0,1,.12.31V105A.25.25,0,0,0,259.27,105.19Z"/><path class="cls-3" d="M254.67,127.58a2.2,2.2,0,0,0-3.22,0,2.45,2.45,0,0,0,0,3.37,2.2,2.2,0,0,0,3.22,0,2.45,2.45,0,0,0,0-3.37Zm-.49-2.36a3.74,3.74,0,0,1,.89.4,4.2,4.2,0,0,1,.78.61.13.13,0,0,0,.17,0l1.06-.63h0a.25.25,0,0,1,.19,0,.28.28,0,0,1,.16.13h0l.75,1.35a.31.31,0,0,1,0,.21.3.3,0,0,1-.12.17h0l-1.05.64a.14.14,0,0,0-.06.16h0c0,.16.06.33.09.5s0,.34,0,.51,0,.35,0,.52-.05.34-.09.5a.14.14,0,0,0,.07.17l1,.63h0a.3.3,0,0,1,.12.17.31.31,0,0,1,0,.21l-.75,1.35h0a.28.28,0,0,1-.16.13.24.24,0,0,1-.2,0h0l-1.05-.64a.14.14,0,0,0-.17,0,4.2,4.2,0,0,1-.78.61,3.64,3.64,0,0,1-.9.4.15.15,0,0,0-.1.14v1.28a.24.24,0,0,1-.08.19.26.26,0,0,1-.18.09h-1.5a.26.26,0,0,1-.19-.09.24.24,0,0,1-.08-.19v-1.28a.14.14,0,0,0-.1-.14,3.64,3.64,0,0,1-.9-.4,4.56,4.56,0,0,1-.78-.61.13.13,0,0,0-.17,0l-1.06.63a.22.22,0,0,1-.19,0,.23.23,0,0,1-.16-.13h0l-.74-1.35h0a.26.26,0,0,1,0-.21.3.3,0,0,1,.12-.17l1.06-.64a.15.15,0,0,0,.07-.16h0a4,4,0,0,1-.09-.5,4.41,4.41,0,0,1,0-.52,4.36,4.36,0,0,1,0-.51,4,4,0,0,1,.09-.5.16.16,0,0,0-.08-.17l-1-.63a.3.3,0,0,1-.12-.17.26.26,0,0,1,0-.21h0l.75-1.36h0a.23.23,0,0,1,.16-.13.25.25,0,0,1,.19,0h0l1.06.63a.12.12,0,0,0,.17,0,4.11,4.11,0,0,1,.78-.61,3.81,3.81,0,0,1,.9-.4.15.15,0,0,0,.1-.15V123.8a.28.28,0,0,1,.08-.2.26.26,0,0,1,.19-.08h1.5a.25.25,0,0,1,.18.08.28.28,0,0,1,.08.2v1.27A.15.15,0,0,0,254.18,125.22Z"/><path class="cls-3" d="M88.4,81.8H101a1.52,1.52,0,0,1,1.48,1.55V96.51A1.52,1.52,0,0,1,101,98.06H88.4a1.53,1.53,0,0,1-1.49-1.55V83.35A1.53,1.53,0,0,1,88.4,81.8Z"/><path class="cls-3" d="M88.4,103.56H101a1.53,1.53,0,0,1,1.48,1.56v13.15a1.53,1.53,0,0,1-1.48,1.56H88.4a1.53,1.53,0,0,1-1.49-1.56V105.12A1.53,1.53,0,0,1,88.4,103.56Z"/><path class="cls-4" d="M86.42,79.44H99a1.91,1.91,0,0,1,1.39.61l0,0A2.13,2.13,0,0,1,101,81.5V94.65a2.1,2.1,0,0,1-.57,1.45,1.91,1.91,0,0,1-1.39.61H86.42A1.89,1.89,0,0,1,85,96.1l0,0a2.09,2.09,0,0,1-.55-1.42V81.5A2.07,2.07,0,0,1,85,80.05a1.89,1.89,0,0,1,1.39-.61Zm12.58,1H86.42a.94.94,0,0,0-.71.31,1,1,0,0,0-.3.74V94.65a1,1,0,0,0,.28.72l0,0a1,1,0,0,0,.71.31H99a1,1,0,0,0,.71-.31,1.12,1.12,0,0,0,.3-.75V81.5a1.06,1.06,0,0,0-.28-.72l0,0A1,1,0,0,0,99,80.45Z"/><path class="cls-4" d="M86.42,101.21H99a1.94,1.94,0,0,1,1.39.6l0,0a2.13,2.13,0,0,1,.54,1.42v13.15a2.15,2.15,0,0,1-.57,1.46,1.94,1.94,0,0,1-1.39.6H86.42a1.92,1.92,0,0,1-1.39-.6l0,0a2.14,2.14,0,0,1-.55-1.43V103.26a2.08,2.08,0,0,1,.58-1.45,1.92,1.92,0,0,1,1.39-.6Zm12.58,1H86.42a1,1,0,0,0-.71.31,1,1,0,0,0-.3.74v13.15a1,1,0,0,0,.28.73l0,0a1,1,0,0,0,.71.31H99a1,1,0,0,0,.71-.31,1.08,1.08,0,0,0,.3-.75V103.26a1.08,1.08,0,0,0-.28-.72l0,0A1,1,0,0,0,99,102.21Z"/><path class="cls-5" d="M88.18,106.41a.91.91,0,0,1,0-1.24.81.81,0,0,1,1.18,0l3.35,3.44L96,105.11a.81.81,0,0,1,1.18,0,.91.91,0,0,1,0,1.24l-3.29,3.5,3.34,3.44a.9.9,0,0,1,0,1.23.81.81,0,0,1-1.18,0l-3.35-3.45-3.29,3.5a.8.8,0,0,1-1.18,0,.9.9,0,0,1,0-1.23l3.3-3.5Z"/><path class="cls-16" d="M88.65,89a.9.9,0,0,1,0-1.23.81.81,0,0,1,1.18,0l1.75,1.76,4-4.76a.8.8,0,0,1,1.17-.09.89.89,0,0,1,.08,1.23l-4.6,5.49a.8.8,0,0,1-1.18,0Z"/><path class="cls-4" d="M68.71,73.63H66.08a1.18,1.18,0,0,1-1.15-1.21V69.67a1.18,1.18,0,0,1,1.15-1.2h2.63a1.17,1.17,0,0,1,1.15,1.2v2.75A1.18,1.18,0,0,1,68.71,73.63Z"/><path class="cls-4" d="M59.59,73.63H57a1.19,1.19,0,0,1-1.16-1.21V69.67A1.18,1.18,0,0,1,57,68.47h2.63a1.18,1.18,0,0,1,1.15,1.2v2.75A1.18,1.18,0,0,1,59.59,73.63Z"/><path class="cls-4" d="M50.46,73.63H47.83a1.18,1.18,0,0,1-1.15-1.21V69.67a1.18,1.18,0,0,1,1.15-1.2h2.63a1.18,1.18,0,0,1,1.15,1.2v2.75A1.18,1.18,0,0,1,50.46,73.63Z"/><path class="cls-4" d="M41.33,73.63H38.7a1.18,1.18,0,0,1-1.15-1.21V69.67a1.18,1.18,0,0,1,1.15-1.2h2.63a1.18,1.18,0,0,1,1.16,1.2v2.75A1.19,1.19,0,0,1,41.33,73.63Z"/><path class="cls-4" d="M32.21,73.63H29.58a1.18,1.18,0,0,1-1.15-1.21V69.67a1.17,1.17,0,0,1,1.15-1.2h2.63a1.18,1.18,0,0,1,1.15,1.2v2.75A1.18,1.18,0,0,1,32.21,73.63Z"/><path class="cls-4" d="M23.08,73.63H20.45a1.18,1.18,0,0,1-1.15-1.21V69.67a1.18,1.18,0,0,1,1.15-1.2h2.63a1.17,1.17,0,0,1,1.15,1.2v2.75A1.18,1.18,0,0,1,23.08,73.63Z"/><path class="cls-4" d="M50.13,63.23H47.5A1.19,1.19,0,0,1,46.35,62V59.27a1.18,1.18,0,0,1,1.15-1.2h2.63a1.18,1.18,0,0,1,1.15,1.2V62A1.19,1.19,0,0,1,50.13,63.23Z"/><path class="cls-4" d="M41,63.23H38.37A1.19,1.19,0,0,1,37.22,62V59.27a1.18,1.18,0,0,1,1.15-1.2H41a1.17,1.17,0,0,1,1.15,1.2V62A1.18,1.18,0,0,1,41,63.23Z"/><path class="cls-4" d="M31.88,63.23H29.25A1.18,1.18,0,0,1,28.1,62V59.27a1.17,1.17,0,0,1,1.15-1.2h2.63A1.18,1.18,0,0,1,33,59.27V62A1.19,1.19,0,0,1,31.88,63.23Z"/><path class="cls-4" d="M41.33,84.8H38.7a1.18,1.18,0,0,1-1.15-1.2V80.85a1.18,1.18,0,0,1,1.15-1.2h2.63a1.18,1.18,0,0,1,1.16,1.2V83.6A1.18,1.18,0,0,1,41.33,84.8Z"/><path class="cls-4" d="M32.21,84.8H29.58a1.17,1.17,0,0,1-1.15-1.2V80.85a1.17,1.17,0,0,1,1.15-1.2h2.63a1.18,1.18,0,0,1,1.15,1.2V83.6A1.18,1.18,0,0,1,32.21,84.8Z"/><path class="cls-4" d="M230,53.27h-2.63a1.18,1.18,0,0,1-1.16-1.2V49.32a1.19,1.19,0,0,1,1.16-1.21H230a1.18,1.18,0,0,1,1.15,1.21v2.75A1.18,1.18,0,0,1,230,53.27Z"/><path class="cls-4" d="M220.85,53.27h-2.63a1.18,1.18,0,0,1-1.15-1.2V49.32a1.18,1.18,0,0,1,1.15-1.21h2.63A1.18,1.18,0,0,1,222,49.32v2.75A1.18,1.18,0,0,1,220.85,53.27Z"/><path class="cls-4" d="M211.72,53.27h-2.63a1.18,1.18,0,0,1-1.15-1.2V49.32a1.18,1.18,0,0,1,1.15-1.21h2.63a1.19,1.19,0,0,1,1.16,1.21v2.75A1.18,1.18,0,0,1,211.72,53.27Z"/><path class="cls-4" d="M202.6,53.27H200a1.17,1.17,0,0,1-1.15-1.2V49.32A1.18,1.18,0,0,1,200,48.11h2.63a1.18,1.18,0,0,1,1.15,1.21v2.75A1.18,1.18,0,0,1,202.6,53.27Z"/><path class="cls-4" d="M193.47,53.27h-2.63a1.18,1.18,0,0,1-1.15-1.2V49.32a1.18,1.18,0,0,1,1.15-1.21h2.63a1.18,1.18,0,0,1,1.15,1.21v2.75A1.18,1.18,0,0,1,193.47,53.27Z"/><path class="cls-4" d="M220.52,42.87h-2.63a1.18,1.18,0,0,1-1.15-1.2V38.91a1.18,1.18,0,0,1,1.15-1.2h2.63a1.18,1.18,0,0,1,1.15,1.2v2.76A1.18,1.18,0,0,1,220.52,42.87Z"/><path class="cls-4" d="M211.39,42.87h-2.63a1.18,1.18,0,0,1-1.15-1.2V38.91a1.18,1.18,0,0,1,1.15-1.2h2.63a1.17,1.17,0,0,1,1.15,1.2v2.76A1.17,1.17,0,0,1,211.39,42.87Z"/><path class="cls-4" d="M202.27,42.87h-2.63a1.17,1.17,0,0,1-1.15-1.2V38.91a1.17,1.17,0,0,1,1.15-1.2h2.63a1.18,1.18,0,0,1,1.15,1.2v2.76A1.18,1.18,0,0,1,202.27,42.87Z"/><path class="cls-4" d="M211.72,64.45h-2.63a1.18,1.18,0,0,1-1.15-1.21V60.49a1.18,1.18,0,0,1,1.15-1.2h2.63a1.18,1.18,0,0,1,1.16,1.2v2.75A1.19,1.19,0,0,1,211.72,64.45Z"/><path class="cls-4" d="M202.6,64.45H200a1.18,1.18,0,0,1-1.15-1.21V60.49a1.17,1.17,0,0,1,1.15-1.2h2.63a1.18,1.18,0,0,1,1.15,1.2v2.75A1.18,1.18,0,0,1,202.6,64.45Z"/><path class="cls-3" d="M47.25,23.41a.72.72,0,1,1,1.43,0v3.37a.72.72,0,1,1-1.43,0V23.41Zm-4.88,2.73a.77.77,0,0,1,0-1.06.7.7,0,0,1,1,0l2.28,2.38a.77.77,0,0,1,0,1.06.71.71,0,0,1-1,0l-2.27-2.38Zm-1.6,5.54a.75.75,0,0,1,0-1.5H44a.75.75,0,0,1,0,1.5Zm2.61,5.1a.7.7,0,0,1-1,0,.77.77,0,0,1,0-1.06l2.27-2.38a.71.71,0,0,1,1,0,.77.77,0,0,1,0,1.06l-2.28,2.38Zm5.3,1.67a.72.72,0,1,1-1.43,0V35.09a.72.72,0,1,1,1.43,0v3.36Zm4.87-2.73a.77.77,0,0,1,0,1.06.7.7,0,0,1-1,0L50.26,34.4a.79.79,0,0,1,0-1.06.71.71,0,0,1,1,0l2.27,2.38Zm1.6-5.54a.75.75,0,0,1,0,1.5H51.94a.75.75,0,0,1,0-1.5Zm-2.61-5.1a.7.7,0,0,1,1,0,.77.77,0,0,1,0,1.06l-2.27,2.38a.71.71,0,0,1-1,0,.79.79,0,0,1,0-1.06Z"/><path class="cls-3" d="M73.2,180.32a.72.72,0,1,1,1.44,0v3.37a.72.72,0,1,1-1.44,0v-3.37Zm-4.87,2.73a.76.76,0,0,1,0-1.05.68.68,0,0,1,1,0l2.28,2.38a.78.78,0,0,1,0,1.05.69.69,0,0,1-1,0l-2.27-2.38Zm-1.6,5.54a.75.75,0,0,1,0-1.49H70a.75.75,0,0,1,0,1.49Zm2.61,5.1a.7.7,0,0,1-1,0,.77.77,0,0,1,0-1.06l2.27-2.38a.71.71,0,0,1,1,0,.79.79,0,0,1,0,1.06l-2.28,2.38Zm5.3,1.67a.72.72,0,1,1-1.44,0V192a.72.72,0,1,1,1.44,0v3.36Zm4.87-2.73a.77.77,0,0,1,0,1.06.7.7,0,0,1-1,0l-2.28-2.38a.79.79,0,0,1,0-1.06.71.71,0,0,1,1,0l2.27,2.38Zm1.6-5.53a.75.75,0,0,1,0,1.49H77.89a.75.75,0,0,1,0-1.49ZM78.5,182a.68.68,0,0,1,1,0,.76.76,0,0,1,0,1.05l-2.27,2.38a.69.69,0,0,1-1,0,.78.78,0,0,1,0-1.05Z"/><path class="cls-3" d="M295.48,84.48a.72.72,0,1,1,1.43,0v3.36a.72.72,0,1,1-1.43,0V84.48Zm-4.88,2.73a.77.77,0,0,1,0-1.06.71.71,0,0,1,1,0l2.27,2.38a.77.77,0,0,1,0,1.06.7.7,0,0,1-1,0l-2.28-2.38ZM289,92.75a.75.75,0,0,1,0-1.5h3.22a.75.75,0,0,1,0,1.5Zm2.62,5.1a.71.71,0,0,1-1,0,.77.77,0,0,1,0-1.06l2.28-2.38a.7.7,0,0,1,1,0,.77.77,0,0,1,0,1.06l-2.27,2.38Zm5.29,1.67a.72.72,0,1,1-1.43,0V96.15a.72.72,0,1,1,1.43,0v3.37Zm4.88-2.73a.77.77,0,0,1,0,1.06.71.71,0,0,1-1,0l-2.27-2.38a.77.77,0,0,1,0-1.06.7.7,0,0,1,1,0l2.28,2.38Zm1.6-5.54a.75.75,0,0,1,0,1.5h-3.22a.75.75,0,0,1,0-1.5Zm-2.62-5.1a.71.71,0,0,1,1,0,.77.77,0,0,1,0,1.06l-2.28,2.38a.7.7,0,0,1-1,0,.77.77,0,0,1,0-1.06Z"/><path class="cls-3" d="M19.09,141.6v1.22h1.16a.9.9,0,0,1,.88.92h0a.91.91,0,0,1-.88.92H19.09v1.21a.9.9,0,0,1-.88.92h0a.9.9,0,0,1-.88-.92v-1.21H16.17a.9.9,0,0,1-.88-.92h0a.9.9,0,0,1,.88-.92h1.16V141.6a.9.9,0,0,1,.88-.92h0A.91.91,0,0,1,19.09,141.6Z"/><path class="cls-3" d="M116.44,97.5v1.21h1.16a.9.9,0,0,1,.88.92h0a.9.9,0,0,1-.88.92h-1.16v1.22a.91.91,0,0,1-.88.92h0a.91.91,0,0,1-.89-.92v-1.22h-1.16a.9.9,0,0,1-.88-.92h0a.9.9,0,0,1,.88-.92h1.16V97.5a.91.91,0,0,1,.89-.92h0A.9.9,0,0,1,116.44,97.5Z"/><path class="cls-3" d="M130.13,13.37v1.37h1.31a1,1,0,0,1,1,1h0a1,1,0,0,1-1,1h-1.31v1.36a1,1,0,0,1-1,1h0a1,1,0,0,1-1-1V16.82h-1.31a1,1,0,0,1-1-1h0a1,1,0,0,1,1-1h1.31V13.37a1,1,0,0,1,1-1h0A1,1,0,0,1,130.13,13.37Z"/><path class="cls-3" d="M299.67,140.6V142H301a1,1,0,0,1,1,1h0a1,1,0,0,1-1,1h-1.31v1.37a1,1,0,0,1-1,1h0a1,1,0,0,1-1-1V144h-1.31a1,1,0,0,1-1-1h0a1,1,0,0,1,1-1h1.31V140.6a1,1,0,0,1,1-1h0A1,1,0,0,1,299.67,140.6Z"/><path class="cls-3" d="M264.79,184.71v1.36h1.31a1,1,0,0,1,1,1h0a1,1,0,0,1-1,1h-1.31v1.37a1,1,0,0,1-1,1h0a1,1,0,0,1-1-1v-1.37H261.5a1,1,0,0,1-1-1h0a1,1,0,0,1,1-1h1.31v-1.36a1,1,0,0,1,1-1h0A1,1,0,0,1,264.79,184.71Z"/></g></g></svg>