<svg xmlns="http://www.w3.org/2000/svg" viewBox="0 0 652.35 438.43"><defs><style>.cls-1,.cls-14{fill:#d6d6f9;}.cls-1,.cls-11,.cls-12,.cls-16,.cls-17,.cls-18,.cls-2,.cls-21,.cls-22,.cls-3,.cls-4,.cls-5,.cls-6,.cls-7,.cls-8{fill-rule:evenodd;}.cls-10,.cls-2{fill:#484d9b;}.cls-13,.cls-3{fill:#fff;}.cls-19,.cls-4{fill:#9c9dcc;}.cls-5{fill:#de9396;}.cls-6{fill:#df6162;}.cls-7{fill:#1d135c;}.cls-8{fill:#100843;}.cls-17,.cls-9{fill:#606ce6;}.cls-11{fill:#cf4a60;}.cls-12{fill:#e7b7b9;}.cls-15{fill:#100c4c;}.cls-16{fill:#eaebf5;}.cls-18,.cls-23{fill:#edbd54;}.cls-20{fill:#fbfdff;}.cls-21{fill:#b64443;}.cls-22{fill:#282564;}</style></defs><g id="Layer_2" data-name="Layer 2"><g id="OBJECTS"><path class="cls-1" d="M92.3,0C43,0,2.67,40.34,2.67,89.63h0c0,49.3,40.33,89.64,89.63,89.64h0a18,18,0,0,1,18,18h0a18,18,0,0,1-18,18H45.4A43.86,43.86,0,0,0,1.67,259h0A43.86,43.86,0,0,0,45.4,302.7a37.92,37.92,0,0,1,37.82,37.81h0a69.2,69.2,0,0,0,69,69h405c49.3,0,89.63-40.34,89.63-89.63h0c0-49.3-40.33-89.64-89.63-89.64h-8.67a18,18,0,0,1-18-18h0a18,18,0,0,1,18-18H607a43.86,43.86,0,0,0,43.73-43.73h0A43.86,43.86,0,0,0,607,106.81H560.08A37.92,37.92,0,0,1,522.26,69h0a69.2,69.2,0,0,0-69-69Z"/><path class="cls-2" d="M446.81,50.38a26.94,26.94,0,1,1-7.9,19.06,26.84,26.84,0,0,1,7.9-19.06Zm19.06-4a23.1,23.1,0,1,0,16.34,6.77A23,23,0,0,0,465.87,46.34Z"/><path class="cls-2" d="M482.21,88.5a1.93,1.93,0,1,1,2.73-2.73l6.38,6.39a1.93,1.93,0,1,1-2.73,2.73Z"/><path class="cls-2" d="M488.85,97.88a3.86,3.86,0,0,1,5.46-5.46l29.44,29.43a3.86,3.86,0,1,1-5.46,5.46Z"/><path class="cls-3" d="M478.41,56.81a1.2,1.2,0,1,1,1.7-1.7A20.13,20.13,0,0,1,486,69.39h0a20.53,20.53,0,0,1-.79,5.6,1.21,1.21,0,0,1-2.32-.66,17.6,17.6,0,0,0,.7-4.94h0a17.69,17.69,0,0,0-5.21-12.58ZM480.8,79a1.21,1.21,0,0,1,2,1.3c-.39.59-.81,1.18-1.27,1.75s-.95,1.11-1.45,1.62a1.2,1.2,0,0,1-1.7,0,1.21,1.21,0,0,1,0-1.71,18.43,18.43,0,0,0,1.28-1.42A16.68,16.68,0,0,0,480.8,79Zm-27.56,3a1.21,1.21,0,0,1,0,1.71,1.2,1.2,0,0,1-1.7,0,20.19,20.19,0,0,1-5.92-14.29A21,21,0,0,1,446,65.7a21.31,21.31,0,0,1,1-3.57,1.2,1.2,0,0,1,2.24.86,17,17,0,0,0-.88,3.14A17.73,17.73,0,0,0,453.24,82Zm-1.87-23a1.2,1.2,0,1,1-1.94-1.4c.32-.44.66-.87,1-1.28l.06-.06a15.08,15.08,0,0,1,1.05-1.14,1.2,1.2,0,0,1,1.7,1.7c-.35.35-.66.69-.93,1l-.05.07C451.94,58.24,451.65,58.62,451.37,59Z"/><path class="cls-4" d="M471.69,77.5a1.17,1.17,0,1,0,1.17,2,11.92,11.92,0,0,0,4.27-4.28,11.67,11.67,0,1,0-21.78-5.82,1.17,1.17,0,0,0,2.34,0,9.33,9.33,0,1,1,14,8.08Z"/><path class="cls-4" d="M559.6,279.67a46.62,46.62,0,0,1,33,13.67,46.7,46.7,0,1,1-50.87-10.13,46.32,46.32,0,0,1,17.85-3.54Zm17.18,5.17a45.07,45.07,0,1,0,14.59,9.76A44.76,44.76,0,0,0,576.78,284.84Z"/><path class="cls-5" d="M428,122.8s23.39-40.31,32.87-55.27c4.16-6.57,10.47-4.72,6.58,4-2.15,4.82-9.69,16.75-9.69,16.75,10.58,1,14.07,13.86,11.22,19.08-1.41,2.58-10,9.92-12.06,11.26S446,131.31,446,131.31Z"/><path class="cls-6" d="M445.32,93.25c2.43-4.1,4.88-8.22,7.19-12.06l2.46.27a10.11,10.11,0,0,0,8.61-2.74c-2.77,4.76-5.82,9.59-5.82,9.59a12.68,12.68,0,0,1,4.45,1.28c-2.45,1.28-7,2.73-14.5,3.61A10.86,10.86,0,0,1,445.32,93.25Z"/><path class="cls-6" d="M441.68,99.42c1.66-2.82,3.37-5.72,5.08-8.6,3.53-.87,7.67-1.79,11.65-2.42,10.07,1.48,13.37,13.87,10.57,19-.87,1.59-4.48,5-7.6,7.7C452.76,112.65,445.78,105,441.68,99.42Z"/><path class="cls-5" d="M466.87,96.06c4.17,2.37,7.05,4.65,4.33,10.19s-8.66,5.07-8.55,3,5-9.59,5-9.59S461.27,95.44,466.87,96.06Z"/><path class="cls-5" d="M463.39,92.58c6.64-1.3,6.81,3.76,3.77,10s-7.71,6.71-9.5,4S463,96.38,463,96.38,457.12,91.88,463.39,92.58Z"/><path class="cls-5" d="M463.66,97.25c-3.05,6.2-7.35,6.35-9.14,3.61s5.37-10.13,5.37-10.13-2-1.88-1.62-3.12c1-3,7.61-3.15,7.87,2.36C466.22,91.75,465.16,94.21,463.66,97.25Z"/><path class="cls-5" d="M434.8,114.36c-4.3-11.29.18-27.43,5-27.07s20.34-1.16,20.88,3-16,6.81-16,6.81,11.29,13.27,4.3,17S434.62,118.13,434.8,114.36Z"/><path class="cls-7" d="M303,193.58s62.32-4.42,65.14-4.8,5-1.24,11.1-8.08,50.86-68.17,50.86-68.17c1.53-2.44,26.69,13.6,22.85,23-1.88,4.61-49.27,77.23-49.27,77.23s-9.21,16.36-24.25,22.75-50,23.7-50,23.7Z"/><path class="cls-2" d="M346.62,190.45l11.1-.83c13.88,7.5,29.29,22.27,15.94,48.44-2.59,1.17-5.43,2.48-8.39,3.86C386,210,360,195.48,346.62,190.45Zm14.95-1.12c13.44,6.48,30.83,20.75,14,47.88l3.9-1.7a39,39,0,0,0,4.33-2.19c11.19-23.25-.58-37.29-13.14-45.16a9.4,9.4,0,0,1-2.48.62C367.66,188.85,365.22,189.05,361.57,189.33Z"/><path class="cls-7" d="M304.24,194.34c53.9,9.35,54.89,71.71,46.9,125.29-1.73,26.54,1.33,67.17-1.6,78.47a15.67,15.67,0,0,1-2.28,4.12l-62.56,2H214.62a15.83,15.83,0,0,1-2.28-4.12c-2.93-11.31,3.14-69.74,1.42-96.28l-5-89,56.41-20.45Z"/><path class="cls-6" d="M324.12,131.49c.29,0,.59.09.88.15h0A12,12,0,1,1,315,134.06c-.31,3.56.26,8,4.8,8.4l-.13-6.94C319.56,132.7,322.19,131.41,324.12,131.49Z"/><path class="cls-6" d="M242,131.49c-.29,0-.59.09-.88.15h0a12,12,0,1,0,10.06,2.42c.31,3.56-.26,8-4.8,8.4l.13-6.94C246.58,132.7,244,131.41,242,131.49Z"/><polygon class="cls-8" points="330.69 102.66 326.75 138.58 318.56 104.73 330.69 102.66"/><path class="cls-4" d="M304.24,193.5a48.48,48.48,0,0,1,5.42-.39c5.35,18.79-5.16,32.59-25,32.59a26.71,26.71,0,0,1-26.65-26.65v-2.14l7.11-2.57Z"/><rect class="cls-9" x="262.85" y="394.69" width="157.96" height="19.09" rx="9.54"/><rect class="cls-10" x="200.73" y="394.69" width="81.63" height="19.09" rx="9.54"/><path class="cls-5" d="M284.7,153.66h0a19.6,19.6,0,0,0-19.54,19.54v25.85a19.61,19.61,0,0,0,19.54,19.54h0a19.6,19.6,0,0,0,19.54-19.54V173.2A19.59,19.59,0,0,0,284.7,153.66Z"/><path class="cls-6" d="M265.24,171.52c-.05.56-.08,1.11-.08,1.68v25.85a19.22,19.22,0,0,0,1.25,6.84L304.24,189V174.45c-7-1.29-23.85-3-24.83-3.85C278.78,170.07,271.8,170.75,265.24,171.52Z"/><path class="cls-5" d="M326.74,111.9c0,.22,0,.43,0,.65v37.52a41.37,41.37,0,0,1-41.25,41.25h0a41.37,41.37,0,0,1-41.25-41.25V112.55a32.29,32.29,0,0,1,1.2-9.85A41.42,41.42,0,0,1,285.5,71.3h0A41.37,41.37,0,0,1,326.74,111.9Z"/><path class="cls-6" d="M326.74,111.9v.4L301.6,102.08l-10.74,6.28L277,104.51a3.88,3.88,0,0,1-3.85,1.83l-14.59-5.27,1.81-21.14a41.06,41.06,0,0,1,6.75-4.26L311,80.16A41.19,41.19,0,0,1,326.74,111.9Z"/><path class="cls-8" d="M280.47,152.17a10.68,10.68,0,1,0,21.34.84h0A1.85,1.85,0,0,0,300,151.1l-17.62-.7a1.85,1.85,0,0,0-1.91,1.77Z"/><path class="cls-11" d="M284.12,160.63a10.66,10.66,0,0,0,12.3,1.24,6.64,6.64,0,0,0-5.94-4.18A6.74,6.74,0,0,0,284.12,160.63Z"/><path class="cls-3" d="M300.25,151.12l-16.55-.65c-.34,1.82.44,3.7,1.65,4.16,1.48.54,13.47.7,14.36-.21C300.14,154,300.25,152.52,300.25,151.12Z"/><path class="cls-6" d="M268.16,143a5.42,5.42,0,1,1-5.32,5.52A5.42,5.42,0,0,1,268.16,143Z"/><path class="cls-6" d="M313.22,142.11a5.43,5.43,0,1,1-5.32,5.53A5.42,5.42,0,0,1,313.22,142.11Z"/><path class="cls-8" d="M315.5,124.32a1.46,1.46,0,1,0,1.31-2.61c-3.88-2-9.07-2.24-12.88.05a1.46,1.46,0,1,0,1.51,2.51C308.52,122.42,312.38,122.83,315.5,124.32Z"/><path class="cls-8" d="M306.6,136.36a3.82,3.82,0,0,1,6.52-2.7,3.84,3.84,0,0,1,1.12,2.7,1.47,1.47,0,1,0,2.93,0,6.76,6.76,0,1,0-13.51,0,1.47,1.47,0,0,0,2.94,0Z"/><path class="cls-12" d="M296.65,139.66c1,1.39,2.77,3.92,2.92,4.86.2,1.33-2.75,2.09-4.79,1.53-1.45-.4-1.23-3.64-.8-5.67C294.44,138.13,295.05,137.46,296.65,139.66Z"/><path class="cls-8" d="M277.09,124.32a1.46,1.46,0,0,0,1.31-2.61c-3.88-2-9.07-2.24-12.88.05a1.46,1.46,0,1,0,1.51,2.51C270.11,122.42,274,122.83,277.09,124.32Z"/><path class="cls-8" d="M268.19,136.36a3.82,3.82,0,0,1,7.64,0,1.47,1.47,0,1,0,2.94,0,6.76,6.76,0,1,0-13.51,0,1.47,1.47,0,1,0,2.93,0Z"/><path class="cls-8" d="M244.25,144.56s9.17-10.41,4.78-24.32c0,0,16-8.72,16-21.89,0,0,1.93,4.56,5.07,5.67s4.76-3.14,3.24-5.06c0,0,11.66,8.51,21.29,10.43s12.46-7.8,8.51-11.25c0,0,15.51,10.85,25.44,8.21S344.4,65,310.35,56.49s-55.54.41-62.84,5.27-12,18-6.89,27a30.08,30.08,0,0,0-7.71,14.39c-1.62,8.51,4.77,29.83,4.77,29.83S244.25,133.62,244.25,144.56Z"/><path class="cls-7" d="M331.43,70.92l0,0c-41.63,14.18-62.83-2.19-72.26-14.46a55.85,55.85,0,0,0-7.59,3c22.76,37.32,60,36.52,84.71,30.69A33.65,33.65,0,0,0,331.43,70.92Z"/><path class="cls-6" d="M258.27,264.05a36,36,0,0,0,4.74,5.73c1.77,1.61,17.68,7.29,17.68,7.29s-1.14,3.63-4.68,3.63h-9.15c-3,0-5.3,9.78-16.22,14.15-8.3,3.32-5-19.6-2.95-30.8Z"/><rect class="cls-13" x="262.14" y="209.1" width="33.85" height="68.48" rx="3.79"/><rect class="cls-14" x="262.14" y="216.56" width="33.85" height="1.32"/><rect class="cls-14" x="262.14" y="268.81" width="33.85" height="1.32"/><path class="cls-6" d="M261.13,228.58a5.46,5.46,0,0,1,1.52,3.83c.15,2.7-1.68,5.43-2.4,7.23l-2.64,9s-1.26,12.55-1.48,13c-.1.2.94,1.56,2.33,3.16l-10.53,1c.31-3.59.61-6,.61-6l-1.15-6.39s3.48-9.72,4.86-12.77S260.45,228,261.13,228.58Z"/><path class="cls-1" d="M279.06,232.43a5.66,5.66,0,1,0-5.66-5.65A5.67,5.67,0,0,0,279.06,232.43Z"/><path class="cls-5" d="M239.33,319s7.28-13.31,9.25-16.12a25.29,25.29,0,0,0,4.68-14.66c0-6.87-1.14-10.3,1.77-12.48a24.42,24.42,0,0,1,7-3.33l7.23.26c1.19.05,6.65,1.56,7.95,1.51a3.24,3.24,0,0,0,2.76-2c.21-.83.21-1.35-1.72-2.08a70.55,70.55,0,0,0-8.78-2.76c-1.77-.25-7.75-.62-9.1-.62a35.07,35.07,0,0,0-5,.88l4.74-2.23c.88-.42,7.74-.94,9.67-.63s7.85,3.59,11.85,1.25c0,0,.89-.7-.18-1.82s-11.7-5.85-13.05-6.37-3-.36-5.77-.16-5.62.32-6.92,1.1-3.53,2-3.53,2,3.9-7.38,4.42-7.9,8.47-3.9,9-4.06,6-1,7.49-2.23a5.43,5.43,0,0,0,1.92-3.8c0-.68-.2-1.14-3.06-.88s-6.19.57-8.48.83-7.59,2.7-10.24,3.74-4.89,5.15-7.81,10.35-7,16.33-8.84,20.59-.62,16.85-8,26.62-9.36,11.55-9.36,11.55Z"/><path class="cls-7" d="M208.75,214.79s-13.25,5-19.65,28.27S175.94,348,174.44,366s25,33.67,39.49,16.18,33.85-71.65,33.85-71.65a34.7,34.7,0,0,0-17-12.32l-7,8.56S250.79,210,208.75,214.79Z"/><path class="cls-2" d="M183.5,275.71c-.3,2.37-.61,4.79-.91,7.26,24.94-3.4,40.53,4.46,45,7.17.46-2.29.93-4.74,1.39-7.31-7-3.62-22.67-9.76-45.51-7.12Zm-1.82,14.92c21.21-2.85,36.49,1.88,44.64,5.58-.64,2.84-1.22,5.22-1.67,7-6.89-3.4-21.86-8.71-43.79-5.32C181.13,295.46,181.41,293,181.68,290.63Z"/><path class="cls-1" d="M266.15,214.79a1.88,1.88,0,1,0-1.88-1.88A1.88,1.88,0,0,0,266.15,214.79Z"/><path class="cls-4" d="M270.55,214.06a1.15,1.15,0,1,0-1.15-1.15A1.16,1.16,0,0,0,270.55,214.06Z"/><path class="cls-4" d="M266.15,214.3a1.39,1.39,0,1,0-1.38-1.39A1.39,1.39,0,0,0,266.15,214.3Z"/><path class="cls-1" d="M266.15,213.53a.62.62,0,1,0-.62-.62A.63.63,0,0,0,266.15,213.53Z"/><path class="cls-3" d="M266.78,212.8a.62.62,0,1,0-.63-.62A.62.62,0,0,0,266.78,212.8Z"/><path class="cls-1" d="M270.55,213.49a.58.58,0,0,0,0-1.16.58.58,0,0,0,0,1.16Z"/><path class="cls-15" d="M211.25,385.86a.89.89,0,0,1-.59-1.55,21.7,21.7,0,0,0,2.58-2.66c13.53-16.34,31.66-65.75,33.54-70.94a34.28,34.28,0,0,0-15.72-11.43l-6.67,8.09a.88.88,0,0,1-1.09.23.91.91,0,0,1-.45-1c.09-.3,8.5-30.69,8.55-56.18a.89.89,0,0,1,.89-.89h0a.89.89,0,0,1,.89.89c0,20.31-5.33,43.66-7.6,52.75l4.49-5.45a.92.92,0,0,1,1-.29,35.24,35.24,0,0,1,17.49,12.68.88.88,0,0,1,.09.79c-.79,2.22-19.58,54.51-34,71.92a24.33,24.33,0,0,1-2.78,2.86A.92.92,0,0,1,211.25,385.86Z"/><path class="cls-15" d="M195.69,341.7a.88.88,0,0,1-.57-.2.9.9,0,0,1-.12-1.25l31.24-37.91a.89.89,0,1,1,1.37,1.13l-31.24,37.91A.88.88,0,0,1,195.69,341.7Z"/><path class="cls-15" d="M195.87,334.21a.89.89,0,0,1-.35-1.71c3-1.31,8.62-3.35,8.86-3.43a.88.88,0,0,1,1.13.53.89.89,0,0,1-.53,1.14c-.06,0-5.8,2.1-8.75,3.39A.94.94,0,0,1,195.87,334.21Z"/><path class="cls-15" d="M228.78,285a.85.85,0,0,1-.31-.06.89.89,0,0,1-.53-1.14c.06-.17,6.21-17,6.76-18.81a.89.89,0,1,1,1.7.51c-.56,1.88-6.53,18.22-6.79,18.91A.89.89,0,0,1,228.78,285Z"/><path class="cls-15" d="M355.15,273.71a.89.89,0,0,1-.89-.86c-.72-24.39-5.94-43.46-15.52-56.68a.89.89,0,0,1,1.44-1C350,228.64,355.3,248,356,272.8a.89.89,0,0,1-.87.91Z"/><path class="cls-15" d="M368.16,189.67a.89.89,0,0,1-.07-1.77c.12,0,12.05-1,18.31-1.06a.89.89,0,0,1,0,1.78c-6.2.09-18.07,1-18.19,1Z"/><path class="cls-1" d="M462,269.87H303a4.81,4.81,0,0,0-4.64,4.17L287,373.54a3.65,3.65,0,0,0,3.7,4.16H449.74a4.8,4.8,0,0,0,4.64-4.16L465.69,274A3.66,3.66,0,0,0,462,269.87Z"/><path class="cls-3" d="M475.54,269.87H309.2a4.81,4.81,0,0,0-4.64,4.17l-11.32,99.5a3.65,3.65,0,0,0,3.7,4.16H463.28a4.8,4.8,0,0,0,4.64-4.16L479.23,274A3.66,3.66,0,0,0,475.54,269.87Z"/><path class="cls-4" d="M398.77,331.11H366.85a2.85,2.85,0,0,0-2.83,3.76l16.37,65.61a5.16,5.16,0,0,0,4.7,3.76h16.57a3.6,3.6,0,0,0,3.61-3.76l-2.59-65.61A4,4,0,0,0,398.77,331.11Z"/><path class="cls-16" d="M403.59,331.11H371.67a2.85,2.85,0,0,0-2.83,3.76l16.37,65.61a5.16,5.16,0,0,0,4.7,3.76h16.57a3.6,3.6,0,0,0,3.61-3.76l-2.59-65.61A4,4,0,0,0,403.59,331.11Z"/><path class="cls-3" d="M431.89,410.38H347.27a6.16,6.16,0,0,1-6.14-6.14h0a6.15,6.15,0,0,1,6.14-6.14h84.62a6.15,6.15,0,0,1,6.14,6.14h0A6.16,6.16,0,0,1,431.89,410.38Z"/><path class="cls-4" d="M356.36,410.38H324.11a6.16,6.16,0,0,1-6.14-6.14h0a6.15,6.15,0,0,1,6.14-6.14h32.25a6.15,6.15,0,0,1,6.14,6.14h0A6.16,6.16,0,0,1,356.36,410.38Z"/><path class="cls-8" d="M7.6,404.24H644.75a7.62,7.62,0,0,1,7.6,7.59h0a7.62,7.62,0,0,1-7.6,7.59H619.11a4.24,4.24,0,0,0-4.22,4.23h0a4.23,4.23,0,0,0,4.22,4.22h9.39a5.28,5.28,0,0,1,5.27,5.27h0a5.28,5.28,0,0,1-5.27,5.27H24.7a5.29,5.29,0,0,1-5.28-5.27h0a5.29,5.29,0,0,1,5.28-5.27h7.38a4.24,4.24,0,0,0,4.23-4.22h0a4.24,4.24,0,0,0-4.23-4.23H7.6A7.62,7.62,0,0,1,0,411.84H0a7.62,7.62,0,0,1,7.6-7.59Zm4,34.19a5.08,5.08,0,0,0,5.06-5.06v-.43a5.08,5.08,0,0,0-5.06-5.06h0a5.08,5.08,0,0,0-5.07,5.06v.43a5.08,5.08,0,0,0,5.07,5.06Z"/><path class="cls-2" d="M556.93,276.67a45.75,45.75,0,1,1-32.36,13.4A45.61,45.61,0,0,1,556.93,276.67Z"/><circle class="cls-13" cx="556.93" cy="322.43" r="34.98" transform="translate(-47.47 101.46) rotate(-9.99)"/><rect class="cls-10" x="556.17" y="289.69" width="1.52" height="3.37" rx="0.76"/><rect class="cls-10" x="556.17" y="351.79" width="1.52" height="3.37" rx="0.76"/><path class="cls-2" d="M573.29,294.08h0a.76.76,0,0,1,.27,1l-.92,1.6a.77.77,0,0,1-1,.28h0a.77.77,0,0,1-.28-1l.93-1.6A.75.75,0,0,1,573.29,294.08Z"/><path class="cls-2" d="M542.25,347.86h0a.76.76,0,0,1,.28,1l-.93,1.61a.77.77,0,0,1-1,.28h0a.77.77,0,0,1-.28-1l.93-1.61A.76.76,0,0,1,542.25,347.86Z"/><path class="cls-2" d="M585.28,306.06h0a.77.77,0,0,1-.28,1l-1.61.92a.75.75,0,0,1-1-.27h0a.76.76,0,0,1,.28-1l1.61-.93A.77.77,0,0,1,585.28,306.06Z"/><path class="cls-2" d="M531.5,337.11h0a.77.77,0,0,1-.28,1l-1.6.92a.76.76,0,0,1-1-.27h0a.75.75,0,0,1,.28-1l1.6-.93A.77.77,0,0,1,531.5,337.11Z"/><rect class="cls-10" x="586.29" y="321.67" width="3.37" height="1.52" rx="0.76"/><rect class="cls-10" x="524.19" y="321.67" width="3.37" height="1.52" rx="0.76"/><path class="cls-2" d="M585.28,338.79h0a.76.76,0,0,1-1,.27l-1.61-.92a.78.78,0,0,1-.28-1h0a.75.75,0,0,1,1-.28l1.61.93A.75.75,0,0,1,585.28,338.79Z"/><path class="cls-2" d="M531.5,307.74h0a.76.76,0,0,1-1,.27l-1.6-.92a.76.76,0,0,1-.28-1h0a.76.76,0,0,1,1-.28l1.6.93A.75.75,0,0,1,531.5,307.74Z"/><path class="cls-2" d="M573.3,350.78h0a.75.75,0,0,1-1-.28l-.93-1.61a.75.75,0,0,1,.28-1h0a.75.75,0,0,1,1,.27l.92,1.61A.76.76,0,0,1,573.3,350.78Z"/><path class="cls-2" d="M542.25,297h0a.75.75,0,0,1-1-.28l-.93-1.61a.75.75,0,0,1,.28-1h0a.76.76,0,0,1,1,.27l.93,1.61A.78.78,0,0,1,542.25,297Z"/><path class="cls-2" d="M558,322.43a1.08,1.08,0,0,1-2.15,0V297.18a1.08,1.08,0,0,1,2.15,0Z"/><path class="cls-11" d="M557.71,321.69a1.08,1.08,0,0,1-1.57,1.47l-12.47-13.37a1.08,1.08,0,0,1,1.58-1.47Z"/><path class="cls-3" d="M139.85,43.07h67.37a10.25,10.25,0,0,1,10.23,10.22v72.1a1.15,1.15,0,0,1-1.95.81l-17.42-17.42H139.85a10.25,10.25,0,0,1-10.22-10.22V53.29A10.25,10.25,0,0,1,139.85,43.07Z"/><path class="cls-4" d="M135.34,48.47h67.37A9.36,9.36,0,0,1,212,57.8v72.1a.33.33,0,0,1,0,.15.38.38,0,0,1-.12.09.26.26,0,0,1-.15,0h0a.23.23,0,0,1-.11-.07L194.2,112.66a.93.93,0,0,0-.63-.26H135.34a9.36,9.36,0,0,1-9.33-9.33V57.8a9.36,9.36,0,0,1,9.33-9.33Zm67.37-1.78H135.34A11.15,11.15,0,0,0,124.23,57.8v45.27a11.13,11.13,0,0,0,11.11,11.11H193.2l17.16,17.16a2.08,2.08,0,0,0,1,.55h0a2.09,2.09,0,0,0,1.18-.12,2,2,0,0,0,.91-.75,2,2,0,0,0,.34-1.13V57.8a11.15,11.15,0,0,0-11.11-11.11Z"/><path class="cls-5" d="M191.13,62.32h0a11.68,11.68,0,0,0-16.47,0l-1.12,1.12-1.12-1.12a11.69,11.69,0,0,0-16.48,0h0a11.69,11.69,0,0,0,0,16.48l1.12,1.11,16.48,16.48L190,79.91l1.12-1.11A11.69,11.69,0,0,0,191.13,62.32Z"/><path class="cls-4" d="M614.2,142.41a11.09,11.09,0,1,0,3.25,7.85,11.09,11.09,0,0,0-3.25-7.85Zm-2.4-11a19.31,19.31,0,0,1,4.35,1.85,19.89,19.89,0,0,1,3.82,2.87.67.67,0,0,0,.81.1l5.15-3,0,0a1.28,1.28,0,0,1,1.72.49l0,0,3.63,6.28a1.28,1.28,0,0,1,.12,1,1.25,1.25,0,0,1-.59.78l0,0-5.11,3a.69.69,0,0,0-.32.76h0a19.72,19.72,0,0,1,.43,2.34,20.47,20.47,0,0,1,0,4.78,19.72,19.72,0,0,1-.43,2.34.69.69,0,0,0,.36.78l5.11,2.95h0a1.26,1.26,0,0,1,.59.77,1.27,1.27,0,0,1-.12,1l-3.65,6.32h0a1.3,1.3,0,0,1-1.75.47l0,0-5.12-3a.69.69,0,0,0-.81.1,19.57,19.57,0,0,1-8.2,4.74.67.67,0,0,0-.49.65v6A1.28,1.28,0,0,1,610,177h-7.29a1.28,1.28,0,0,1-1.28-1.27v-6a.68.68,0,0,0-.52-.66,19.31,19.31,0,0,1-4.35-1.85,19.53,19.53,0,0,1-3.82-2.88.68.68,0,0,0-.84-.08l-5.12,3a1.3,1.3,0,0,1-1.75-.47l0,0-3.63-6.29h0a1.27,1.27,0,0,1-.12-1,1.26,1.26,0,0,1,.59-.77l5.15-3a.67.67,0,0,0,.32-.75h0a19.72,19.72,0,0,1-.43-2.34,20.47,20.47,0,0,1,0-4.78,19.72,19.72,0,0,1,.43-2.34.69.69,0,0,0-.36-.78l-5.11-2.95a1.29,1.29,0,0,1-.47-1.74l0,0,3.63-6.28h0a1.28,1.28,0,0,1,1.75-.47h0l5.15,3a.68.68,0,0,0,.83-.11,19.71,19.71,0,0,1,3.8-2.86,19.23,19.23,0,0,1,4.37-1.86.68.68,0,0,0,.5-.66v-5.94a1.3,1.3,0,0,1,1.28-1.28H610a1.3,1.3,0,0,1,1.28,1.28v5.94A.68.68,0,0,0,611.8,131.42Z"/><path class="cls-17" d="M84.91,292.18h57.78a4.79,4.79,0,0,0,4.79-4.78V243.53a4.8,4.8,0,0,0-4.79-4.79h-2.35v-2.22A1.32,1.32,0,0,0,139,235.2H121.57a1.33,1.33,0,0,0-1.32,1.32v2.22H84.91a4.81,4.81,0,0,0-4.79,4.79V287.4A4.8,4.8,0,0,0,84.91,292.18Z"/><rect class="cls-13" x="84.82" y="247.12" width="44.31" height="45.07" rx="3.9"/><path class="cls-4" d="M90.67,292.18H144a8.42,8.42,0,0,0,6.92-4.78l16.82-37.75c1.17-2.64,0-4.79-2.65-4.79H162.3l1.06-2.37c.42-1,0-1.75-1-1.75H142.91a3.08,3.08,0,0,0-2.52,1.75l-1.06,2.37H111.75a8.44,8.44,0,0,0-6.92,4.79L88,287.4C86.84,290,88,292.18,90.67,292.18Z"/><path class="cls-3" d="M319.42,14.51H426.75A5.46,5.46,0,0,1,432.19,20V58.35a.59.59,0,0,1-.37.56.58.58,0,0,1-.66-.13l-9.28-9.27H319.42A5.46,5.46,0,0,1,314,44.06V20A5.46,5.46,0,0,1,319.42,14.51Z"/><path class="cls-18" d="M335.38,44.88A12.34,12.34,0,1,0,323,32.54,12.36,12.36,0,0,0,335.38,44.88Z"/><path class="cls-3" d="M335.38,30.39A3.37,3.37,0,1,0,332,27,3.37,3.37,0,0,0,335.38,30.39Z"/><path class="cls-3" d="M335.38,31.46h0a4.79,4.79,0,0,1,4.78,4.78V40.9a.54.54,0,0,1-.54.54h-8.48a.54.54,0,0,1-.54-.54V36.24A4.79,4.79,0,0,1,335.38,31.46Z"/><rect class="cls-19" x="364.91" y="31.42" width="26.77" height="2.25" rx="1.12"/><path class="cls-19" d="M355.6,31.42h3.29A1.13,1.13,0,0,1,360,32.54v0a1.12,1.12,0,0,1-1.12,1.12H355.6a1.12,1.12,0,0,1-1.12-1.12v0a1.12,1.12,0,0,1,1.12-1.12Z"/><path class="cls-4" d="M355.6,24.51h35a1.13,1.13,0,0,1,1.13,1.12h0a1.14,1.14,0,0,1-1.13,1.13h-35a1.13,1.13,0,0,1-1.12-1.13h0A1.12,1.12,0,0,1,355.6,24.51Z"/><path class="cls-4" d="M355.6,38.33h35a1.14,1.14,0,0,1,1.13,1.13h0a1.13,1.13,0,0,1-1.13,1.12h-35a1.12,1.12,0,0,1-1.12-1.12h0A1.13,1.13,0,0,1,355.6,38.33Z"/><path class="cls-5" d="M411.3,44.88A12.34,12.34,0,1,0,399,32.54,12.36,12.36,0,0,0,411.3,44.88Z"/><path class="cls-3" d="M414,29.87a3.78,3.78,0,1,0,1.11,2.67A3.79,3.79,0,0,0,414,29.87Zm-.82-3.74a6.66,6.66,0,0,1,2.78,1.61.24.24,0,0,0,.28,0l1.76-1h0a.48.48,0,0,1,.31,0,.43.43,0,0,1,.27.21h0l1.23,2.14a.42.42,0,0,1,0,.33.37.37,0,0,1-.2.26h0l-1.74,1a.23.23,0,0,0-.11.25h0c.06.26.11.53.15.8a6.67,6.67,0,0,1,0,1.63c0,.27-.09.54-.15.8a.23.23,0,0,0,.12.26l1.74,1h0a.37.37,0,0,1,.2.26.42.42,0,0,1,0,.33l-1.24,2.15h0a.43.43,0,0,1-.27.21.41.41,0,0,1-.32-.05h0l-1.74-1a.26.26,0,0,0-.28,0,6.25,6.25,0,0,1-1.3,1,6.38,6.38,0,0,1-1.49.64.23.23,0,0,0-.17.22v2a.45.45,0,0,1-.12.3.44.44,0,0,1-.31.13h-2.49a.4.4,0,0,1-.3-.13.42.42,0,0,1-.13-.3v-2a.25.25,0,0,0-.18-.23,6.47,6.47,0,0,1-1.48-.63,6.25,6.25,0,0,1-1.3-1,.24.24,0,0,0-.29,0l-1.74,1a.44.44,0,0,1-.33.05.43.43,0,0,1-.27-.21h0L402.79,36h0a.42.42,0,0,1,0-.33.37.37,0,0,1,.2-.26l1.75-1a.23.23,0,0,0,.11-.25h0c-.06-.26-.11-.53-.15-.8a8.32,8.32,0,0,1,0-1.63c0-.27.09-.54.15-.8a.23.23,0,0,0-.12-.26l-1.74-1a.37.37,0,0,1-.2-.26.42.42,0,0,1,0-.33h0L404,26.92h0a.43.43,0,0,1,.27-.21.46.46,0,0,1,.32.05h0l1.76,1a.23.23,0,0,0,.28,0,6.91,6.91,0,0,1,2.79-1.61.23.23,0,0,0,.17-.22v-2a.43.43,0,0,1,.13-.3.4.4,0,0,1,.3-.13h2.49a.44.44,0,0,1,.31.13.47.47,0,0,1,.12.3v2A.25.25,0,0,0,413.15,26.13Z"/><rect class="cls-20" x="108.39" y="394.97" width="75.09" height="6.89"/><path class="cls-2" d="M117.64,395.58a1.49,1.49,0,0,0,0-3h-53a5.79,5.79,0,0,0-4.11,1.71h0a5.83,5.83,0,0,0,4.11,9.93h53a1.49,1.49,0,0,0,0-3h-2.43a9.31,9.31,0,0,1-1.17-1A3.18,3.18,0,0,1,113,397.9a3.55,3.55,0,0,1,1.4-2.32Z"/><path class="cls-17" d="M183.47,395.58a1.49,1.49,0,1,0,0-3H117a5.79,5.79,0,0,0-4.11,1.71h0a5.83,5.83,0,0,0,4.11,9.93h66.52a1.49,1.49,0,1,0,0-3H117a2.84,2.84,0,0,1-2-4.85,2.87,2.87,0,0,1,2-.83Z"/><rect class="cls-20" x="66.93" y="381.81" width="62.95" height="8.35"/><path class="cls-6" d="M118.66,382.54a1.81,1.81,0,1,1,0-3.61h48.88a7,7,0,0,1,5,2.07h0a7.06,7.06,0,0,1-5,12H118.66a1.81,1.81,0,1,1,0-3.61h2.94a11.09,11.09,0,0,0,1.42-1.23,3.84,3.84,0,0,0,1.33-2.85,4.41,4.41,0,0,0-1.7-2.82Z"/><path class="cls-21" d="M66.93,382.54a1.81,1.81,0,1,1,0-3.61h52.56a7,7,0,0,1,5,2.07h0a7.06,7.06,0,0,1-5,12H66.93a1.81,1.81,0,1,1,0-3.61h52.56a3.45,3.45,0,1,0,0-6.9Z"/><rect class="cls-20" x="113.74" y="367.43" width="40.85" height="8.55"/><path class="cls-8" d="M125.22,368.18a1.85,1.85,0,1,0,0-3.7H95.1A7.22,7.22,0,0,0,90,366.6h0a7.23,7.23,0,0,0,5.1,12.32h30.12a1.85,1.85,0,1,0,0-3.7h-3a10.73,10.73,0,0,1-1.45-1.26,3.88,3.88,0,0,1-1.35-2.91,4.47,4.47,0,0,1,1.73-2.88Z"/><path class="cls-22" d="M154.59,368.18a1.85,1.85,0,0,0,0-3.7H124.37a7.23,7.23,0,0,0-5.1,2.12h0a7.23,7.23,0,0,0,5.11,12.32h30.22a1.85,1.85,0,0,0,0-3.7H124.37a3.53,3.53,0,0,1-3.53-3.52,3.52,3.52,0,0,1,3.53-3.53Z"/><path class="cls-5" d="M472.59,398.14h50.88a3.06,3.06,0,0,1,3,3.05h0a3.07,3.07,0,0,1-3,3.05H472.59a3.06,3.06,0,0,1-3-3.05h0A3.06,3.06,0,0,1,472.59,398.14Z"/><path class="cls-2" d="M474.3,398.14h47.46a1.73,1.73,0,0,0,1.72-1.72h0a1.72,1.72,0,0,0-1.72-1.72H474.3a1.72,1.72,0,0,0-1.72,1.72h0A1.73,1.73,0,0,0,474.3,398.14Z"/><path class="cls-6" d="M474.4,388.94h47.26a2.88,2.88,0,0,1,2.88,2.88h0a2.89,2.89,0,0,1-2.88,2.88H474.4a2.89,2.89,0,0,1-2.88-2.88h0A2.88,2.88,0,0,1,474.4,388.94Z"/><rect class="cls-23" x="476.85" y="387.62" width="7.97" height="7.97" rx="1.39" transform="translate(-136.08 454.62) rotate(-44.99)"/><path class="cls-23" d="M486.84,387.62H492a1.38,1.38,0,0,1,1.38,1.38v5.2a1.39,1.39,0,0,1-1.39,1.39h-5.2a1.38,1.38,0,0,1-1.38-1.38V389a1.39,1.39,0,0,1,1.39-1.39Z" transform="translate(-133.56 460.69) rotate(-44.99)"/><path class="cls-23" d="M495.44,387.62h5.2A1.38,1.38,0,0,1,502,389v5.2a1.39,1.39,0,0,1-1.39,1.39h-5.2a1.38,1.38,0,0,1-1.38-1.38V389a1.39,1.39,0,0,1,1.39-1.39Z" transform="translate(-131.04 466.77) rotate(-44.99)"/><rect class="cls-23" x="502.65" y="387.62" width="7.97" height="7.97" rx="1.39" transform="translate(-128.53 472.77) rotate(-44.98)"/><path class="cls-23" d="M512.64,387.62h5.2a1.38,1.38,0,0,1,1.38,1.38v5.2a1.39,1.39,0,0,1-1.39,1.39h-5.2a1.38,1.38,0,0,1-1.38-1.38V389a1.38,1.38,0,0,1,1.38-1.38Z" transform="translate(-126.02 478.85) rotate(-44.98)"/><path class="cls-17" d="M470.39,388.94h55.15a1.45,1.45,0,0,1,1.45,1.45h0a1.46,1.46,0,0,1-1.45,1.46H470.39a1.46,1.46,0,0,1-1.45-1.46h0A1.45,1.45,0,0,1,470.39,388.94Z"/><path class="cls-5" d="M527.78,384.76h0v.11h0a4.09,4.09,0,0,1-4.08,4.07H472.35c-4.31,0-4.91-3.47-3.72-8.28a17.7,17.7,0,0,1,17.12-13.42h24.41A17.67,17.67,0,0,1,527.78,384.76Z"/><path class="cls-6" d="M482.16,369.9h0a.58.58,0,0,1,0,.81l-1.53,1.53a.58.58,0,0,1-.81,0h0a.57.57,0,0,1,0-.82l1.52-1.52A.56.56,0,0,1,482.16,369.9Z"/><path class="cls-6" d="M488.85,369.9h0a.58.58,0,0,1,0,.81l-1.53,1.53a.58.58,0,0,1-.81,0h0a.57.57,0,0,1,0-.82L488,369.9A.57.57,0,0,1,488.85,369.9Z"/><path class="cls-6" d="M495.53,369.9h0a.58.58,0,0,1,0,.81L494,372.24a.58.58,0,0,1-.81,0h0a.57.57,0,0,1,0-.82l1.53-1.52A.56.56,0,0,1,495.53,369.9Z"/><path class="cls-6" d="M502.21,369.9h0a.58.58,0,0,1,0,.81l-1.53,1.53a.58.58,0,0,1-.81,0h0a.59.59,0,0,1,0-.82l1.53-1.52A.56.56,0,0,1,502.21,369.9Z"/><path class="cls-6" d="M508.89,369.9h0a.58.58,0,0,1,0,.81l-1.53,1.53a.58.58,0,0,1-.81,0h0a.59.59,0,0,1,0-.82l1.53-1.52A.56.56,0,0,1,508.89,369.9Z"/><path class="cls-6" d="M515.57,369.9h0a.56.56,0,0,1,0,.81l-1.52,1.53a.59.59,0,0,1-.82,0h0a.59.59,0,0,1,0-.82l1.53-1.52A.56.56,0,0,1,515.57,369.9Z"/><path class="cls-6" d="M517.13,375.22h0a.58.58,0,0,0,0,.81l1.53,1.53a.58.58,0,0,0,.81,0h0a.59.59,0,0,0,0-.82l-1.53-1.52A.56.56,0,0,0,517.13,375.22Z"/><path class="cls-6" d="M510.45,375.22h0a.56.56,0,0,0,0,.81l1.52,1.53a.59.59,0,0,0,.82,0h0a.59.59,0,0,0,0-.82l-1.53-1.52A.56.56,0,0,0,510.45,375.22Z"/><path class="cls-6" d="M503.77,375.22h0a.56.56,0,0,0,0,.81l1.52,1.53a.59.59,0,0,0,.82,0h0a.59.59,0,0,0,0-.82l-1.53-1.52A.56.56,0,0,0,503.77,375.22Z"/><path class="cls-6" d="M497.09,375.22h0a.56.56,0,0,0,0,.81l1.52,1.53a.58.58,0,0,0,.81,0h0a.57.57,0,0,0,0-.82l-1.52-1.52A.56.56,0,0,0,497.09,375.22Z"/><path class="cls-6" d="M490.41,375.22h0a.58.58,0,0,0,0,.81l1.53,1.53a.58.58,0,0,0,.81,0h0a.57.57,0,0,0,0-.82l-1.52-1.52A.56.56,0,0,0,490.41,375.22Z"/><path class="cls-6" d="M483.72,375.22h0a.58.58,0,0,0,0,.81l1.53,1.53a.58.58,0,0,0,.81,0h0a.57.57,0,0,0,0-.82l-1.52-1.52A.57.57,0,0,0,483.72,375.22Z"/><rect class="cls-19" x="443.36" y="157.87" width="76.89" height="99.36" rx="7.64"/><rect class="cls-9" x="450.24" y="165.38" width="63.14" height="2.8" rx="1.4"/><rect class="cls-9" x="450.24" y="174.17" width="63.14" height="2.8" rx="1.4"/><rect class="cls-9" x="499.18" y="183.84" width="14.19" height="2.8" rx="1.4"/><rect class="cls-9" x="499.18" y="193.77" width="14.19" height="2.8" rx="1.4"/><rect class="cls-9" x="499.18" y="203.7" width="14.19" height="2.8" rx="1.4"/><rect class="cls-9" x="499.18" y="213.63" width="14.19" height="2.8" rx="1.4"/><rect class="cls-9" x="499.18" y="223.56" width="14.19" height="2.8" rx="1.4"/><rect class="cls-9" x="499.18" y="233.49" width="14.19" height="2.8" rx="1.4"/><rect class="cls-9" x="481.68" y="243.42" width="31.7" height="2.8" rx="1.4"/><rect class="cls-9" x="484.54" y="233.49" width="11.33" height="2.8" rx="1.4"/><rect class="cls-9" x="488.36" y="223.56" width="7.1" height="2.8" rx="1.4"/><rect class="cls-9" x="491.36" y="213.63" width="5.95" height="2.8" rx="1.4"/><path class="cls-3" d="M450.24,192.94h5.41v50.58a2.72,2.72,0,0,1-2.71,2.7h0a2.71,2.71,0,0,1-2.7-2.7V192.94Z"/><path class="cls-3" d="M455.65,217.37v26.15a2.72,2.72,0,0,1-2.71,2.7h0a2.71,2.71,0,0,1-2.7-2.7V217.37a1.22,1.22,0,0,0,1.21,1.22h3C455.1,218.59,455.65,216.7,455.65,217.37Z"/><path class="cls-1" d="M452.37,182.64c-.16.32-2.13,8.42-2.13,10.3.88,2.14,4.39,1.57,5.41,0,0-1.88-2-10-2.13-10.3A.63.63,0,0,0,452.37,182.64Z"/><path class="cls-2" d="M452.37,182.64c-.05.1-.28,1-.56,2.12a2.53,2.53,0,0,0,1.13.25h0a2.53,2.53,0,0,0,1.13-.25c-.28-1.17-.51-2-.55-2.12A.63.63,0,0,0,452.37,182.64Z"/><path class="cls-1" d="M454.43,240.7h-3a1.22,1.22,0,0,1-1.21-1.22v2.57a1.21,1.21,0,0,0,1.21,1.21h3a1.22,1.22,0,0,0,1.22-1.21v-2.57A1.22,1.22,0,0,1,454.43,240.7Z"/><path class="cls-3" d="M482.28,193.34a6.83,6.83,0,1,0,2,4.83,6.78,6.78,0,0,0-2-4.83Zm-1.47-6.77a11.75,11.75,0,0,1,2.68,1.14,11.9,11.9,0,0,1,2.34,1.77.43.43,0,0,0,.5.06l3.18-1.84h0a.83.83,0,0,1,.58-.06.82.82,0,0,1,.48.36v0l2.23,3.87a.8.8,0,0,1,.08.6.77.77,0,0,1-.37.48h0l-3.15,1.82a.42.42,0,0,0-.19.46h0a11.1,11.1,0,0,1,.27,1.44,12.05,12.05,0,0,1,0,2.94,11.26,11.26,0,0,1-.27,1.45.42.42,0,0,0,.23.47l3.14,1.82h0a.77.77,0,0,1,.37.48.79.79,0,0,1-.08.6l-2.24,3.89h0a.78.78,0,0,1-.48.36.79.79,0,0,1-.6-.07l0,0-3.16-1.82a.43.43,0,0,0-.5.07,12.3,12.3,0,0,1-2.34,1.77,12.16,12.16,0,0,1-2.7,1.14.42.42,0,0,0-.31.41v3.66a.79.79,0,0,1-.78.78h-4.5a.75.75,0,0,1-.55-.23.79.79,0,0,1-.23-.55v-3.66a.42.42,0,0,0-.33-.41,12.41,12.41,0,0,1-2.67-1.14,12.06,12.06,0,0,1-2.35-1.77.42.42,0,0,0-.53-.05l-3.15,1.82a.75.75,0,0,1-.6.07.74.74,0,0,1-.47-.36l0,0-2.23-3.87h0a.79.79,0,0,1-.08-.6.77.77,0,0,1,.37-.48l3.17-1.83a.43.43,0,0,0,.2-.46h0a11.26,11.26,0,0,1-.27-1.45,12,12,0,0,1,0-2.94,11.1,11.1,0,0,1,.27-1.44.43.43,0,0,0-.22-.48L462.36,193a.78.78,0,0,1-.29-1.07v0l2.23-3.87h0a.77.77,0,0,1,.47-.36.84.84,0,0,1,.6.07h0l3.17,1.84a.44.44,0,0,0,.52-.07,11.85,11.85,0,0,1,2.34-1.76,11.48,11.48,0,0,1,2.69-1.15.41.41,0,0,0,.31-.4v-3.67a.79.79,0,0,1,.78-.78h4.5a.79.79,0,0,1,.55.23.75.75,0,0,1,.23.55v3.67A.44.44,0,0,0,480.81,186.57Z"/><path class="cls-3" d="M472.27,226.29a4.21,4.21,0,1,0,1.24,3,4.18,4.18,0,0,0-1.24-3Zm-.91-4.19a7.39,7.39,0,0,1,1.66.7,7.48,7.48,0,0,1,1.45,1.1.26.26,0,0,0,.31,0l2-1.13h0a.48.48,0,0,1,.35,0,.5.5,0,0,1,.3.23h0l1.38,2.39a.51.51,0,0,1,.05.38.48.48,0,0,1-.23.29h0l-1.95,1.12a.26.26,0,0,0-.12.29h0a8.72,8.72,0,0,1,.16.89,6.84,6.84,0,0,1,.06.91,7,7,0,0,1-.06.92,8.72,8.72,0,0,1-.16.89.26.26,0,0,0,.13.29l1.95,1.13h0a.48.48,0,0,1,.23.29.48.48,0,0,1-.05.37l-1.39,2.41h0a.48.48,0,0,1-.3.22.45.45,0,0,1-.36,0h0l-2-1.13a.26.26,0,0,0-.31,0,7.38,7.38,0,0,1-3.12,1.81.26.26,0,0,0-.19.24V239a.46.46,0,0,1-.14.34.49.49,0,0,1-.34.15H467.9a.49.49,0,0,1-.35-.15.46.46,0,0,1-.14-.34V236.7a.27.27,0,0,0-.2-.25,7.26,7.26,0,0,1-3.11-1.8.27.27,0,0,0-.32,0l-1.95,1.13a.48.48,0,0,1-.37,0,.51.51,0,0,1-.3-.22h0l-1.38-2.4h0a.48.48,0,0,1,0-.37.48.48,0,0,1,.23-.29l2-1.14a.24.24,0,0,0,.12-.28h0a8.72,8.72,0,0,1-.16-.89,7,7,0,0,1-.05-.92,6.85,6.85,0,0,1,.05-.91,8.72,8.72,0,0,1,.16-.89.26.26,0,0,0-.13-.29L460,226.05a.47.47,0,0,1-.18-.66v0l1.38-2.39h0a.52.52,0,0,1,.3-.23.49.49,0,0,1,.37.05h0l2,1.13a.26.26,0,0,0,.32,0,7.68,7.68,0,0,1,1.44-1.09,7.49,7.49,0,0,1,1.67-.71.26.26,0,0,0,.19-.25v-2.26a.48.48,0,0,1,.14-.35.53.53,0,0,1,.35-.14h2.78a.52.52,0,0,1,.34.14.48.48,0,0,1,.14.35v2.26A.27.27,0,0,0,471.36,222.1Z"/><rect class="cls-13" x="161.17" y="145.09" width="28.84" height="28.85" rx="2.76"/><rect class="cls-13" x="161.17" y="183.69" width="28.84" height="28.85" rx="2.76"/><path class="cls-4" d="M160.26,140.91h23.33a3.65,3.65,0,0,1,2.58,1.07l.05.05a3.65,3.65,0,0,1,1,2.52v23.33a3.65,3.65,0,0,1-3.65,3.65H160.26a3.65,3.65,0,0,1-2.58-1.07l-.05-.06a3.63,3.63,0,0,1-1-2.52V144.55a3.65,3.65,0,0,1,3.65-3.64Zm23.33,1.77H160.26a1.88,1.88,0,0,0-1.87,1.87v23.33a1.82,1.82,0,0,0,.51,1.28l0,0a1.87,1.87,0,0,0,1.32.55h23.33a1.88,1.88,0,0,0,1.87-1.87V144.55a1.89,1.89,0,0,0-.51-1.28l0,0A1.87,1.87,0,0,0,183.59,142.68Z"/><path class="cls-4" d="M160.26,179.51h23.33a3.65,3.65,0,0,1,2.58,1.07l.05,0a3.65,3.65,0,0,1,1,2.52v23.33a3.68,3.68,0,0,1-1.08,2.58,3.61,3.61,0,0,1-2.57,1.07H160.26a3.65,3.65,0,0,1-2.58-1.07l-.05-.06a3.63,3.63,0,0,1-1-2.52V183.15a3.65,3.65,0,0,1,3.65-3.64Zm23.33,1.77H160.26a1.88,1.88,0,0,0-1.87,1.87v23.33a1.82,1.82,0,0,0,.51,1.28l0,0a1.87,1.87,0,0,0,1.32.55h23.33a1.87,1.87,0,0,0,1.32-.55,1.83,1.83,0,0,0,.55-1.32V183.15a1.91,1.91,0,0,0-.51-1.28l0,0A1.87,1.87,0,0,0,183.59,181.28Z"/><path class="cls-5" d="M163.53,188.73a1.55,1.55,0,0,1,2.17-2.21l6.21,6.11,6.1-6.21a1.55,1.55,0,1,1,2.21,2.17l-6.11,6.21,6.21,6.1a1.55,1.55,0,0,1-2.17,2.21l-6.21-6.1-6.1,6.2a1.55,1.55,0,0,1-2.21-2.17l6.11-6.2Z"/><path class="cls-18" d="M164.4,157.93a1.56,1.56,0,0,1,0-2.19,1.54,1.54,0,0,1,2.19,0l3.24,3.11,7.42-8.45a1.55,1.55,0,0,1,2.33,2L171,162.13a1.56,1.56,0,0,1-2.2,0Z"/><rect class="cls-19" x="120.41" y="121.44" width="9.15" height="9.15" rx="2.13"/><rect class="cls-19" x="103.49" y="121.44" width="9.15" height="9.15" rx="2.13"/><rect class="cls-19" x="86.56" y="121.44" width="9.15" height="9.15" rx="2.13"/><path class="cls-19" d="M71.77,121.44h4.88a2.14,2.14,0,0,1,2.14,2.14v4.88a2.13,2.13,0,0,1-2.13,2.13H71.77a2.13,2.13,0,0,1-2.13-2.13v-4.88A2.13,2.13,0,0,1,71.77,121.44Z"/><rect class="cls-19" x="52.71" y="121.44" width="9.15" height="9.15" rx="2.13"/><rect class="cls-19" x="35.79" y="121.44" width="9.15" height="9.15" rx="2.13"/><path class="cls-19" d="M88.09,103H93a2.13,2.13,0,0,1,2.13,2.13V110A2.13,2.13,0,0,1,93,112.14H88.08A2.13,2.13,0,0,1,86,110v-4.88A2.14,2.14,0,0,1,88.09,103Z"/><path class="cls-19" d="M71.16,103H76a2.13,2.13,0,0,1,2.13,2.13V110A2.13,2.13,0,0,1,76,112.14H71.16A2.13,2.13,0,0,1,69,110v-4.88A2.14,2.14,0,0,1,71.16,103Z"/><path class="cls-19" d="M54.24,103h4.88a2.13,2.13,0,0,1,2.13,2.13V110a2.13,2.13,0,0,1-2.13,2.13H54.24A2.13,2.13,0,0,1,52.1,110v-4.88A2.14,2.14,0,0,1,54.24,103Z"/><rect class="cls-19" x="69.64" y="141.27" width="9.15" height="9.15" rx="2.13"/><rect class="cls-19" x="52.71" y="141.27" width="9.15" height="9.15" rx="2.13"/><rect class="cls-19" x="419.47" y="85.34" width="9.15" height="9.15" rx="2.13"/><rect class="cls-19" x="402.55" y="85.34" width="9.15" height="9.15" rx="2.13"/><rect class="cls-19" x="385.62" y="85.34" width="9.15" height="9.15" rx="2.13"/><path class="cls-19" d="M370.83,85.34h4.88a2.13,2.13,0,0,1,2.13,2.13v4.88a2.13,2.13,0,0,1-2.13,2.13h-4.88a2.14,2.14,0,0,1-2.14-2.14V87.47A2.13,2.13,0,0,1,370.83,85.34Z"/><path class="cls-19" d="M353.91,85.34h4.88a2.14,2.14,0,0,1,2.14,2.14v4.88a2.13,2.13,0,0,1-2.13,2.13h-4.88a2.13,2.13,0,0,1-2.13-2.13V87.47A2.13,2.13,0,0,1,353.91,85.34Z"/><rect class="cls-19" x="401.93" y="66.89" width="9.15" height="9.15" rx="2.13"/><rect class="cls-19" x="385.01" y="66.89" width="9.15" height="9.15" rx="2.13"/><path class="cls-19" d="M370.22,66.89h4.88A2.14,2.14,0,0,1,377.23,69V73.9A2.13,2.13,0,0,1,375.1,76h-4.88a2.13,2.13,0,0,1-2.13-2.13V69A2.13,2.13,0,0,1,370.22,66.89Z"/><rect class="cls-19" x="385.62" y="105.16" width="9.15" height="9.15" rx="2.13"/><path class="cls-19" d="M370.83,105.16h4.88a2.13,2.13,0,0,1,2.13,2.13v4.88a2.13,2.13,0,0,1-2.13,2.13h-4.88a2.14,2.14,0,0,1-2.14-2.14v-4.88A2.13,2.13,0,0,1,370.83,105.16Z"/><path class="cls-3" d="M87.62,41.52a1.33,1.33,0,0,1,2.65,0v6a1.33,1.33,0,1,1-2.65,0v-6Zm-9.05,4.85a1.33,1.33,0,1,1,1.88-1.88l4.22,4.22a1.33,1.33,0,1,1-1.88,1.88l-4.22-4.22Zm-3,9.82a1.33,1.33,0,0,1,0-2.65h6a1.33,1.33,0,1,1,0,2.65Zm4.85,9a1.33,1.33,0,1,1-1.88-1.88l4.22-4.22a1.35,1.35,0,0,1,1.88,0,1.33,1.33,0,0,1,0,1.88l-4.22,4.22Zm9.82,3a1.33,1.33,0,1,1-2.65,0v-6a1.33,1.33,0,0,1,2.65,0v6Zm9-4.85a1.33,1.33,0,1,1-1.87,1.88L93.21,61a1.33,1.33,0,0,1,1.88-1.88l4.22,4.22Zm3-9.81a1.33,1.33,0,1,1,0,2.65h-6a1.33,1.33,0,0,1,0-2.65Zm-4.84-9a1.33,1.33,0,0,1,1.87,1.88l-4.22,4.22a1.33,1.33,0,0,1-1.88,0,1.35,1.35,0,0,1,0-1.88Z"/><path class="cls-3" d="M135.76,319.84a1.33,1.33,0,1,1,2.65,0v6a1.33,1.33,0,1,1-2.65,0v-6Zm-9,4.84a1.33,1.33,0,0,1,1.88-1.88l4.22,4.22a1.33,1.33,0,0,1-1.88,1.88l-4.22-4.22Zm-3,9.82a1.33,1.33,0,0,1,0-2.65h6a1.33,1.33,0,1,1,0,2.65Zm4.85,9a1.33,1.33,0,0,1-1.88-1.87l4.22-4.22a1.33,1.33,0,0,1,1.88,1.87l-4.22,4.22Zm9.82,3a1.33,1.33,0,1,1-2.65,0v-6a1.33,1.33,0,0,1,2.65,0v6Zm9-4.84a1.32,1.32,0,0,1-1.87,1.87l-4.22-4.22a1.32,1.32,0,0,1,1.87-1.87l4.22,4.22Zm3-9.82a1.33,1.33,0,1,1,0,2.65h-6a1.33,1.33,0,0,1,0-2.65Zm-4.84-9.05a1.33,1.33,0,0,1,1.87,1.88l-4.22,4.22a1.33,1.33,0,0,1-1.87-1.88Z"/><path class="cls-3" d="M548,149.84a1.33,1.33,0,1,1,2.65,0v6a1.33,1.33,0,0,1-2.65,0v-6Zm-9,4.85a1.33,1.33,0,0,1,1.87-1.88L545,157a1.32,1.32,0,1,1-1.87,1.87l-4.22-4.21Zm-3,9.81a1.33,1.33,0,1,1,0-2.65h6a1.33,1.33,0,1,1,0,2.65Zm4.84,9.05a1.33,1.33,0,0,1-1.87-1.88l4.22-4.22a1.33,1.33,0,1,1,1.87,1.88l-4.22,4.22Zm9.82,3a1.33,1.33,0,0,1-2.65,0v-6a1.33,1.33,0,1,1,2.65,0v6Zm9-4.85a1.33,1.33,0,0,1-1.87,1.88l-4.22-4.22a1.33,1.33,0,1,1,1.87-1.88l4.22,4.22Zm3-9.82a1.33,1.33,0,1,1,0,2.65h-6a1.33,1.33,0,1,1,0-2.65Zm-4.84-9a1.33,1.33,0,0,1,1.87,1.88l-4.22,4.21a1.32,1.32,0,1,1-1.87-1.87Z"/><path class="cls-3" d="M35.4,251.16v2.15h2.15a1.64,1.64,0,0,1,1.64,1.63h0a1.65,1.65,0,0,1-1.64,1.64H35.4v2.15a1.63,1.63,0,0,1-1.63,1.63h0a1.64,1.64,0,0,1-1.64-1.63v-2.15H30a1.64,1.64,0,0,1-1.63-1.64h0A1.63,1.63,0,0,1,30,253.31h2.15v-2.15a1.65,1.65,0,0,1,1.64-1.64h0A1.64,1.64,0,0,1,35.4,251.16Z"/><path class="cls-3" d="M215.93,172.93v2.15h2.15a1.64,1.64,0,0,1,1.63,1.63h0a1.64,1.64,0,0,1-1.63,1.64h-2.15v2.15a1.64,1.64,0,0,1-1.64,1.63h0a1.64,1.64,0,0,1-1.63-1.63v-2.15h-2.15a1.65,1.65,0,0,1-1.64-1.64h0a1.65,1.65,0,0,1,1.64-1.63h2.15v-2.15a1.64,1.64,0,0,1,1.63-1.63h0A1.64,1.64,0,0,1,215.93,172.93Z"/><path class="cls-3" d="M241.32,23.72v2.43h2.42A1.84,1.84,0,0,1,245.58,28h0a1.84,1.84,0,0,1-1.84,1.84h-2.42v2.42a1.84,1.84,0,0,1-1.84,1.84h0a1.84,1.84,0,0,1-1.84-1.84V29.83h-2.43A1.85,1.85,0,0,1,233.37,28h0a1.84,1.84,0,0,1,1.84-1.84h2.43V23.72a1.84,1.84,0,0,1,1.84-1.84h0A1.85,1.85,0,0,1,241.32,23.72Z"/><path class="cls-3" d="M555.74,249.38v2.42h2.42a1.85,1.85,0,0,1,1.84,1.85h0a1.85,1.85,0,0,1-1.84,1.84h-2.42v2.42a1.85,1.85,0,0,1-1.85,1.84h0a1.85,1.85,0,0,1-1.84-1.84v-2.42h-2.42a1.85,1.85,0,0,1-1.84-1.84h0a1.85,1.85,0,0,1,1.84-1.85h2.42v-2.42a1.85,1.85,0,0,1,1.84-1.84h0A1.85,1.85,0,0,1,555.74,249.38Z"/><path class="cls-3" d="M491.05,327.61V330h2.42a1.85,1.85,0,0,1,1.84,1.84h0a1.84,1.84,0,0,1-1.84,1.84h-2.42v2.43a1.85,1.85,0,0,1-1.84,1.84h0a1.84,1.84,0,0,1-1.84-1.84v-2.43h-2.43a1.84,1.84,0,0,1-1.84-1.84h0a1.85,1.85,0,0,1,1.84-1.84h2.43v-2.42a1.84,1.84,0,0,1,1.84-1.84h0A1.85,1.85,0,0,1,491.05,327.61Z"/></g></g></svg>